<svg height="512pt" viewBox="0 0 512 512" width="512pt" xmlns="http://www.w3.org/2000/svg"><path d="m37.605469 334.710938 13.949219 160.398437c.777343 9.125 8.40625 16.140625 17.566406 16.152344h214.863281l27.71875-132.414063 3.792969-44.136718 2.296875-97.105469-282.484375 17.65625zm0 0" fill="#cbb292"/><path d="m512 436.226562v17.65625c0 31.691407-25.691406 57.378907-57.378906 57.378907h-291.3125c-31.6875 0-57.378906-25.6875-57.378906-57.378907v-17.65625c.011718-3.492187.335937-6.980468.972656-10.414062 5.296875 13.769531 19.332031 7.238281 33.984375 6 9.085937-1.898438 17.914062-4.863281 26.308593-8.824219 9.664063-3.558593 19.539063-6.503906 29.570313-8.828125 14.246094-2.558594 28.835937-2.558594 43.078125 0 13.734375 2.109375 27.324219 5.058594 40.695312 8.828125 28.304688 8.246094 57.238282 14.152344 86.511719 17.652344 49.523438 5.03125 100.105469 13.507813 144.773438-8.738281.085937 1.414062.175781 2.914062.175781 4.324218zm0 0" fill="#fdd7ad"/><path d="m335.449219 61.054688v17.65625h-317.792969v-69.851563c-.007812-2.476563 1.019531-4.839844 2.835938-6.515625 1.820312-1.679688 4.257812-2.519531 6.722656-2.3125l300.136718 25.015625c4.589844.382813 8.113282 4.226563 8.097657 8.828125zm0 0" fill="#7f5b53"/><path d="m22.246094 149.332031-4.589844-52.964843h317.792969l-4.589844 52.964843-4.238281 44.136719h-300.136719zm0 0" fill="#cbb292"/><path d="m17.65625 158.160156h317.792969c4.875 0 8.828125 3.949219 8.828125 8.828125v158.894531c0 4.875-3.953125 8.828126-8.828125 8.828126h-317.792969c-4.875 0-8.828125-3.953126-8.828125-8.828126v-158.894531c0-4.878906 3.953125-8.828125 8.828125-8.828125zm0 0" fill="#af8066"/><path d="m8.828125 61.054688h335.449219c4.875 0 8.824218 3.953124 8.824218 8.828124v26.484376c0 4.875-3.949218 8.828124-8.824218 8.828124h-335.449219c-4.875 0-8.828125-3.953124-8.828125-8.828124v-26.484376c0-4.875 3.953125-8.828124 8.828125-8.828124zm0 0" fill="#af8066"/><g fill="#7f5b53"><path d="m52.964844 228.78125c-4.875 0-8.828125-3.953125-8.828125-8.828125v-26.484375c0-4.875 3.953125-8.828125 8.828125-8.828125s8.828125 3.953125 8.828125 8.828125v26.484375c0 4.875-3.953125 8.828125-8.828125 8.828125zm0 0"/><path d="m88.277344 228.78125c-4.875 0-8.828125-3.953125-8.828125-8.828125v-26.484375c0-4.875 3.953125-8.828125 8.828125-8.828125s8.824218 3.953125 8.824218 8.828125v26.484375c0 4.875-3.949218 8.828125-8.824218 8.828125zm0 0"/><path d="m123.585938 228.78125c-4.875 0-8.828126-3.953125-8.828126-8.828125v-26.484375c0-4.875 3.953126-8.828125 8.828126-8.828125s8.828124 3.953125 8.828124 8.828125v26.484375c0 4.875-3.953124 8.828125-8.828124 8.828125zm0 0"/><path d="m158.898438 228.78125c-4.878907 0-8.828126-3.953125-8.828126-8.828125v-26.484375c0-4.875 3.949219-8.828125 8.828126-8.828125 4.875 0 8.824218 3.953125 8.824218 8.828125v26.484375c0 4.875-3.949218 8.828125-8.824218 8.828125zm0 0"/><path d="m194.207031 228.78125c-4.875 0-8.828125-3.953125-8.828125-8.828125v-26.484375c0-4.875 3.953125-8.828125 8.828125-8.828125s8.828125 3.953125 8.828125 8.828125v26.484375c0 4.875-3.953125 8.828125-8.828125 8.828125zm0 0"/><path d="m229.515625 228.78125c-4.875 0-8.824219-3.953125-8.824219-8.828125v-26.484375c0-4.875 3.949219-8.828125 8.824219-8.828125 4.878906 0 8.828125 3.953125 8.828125 8.828125v26.484375c0 4.875-3.949219 8.828125-8.828125 8.828125zm0 0"/><path d="m264.828125 228.78125c-4.875 0-8.828125-3.953125-8.828125-8.828125v-26.484375c0-4.875 3.953125-8.828125 8.828125-8.828125s8.828125 3.953125 8.828125 8.828125v26.484375c0 4.875-3.953125 8.828125-8.828125 8.828125zm0 0"/><path d="m300.136719 228.78125c-4.875 0-8.828125-3.953125-8.828125-8.828125v-26.484375c0-4.875 3.953125-8.828125 8.828125-8.828125s8.828125 3.953125 8.828125 8.828125v26.484375c0 4.875-3.953125 8.828125-8.828125 8.828125zm0 0"/></g><path d="m511.824219 431.902344c-44.976563 21.675781-95.167969 30.183594-144.773438 24.539062-29.261719-3.347656-58.195312-9.105468-86.511719-17.210937-13.339843-4.316407-26.929687-7.824219-40.695312-10.507813-14.28125-2.351562-28.867188-2.144531-43.078125.621094-10.019531 2.113281-19.894531 4.855469-29.570313 8.207031-8.433593 3.597657-17.265624 6.179688-26.308593 7.679688-14.414063 1.941406-28.339844-6.015625-33.984375-19.417969 4.984375-27.226562 28.726562-46.996094 56.40625-46.964844h291.3125c30.007812.007813 54.941406 23.132813 57.203125 53.054688zm0 0" fill="#ff5364"/></svg>