<svg height="511pt" viewBox="-4 0 511 511.95257" width="511pt" xmlns="http://www.w3.org/2000/svg"><path d="m259.6875 511.953125h-214.691406c-6.082032-.015625-11.710938-3.207031-14.839844-8.417969l-21.003906-34.972656 121.492187-26.035156zm0 0" fill="#d1d4d1"/><path d="m106.347656 112.765625h-43.390625l-16.027343-24.003906c-3.691407-5.535157-4.039063-12.65625-.898438-18.527344s9.253906-9.535156 15.910156-9.535156c6.035156 0 11.667969 3.015625 15.015625 8.035156zm0 0" fill="#c03a2b"/><path d="m295.527344 147.476562-20.976563-34.960937c-3.136719-5.230469-8.785156-8.425781-14.882812-8.425781h-214.65625c-6.097657 0-11.746094 3.195312-14.882813 8.425781l-20.976562 34.960937v17.355469h286.375zm0 0" fill="#d1d4d1"/><path d="m304.207031 242.9375v-86.78125c0-4.792969-3.886719-8.679688-8.679687-8.679688h-286.375c-4.789063 0-8.675782 3.886719-8.675782 8.679688v303.730469c0 4.789062 3.886719 8.675781 8.675782 8.675781h130.953125" fill="#e64c3c"/><path d="m191.390625 52.019531c0 9.585938-7.769531 17.355469-17.355469 17.355469-9.585937 0-17.355468-7.769531-17.355468-17.355469 0-9.585937 7.769531-17.355469 17.355468-17.355469 9.585938 0 17.355469 7.769532 17.355469 17.355469zm0 0" fill="#9fc9d3"/><path d="m200.070312 17.308594c-1.136718-.015625-2.253906-.25-3.296874-.695313-1.054688-.4375-2.019532-1.054687-2.867188-1.820312-1.582031-1.664063-2.480469-3.863281-2.515625-6.164063.035156-2.296875.933594-4.496094 2.515625-6.160156.832031-.785156 1.804688-1.402344 2.867188-1.820312 3.234374-1.3125 6.9375-.5976568 9.457031 1.820312l1.042969 1.300781c.328124.484375.589843 1.011719.78125 1.5625.25.492188.425781 1.019531.519531 1.5625.097656.574219.152343 1.152344.171875 1.734375-.019532.582032-.074219 1.164063-.171875 1.738282-.09375.542968-.269531 1.070312-.519531 1.5625-.191407.550781-.453126 1.078124-.78125 1.558593l-1.042969 1.304688c-1.664063 1.582031-3.863281 2.480469-6.160157 2.515625zm0 0" fill="#9fc9d3"/><path d="m217.425781 43.34375c-1.132812-.019531-2.253906-.253906-3.296875-.695312-1.050781-.445313-2.019531-1.058594-2.863281-1.824219-3.359375-3.421875-3.359375-8.898438 0-12.320313.828125-.789062 1.800781-1.410156 2.863281-1.832031 3.238282-1.308594 6.941406-.589844 9.457032 1.832031.347656.433594.695312.867188 1.042968 1.300782.324219.480468.589844 1.003906.78125 1.554687.25.492187.425782 1.023437.519532 1.570313.097656.574218.15625 1.152343.171874 1.734374-.015624.582032-.074218 1.160157-.171874 1.734376-.09375.546874-.269532 1.078124-.519532 1.574218-.191406.550782-.453125 1.078125-.78125 1.558594-.347656.433594-.695312.871094-1.042968 1.304688-1.667969 1.578124-3.863282 2.472656-6.160157 2.507812zm0 0" fill="#9fc9d3"/><path d="m139.324219 25.988281c-1.132813-.015625-2.253907-.25-3.296875-.695312-1.050782-.441407-2.019532-1.058594-2.863282-1.824219-1.585937-1.664062-2.484374-3.863281-2.519531-6.160156.035157-2.296875.933594-4.496094 2.519531-6.160156.828126-.785157 1.800782-1.40625 2.863282-1.824219 3.234375-1.308594 6.9375-.59375 9.457031 1.824219l1.042969 1.300781c.328125.484375.589844 1.007812.78125 1.5625.25.492187.425781 1.015625.519531 1.5625.097656.574219.15625 1.152343.171875 1.734375-.015625.582031-.074219 1.160156-.171875 1.734375-.09375.542969-.269531 1.070312-.519531 1.5625-.191406.554687-.453125 1.078125-.78125 1.5625l-1.042969 1.300781c-1.664063 1.585938-3.863281 2.484375-6.160156 2.519531zm0 0" fill="#9fc9d3"/><path d="m139.324219 147.476562c-16.71875 17.246094-25.140625 40.894532-23.082031 64.824219 1.214843 23.867188 17.355468 47.558594 32.367187 65.519531l-9.285156 49.550782c-10.761719-9.980469-22.128907-19.265625-33.148438-28.984375-16.222656-14.289063-29.3125-31.78125-38.445312-51.371094-14.058594-31.414063-22.148438-65.167969-23.863281-99.539063zm0 0" fill="#e6e7e8"/><path d="m156.679688 425.171875h321.085937c4.792969 0 8.675781 3.886719 8.675781 8.679687v26.035157c0 28.753906-23.3125 52.066406-52.066406 52.066406h-242.984375c-28.753906 0-52.066406-23.3125-52.066406-52.066406v-17.359375c0-9.582032 7.769531-17.355469 17.355469-17.355469zm0 0" fill="#cb8252"/><path d="m208.746094 242.9375h208.273437c38.339844 0 69.421875 31.082031 69.421875 69.421875v43.390625h-347.117187v-43.390625c0-38.339844 31.082031-69.421875 69.421875-69.421875zm0 0" fill="#cb8252"/><path d="m443.050781 390.460938h43.390625v-43.390626h-347.117187v43.390626h156.203125" fill="#f0c419"/><g fill="#e4c05c"><path d="m191.390625 295.003906c-3.507813 0-6.671875-2.117187-8.015625-5.359375-1.34375-3.242187-.601562-6.972656 1.882812-9.453125l8.675782-8.679687c3.40625-3.289063 8.816406-3.242188 12.164062.105469 3.347656 3.347656 3.394532 8.761718.105469 12.164062l-8.675781 8.679688c-1.628906 1.628906-3.835938 2.542968-6.136719 2.542968zm0 0"/><path d="m278.171875 295.003906c-3.511719 0-6.671875-2.117187-8.015625-5.359375-1.34375-3.242187-.601562-6.972656 1.878906-9.453125l8.679688-8.679687c3.402344-3.289063 8.816406-3.242188 12.164062.105469 3.347656 3.347656 3.394532 8.761718.105469 12.164062l-8.679687 8.679688c-1.625 1.628906-3.832032 2.542968-6.132813 2.542968zm0 0"/><path d="m243.460938 286.324219c-2.304688 0-4.511719-.914063-6.136719-2.542969l-8.679688-8.675781c-3.289062-3.40625-3.238281-8.816407.105469-12.164063 3.347656-3.347656 8.761719-3.394531 12.167969-.105468l8.675781 8.675781c2.480469 2.480469 3.222656 6.214843 1.882812 9.457031-1.34375 3.242188-4.507812 5.355469-8.015624 5.355469zm0 0"/><path d="m373.628906 295.003906c-3.507812 0-6.671875-2.117187-8.015625-5.359375-1.34375-3.242187-.601562-6.972656 1.878907-9.453125l8.679687-8.679687c3.40625-3.289063 8.816406-3.242188 12.164063.105469 3.347656 3.347656 3.394531 8.761718.105468 12.164062l-8.675781 8.679688c-1.628906 1.628906-3.835937 2.542968-6.136719 2.542968zm0 0"/><path d="m338.917969 286.324219c-2.300781 0-4.507813-.914063-6.136719-2.542969l-8.675781-8.675781c-3.289063-3.40625-3.242188-8.816407.105469-12.164063 3.347656-3.347656 8.757812-3.394531 12.164062-.105468l8.675781 8.675781c2.484375 2.480469 3.226563 6.214843 1.882813 9.457031s-4.507813 5.355469-8.015625 5.355469zm0 0"/><path d="m425.695312 286.324219c-2.300781 0-4.507812-.914063-6.132812-2.542969l-8.679688-8.675781c-3.289062-3.40625-3.242187-8.816407.105469-12.164063 3.347657-3.347656 8.761719-3.394531 12.164063-.105468l8.679687 8.675781c2.480469 2.480469 3.222657 6.214843 1.878907 9.457031-1.339844 3.242188-4.503907 5.355469-8.015626 5.355469zm0 0"/></g><path d="m295.527344 381.78125h-147.527344c-14.375 0-26.03125 11.65625-26.03125 26.035156s11.65625 26.035156 26.03125 26.035156h329.765625c14.375 0 26.03125-11.65625 26.03125-26.035156s-11.65625-26.035156-26.03125-26.035156h-34.714844" fill="#805333"/><path d="m443.050781 381.78125-73.761719 52.070312-65.082031-45.90625-8.679687-6.164062v-8.675781h147.523437zm0 0" fill="#f0c419"/></svg>