<svg height="512pt" viewBox="-4 0 512 512.00008" width="512pt" xmlns="http://www.w3.org/2000/svg"><path d="m312.40625 104.136719-11.800781 111.425781-47.207031 296.4375h-194.386719c-8.886719.003906-16.339844-6.699219-17.269531-15.535156l-2.953126-27.855469-19.261718-181.195313-19.527344-183.277343zm0 0" fill="#90bae1"/><path d="m296.265625 243.503906-.605469 6.074219-7.292968 80.183594-97.453126 138.847656h-152.125l-21.171874-198.984375 45.992187 13.882812c28.265625 8.484376 57.71875 12.324219 87.214844 11.371094 1.648437 0 3.382812-.089844 5.03125-.175781 4.339843-.171875 8.59375-.519531 12.84375-1.039063 24.945312-2.71875 49.441406-8.609374 72.894531-17.53125 19.207031-9.140624 37.511719-20.066406 54.671875-32.628906zm0 0" fill="#f29c1f"/><path d="m52.066406 212.609375c-4.34375-.003906-8.015625-3.222656-8.589844-7.53125l-8.679687-65.085937c-.484375-3.109376.753906-6.234376 3.230469-8.171876 2.480468-1.9375 5.8125-2.382812 8.714844-1.160156 2.898437 1.21875 4.910156 3.914063 5.257812 7.042969l8.675781 65.082031c.332031 2.480469-.425781 4.984375-2.074219 6.867188-1.648437 1.882812-4.03125 2.960937-6.535156 2.957031zm0 0" fill="#b0d3f0"/><path d="m329.761719 8.679688c0 4.792968-3.882813 8.675781-8.675781 8.675781h-76.195313c-16.921875-.007813-31.378906 12.207031-34.191406 28.898437l-9.804688 57.882813h-17.617187l10.328125-60.746094c4.167969-25.070313 25.875-43.4335938 51.285156-43.390625h76.195313c2.300781 0 4.507812.914062 6.136718 2.542969 1.625 1.625 2.539063 3.832031 2.539063 6.136719zm0 0" fill="#cc4b4c"/><path d="m200.894531 104.136719-32.195312 189.527343c-4.25.519532-8.503907.867188-12.84375 1.039063-1.648438.085937-3.382813.175781-5.03125.175781l32.453125-190.742187zm0 0" fill="#8697cb"/><path d="m168.699219 293.664062-29.679688 174.945313h-17.527343c-.015626-.492187.015624-.984375.085937-1.472656l29.246094-172.257813c1.648437 0 3.382812-.089844 5.03125-.175781 4.339843-.171875 8.59375-.519531 12.84375-1.039063zm0 0" fill="#e57e25"/><g fill="#f0c419"><path d="m104.136719 407.863281c0 9.585938-7.773438 17.355469-17.355469 17.355469-9.585938 0-17.359375-7.769531-17.359375-17.355469 0-9.585937 7.773437-17.355469 17.359375-17.355469 9.582031 0 17.355469 7.769532 17.355469 17.355469zm0 0"/><path d="m112.8125 373.152344c-1.136719.03125-2.265625-.207032-3.296875-.695313-1.050781-.4375-2.019531-1.054687-2.863281-1.820312-1.597656-1.65625-2.5-3.863281-2.515625-6.160157.011719-1.136718.25-2.257812.691406-3.300781.789063-2.179687 2.507813-3.894531 4.6875-4.683593 3.230469-1.359376 6.964844-.640626 9.460937 1.820312.765626.84375 1.378907 1.8125 1.820313 2.863281.488281 1.03125.726563 2.160157.695313 3.300781-.015626.582032-.074219 1.160157-.175782 1.734376-.09375.542968-.269531 1.070312-.519531 1.5625-.1875.550781-.453125 1.078124-.78125 1.5625l-1.039063 1.300781-1.304687 1.039062c-.480469.332031-1.007813.59375-1.5625.78125-.488281.253907-1.015625.425781-1.558594.523438-.574219.097656-1.15625.15625-1.738281.171875zm0 0"/><path d="m60.746094 364.476562c-1.140625.027344-2.269532-.210937-3.296875-.695312-1.050781-.441406-2.019531-1.058594-2.863281-1.824219-1.601563-1.652343-2.5-3.859375-2.519532-6.160156.015625-1.132813.25-2.253906.695313-3.296875.789062-2.179688 2.507812-3.898438 4.6875-4.6875 3.230469-1.359375 6.960937-.640625 9.457031 1.824219.765625.84375 1.382812 1.8125 1.824219 2.863281.484375 1.027344.722656 2.160156.691406 3.296875-.011719.582031-.070313 1.160156-.171875 1.734375-.09375.542969-.269531 1.070312-.519531 1.5625-.191407.554688-.453125 1.078125-.78125 1.5625l-1.042969 1.300781-1.300781 1.042969c-.484375.328125-1.007813.589844-1.5625.78125-.492188.25-1.019531.425781-1.5625.519531-.574219.101563-1.152344.160157-1.734375.175781zm0 0"/></g><path d="m242.984375 451.253906h-52.070313v45.558594c0 8.382812 3.890626 15.1875 8.679688 15.1875h277.695312c4.789063 0 8.675782-6.804688 8.675782-15.1875v-45.558594h-130.167969" fill="#cb8252"/><path d="m242.984375 459.933594h-52.070313v-52.070313h295.050782v52.070313h-130.167969" fill="#f0c419"/><path d="m355.796875 459.933594-69.425781 26.03125-43.386719-26.03125zm0 0" fill="#f0c419"/><path d="m485.964844 338.441406v60.746094h-295.050782v-60.746094c0-4.792968 3.886719-8.679687 8.679688-8.679687h277.695312c4.792969 0 8.675782 3.886719 8.675782 8.679687zm0 0" fill="#cb8252"/><path d="m195.253906 381.832031h286.375c11.980469 0 21.691406 9.710938 21.691406 21.695313 0 11.980468-9.710937 21.691406-21.691406 21.691406h-286.375c-11.980468 0-21.695312-9.710938-21.695312-21.691406 0-11.984375 9.714844-21.695313 21.695312-21.695313zm0 0" fill="#805333"/><path d="m338.441406 269.015625v60.746094h-17.355468v-60.746094c0-4.792969 3.882812-8.675781 8.675781-8.675781s8.679687 3.882812 8.679687 8.675781zm0 0" fill="#cbb292"/><path d="m364.476562 234.304688c0 19.171874-15.542968 34.710937-34.714843 34.710937-19.167969 0-34.710938-15.539063-34.710938-34.710937 0-19.171876 15.542969-34.710938 34.710938-34.710938 19.171875 0 34.714843 15.539062 34.714843 34.710938zm0 0" fill="#4c8056"/></svg>