<svg height="512pt" viewBox="-9 0 512 512.00978" width="512pt" xmlns="http://www.w3.org/2000/svg"><path d="m484.992188 512h-122.527344c-3.648438.171875-7.03125-1.925781-8.496094-5.273438-1.46875-3.347656-.722656-7.25 1.875-9.820312l23.746094-20.214844 8.828125-35.3125 64 .734375 15.449219 34.578125 23.746093 20.214844c2.597657 2.570312 3.34375 6.472656 1.878907 9.820312-1.46875 3.347657-4.847657 5.445313-8.5 5.273438zm0 0" fill="#90bae1"/><path d="m273.660156 467.863281v26.480469c0 9.75-7.90625 17.65625-17.65625 17.65625s-17.652344-7.90625-17.652344-17.65625v-26.480469zm0 0" fill="#5e5f62"/><path d="m150.074219 467.863281v26.480469c0 9.75-7.90625 17.65625-17.65625 17.65625s-17.65625-7.90625-17.65625-17.65625v-26.480469zm0 0" fill="#5e5f62"/><path d="m35.316406 211.863281v141.238281c.027344 9.742188 7.914063 17.628907 17.652344 17.65625h35.3125v35.3125h-52.964844c-19.503906 0-35.31249975-15.808593-35.31249975-35.3125v-176.550781c0-19.5 15.80859375-35.308593 35.31249975-35.308593h52.964844v35.308593h-35.3125c-9.738281.027344-17.625 7.917969-17.652344 17.65625zm0 0" fill="#bdc3c7"/><path d="m308.96875 361.929688v79.449218c0 19.5-15.808594 35.3125-35.308594 35.3125h-158.898437c-19.5 0-35.308594-15.8125-35.308594-35.3125v-79.449218zm0 0" fill="#7f8c8d"/><path d="m359.289062 155.808594-59.144531 47.226562v-61.792968h50.75c9.445313 0 14.476563 8.828124 8.394531 14.566406zm0 0" fill="#7f8c8d"/><g fill="#95a5a5"><path d="m79.453125 132.414062h229.515625v70.621094h-229.515625zm0 0"/><path d="m273.660156 414.898438c1.152344-.015626 2.292969-.253907 3.355469-.707032 1.066406-.449218 2.054687-1.074218 2.910156-1.855468.382813-.417969.734375-.859376 1.0625-1.324219.332031-.492188.601563-1.027344.792969-1.589844.253906-.5.433594-1.035156.53125-1.585937.101562-.585938.160156-1.175782.175781-1.765626-.035156-2.339843-.949219-4.578124-2.5625-6.269531-.855469-.777343-1.84375-1.40625-2.910156-1.851562-3.289063-1.382813-7.085937-.652344-9.625 1.851562-2.542969 2.527344-3.308594 6.339844-1.933594 9.652344s4.617188 5.464844 8.203125 5.445313zm0 0"/><path d="m238.351562 414.898438c2.335938-.035157 4.574219-.949219 6.265626-2.5625.777343-.859376 1.40625-1.84375 1.855468-2.914063.449219-1.058594.691406-2.199219.703125-3.351563-.03125-2.339843-.945312-4.578124-2.558593-6.269531l-1.324219-1.058593c-.492188-.335938-1.027344-.601563-1.589844-.792969-.5-.257813-1.035156-.433594-1.589844-.53125-1.71875-.359375-3.507812-.175781-5.117187.53125-1.070313.445312-2.054688 1.074219-2.914063 1.851562-1.613281 1.691407-2.527343 3.929688-2.558593 6.269531-.03125 1.15625.210937 2.304688.703124 3.351563.804688 2.21875 2.550782 3.964844 4.769532 4.769531 1.046875.492188 2.195312.734375 3.355468.707032zm0 0"/><path d="m273.660156 450.207031c1.152344-.015625 2.292969-.253906 3.355469-.707031 1.066406-.445312 2.054687-1.074219 2.910156-1.851562 3.414063-3.484376 3.414063-9.054688 0-12.535157-.855469-.78125-1.84375-1.40625-2.910156-1.855469-3.289063-1.382812-7.085937-.652343-9.625 1.855469-2.542969 2.523438-3.308594 6.339844-1.933594 9.652344s4.617188 5.460937 8.203125 5.441406zm0 0"/><path d="m114.761719 432.550781c-1.152344.015625-2.292969.253907-3.351563.707031-1.070312.449219-2.054687 1.074219-2.914062 1.855469-.378906.417969-.734375.859375-1.058594 1.324219-.335938.492188-.601562 1.023438-.796875 1.585938-.253906.5-.433594 1.039062-.527344 1.589843-.101562.582031-.164062 1.175781-.175781 1.765625.03125 2.335938.945312 4.574219 2.558594 6.269532.859375.777343 1.84375 1.40625 2.914062 1.851562 3.285156 1.382812 7.082032.652344 9.621094-1.851562 2.546875-2.527344 3.3125-6.34375 1.9375-9.65625-1.375-3.308594-4.617188-5.460938-8.207031-5.441407zm0 0"/><path d="m150.074219 432.550781c-2.335938.035157-4.574219.949219-6.269531 2.5625-.777344.855469-1.40625 1.84375-1.851563 2.910157-.453125 1.0625-.691406 2.203124-.707031 3.355468.035156 2.335938.949218 4.574219 2.558594 6.269532l1.324218 1.058593c.492188.332031 1.027344.601563 1.589844.792969.5.253906 1.035156.433594 1.589844.53125 1.71875.359375 3.511718.175781 5.121094-.53125 1.066406-.445312 2.054687-1.074219 2.910156-1.851562 1.613281-1.695313 2.527344-3.933594 2.5625-6.269532.03125-1.15625-.210938-2.304687-.707032-3.355468-.800781-2.214844-2.550781-3.960938-4.765624-4.765626-1.046876-.496093-2.199219-.738281-3.355469-.707031zm0 0"/><path d="m114.761719 397.242188c-1.152344.011718-2.292969.253906-3.351563.707031-1.070312.445312-2.054687 1.074219-2.914062 1.851562-3.414063 3.480469-3.414063 9.054688 0 12.535157.859375.78125 1.84375 1.40625 2.914062 1.855468 3.285156 1.382813 7.082032.648438 9.621094-1.855468 2.546875-2.523438 3.3125-6.339844 1.9375-9.652344s-4.617188-5.464844-8.207031-5.441406zm0 0"/></g><path d="m330.800781 88.277344c-3.058593-.003906-5.898437-1.585938-7.503906-4.1875-1.609375-2.601563-1.753906-5.851563-.386719-8.585938l3.601563-7.214844c1.417969-2.835937.863281-6.265624-1.378907-8.507812-8.414062-8.453125-9.722656-21.660156-3.125-31.59375l10.285157-15.429688c2.707031-4.058593 8.1875-5.152343 12.242187-2.445312 4.058594 2.703125 5.152344 8.1875 2.445313 12.242188l-10.28125 15.402343c-1.960938 2.921875-1.589844 6.816407.882812 9.316407 7.625 7.613281 9.515625 19.257812 4.6875 28.890624l-3.601562 7.210938c-1.488281 2.988281-4.53125 4.886719-7.867188 4.902344zm0 0" fill="#cbb292"/><path d="m366.113281 88.277344c-3.058593-.003906-5.898437-1.585938-7.507812-4.1875-1.605469-2.601563-1.753907-5.851563-.386719-8.585938l3.601562-7.214844c1.421876-2.835937.867188-6.265624-1.375-8.507812-8.417968-8.453125-9.722656-21.660156-3.125-31.59375l10.28125-15.429688c1.753907-2.625 4.769532-4.117187 7.917969-3.914062 3.148438.203125 5.945313 2.074219 7.34375 4.902344 1.398438 2.824218 1.179688 6.183594-.570312 8.808594l-10.285157 15.402343c-1.957031 2.921875-1.589843 6.816407.882813 9.316407 7.625 7.613281 9.515625 19.257812 4.6875 28.890624l-3.601563 7.210938c-1.484374 2.988281-4.527343 4.886719-7.863281 4.902344zm0 0" fill="#cbb292"/><path d="m388.417969 229.515625c-3.058594 0-5.898438-1.585937-7.503907-4.1875-1.609374-2.601563-1.753906-5.847656-.386718-8.585937l3.609375-7.210938c1.421875-2.839844.863281-6.273438-1.386719-8.519531-8.417969-8.441407-9.738281-21.640625-3.160156-31.582031l10.285156-15.433594c1.75-2.621094 4.769531-4.113282 7.914062-3.910156 3.148438.203124 5.949219 2.070312 7.347657 4.898437 1.394531 2.828125 1.179687 6.1875-.574219 8.8125l-10.253906 15.402344c-1.949219 2.921875-1.582032 6.808593.878906 9.3125 7.636719 7.613281 9.527344 19.265625 4.699219 28.902343l-3.601563 7.203126c-1.484375 2.988281-4.53125 4.886718-7.867187 4.898437zm0 0" fill="#cbb292"/><path d="m423.730469 229.515625c-3.058594 0-5.898438-1.585937-7.507813-4.1875-1.605468-2.601563-1.753906-5.847656-.386718-8.585937l3.613281-7.210938c1.421875-2.839844.863281-6.273438-1.386719-8.519531-8.421875-8.441407-9.742188-21.640625-3.160156-31.582031l10.285156-15.433594c2.703125-4.054688 8.1875-5.148438 12.242188-2.445313 4.054687 2.707031 5.152343 8.1875 2.445312 12.246094l-10.257812 15.402344c-1.949219 2.921875-1.578126 6.808593.882812 9.3125 7.632812 7.613281 9.527344 19.265625 4.695312 28.902343l-3.601562 7.203126c-1.484375 2.988281-4.527344 4.886718-7.863281 4.898437zm0 0" fill="#cbb292"/><path d="m459.039062 229.515625c-3.058593 0-5.898437-1.585937-7.503906-4.1875-1.609375-2.601563-1.753906-5.847656-.386718-8.585937l3.609374-7.210938c1.421876-2.839844.863282-6.273438-1.386718-8.519531-8.417969-8.441407-9.738282-21.640625-3.160156-31.582031l10.285156-15.433594c1.75-2.621094 4.765625-4.113282 7.914062-3.910156 3.148438.203124 5.949219 2.070312 7.34375 4.898437 1.398438 2.828125 1.179688 6.1875-.570312 8.8125l-10.257813 15.402344c-1.945312 2.921875-1.578125 6.808593.882813 9.3125 7.636718 7.613281 9.527344 19.265625 4.699218 28.902343l-3.601562 7.203126c-1.488281 2.988281-4.53125 4.886718-7.867188 4.898437zm0 0" fill="#cbb292"/><path d="m211.867188 17.65625c0 9.75-7.90625 17.652344-17.65625 17.652344s-17.65625-7.902344-17.65625-17.652344 7.90625-17.65625 17.65625-17.65625 17.65625 7.90625 17.65625 17.65625zm0 0" fill="#7f8c8d"/><path d="m79.453125 194.207031h229.515625v150.070313h-229.515625zm0 0" fill="#90bae1"/><path d="m211.867188 344.277344h-35.3125v-35.3125c0-9.75 7.90625-17.65625 17.65625-17.65625s17.65625 7.90625 17.65625 17.65625zm0 0" fill="#8697cb"/><path d="m203.039062 132.414062v61.792969h-17.65625v-61.792969c0-4.875 3.953126-8.828124 8.828126-8.828124s8.828124 3.953124 8.828124 8.828124zm0 0" fill="#7f8c8d"/><path d="m203.039062 194.207031v97.101563c0 4.878906-3.953124 8.828125-8.828124 8.828125s-8.828126-3.949219-8.828126-8.828125v-97.101563zm0 0" fill="#8697cb"/><path d="m308.96875 141.242188h-229.515625c-.03125-2.949219.117187-5.898438.441406-8.828126 4.414063-58.4375 53.9375-97.105468 114.316407-97.105468 60.382812 0 109.902343 38.667968 114.316406 97.105468.328125 2.929688.472656 5.878907.441406 8.828126zm0 0" fill="#7f8c8d"/><path d="m79.453125 335.449219h229.515625v35.308593h-229.515625zm0 0" fill="#95a5a5"/><path d="m379.589844 414.898438v8.824218c0 4.875-3.949219 8.828125-8.828125 8.828125h-26.480469c-24.363281-.027343-44.109375-19.773437-44.136719-44.136719v-52.964843c.027344-24.367188 19.773438-44.109375 44.136719-44.140625h14.125c4.875 0 8.828125 3.953125 8.828125 8.828125s-3.953125 8.828125-8.828125 8.828125h-14.125c-14.625 0-26.484375 11.855468-26.484375 26.484375v52.964843c0 14.625 11.859375 26.484376 26.484375 26.484376zm0 0" fill="#b0d3f0"/><path d="m479.519531 379.585938-11.652343 97.105468h-88.277344l-11.652344-97.105468 2.824219-26.484376h97.105469zm0 0" fill="#7f6e5d"/><path d="m484.816406 335.449219-5.296875 44.136719h-111.582031l-5.296875-44.136719 34.605469-17.65625h61.792968zm0 0" fill="#cbb292"/><path d="m493.203125 265.886719-8.386719 69.5625h-122.175781l-8.382813-69.5625c-.304687-2.519531.488282-5.046875 2.175782-6.9375 1.691406-1.894531 4.113281-2.96875 6.648437-2.949219h121.292969c2.535156-.019531 4.957031 1.054688 6.648438 2.949219 1.6875 1.890625 2.484374 4.417969 2.179687 6.9375zm0 0" fill="#90bae1"/></svg>