<svg height="512pt" viewBox="0 0 512.03862 512" width="512pt" xmlns="http://www.w3.org/2000/svg"><path d="m491.203125 195.753906-144.402344 13.242188c-2.066406-23.265625-20.507812-41.707032-43.777343-43.777344l13.242187-144.402344c.421875-5.296875 2.726563-10.269531 6.496094-14.015625 5.640625-5.574219 13.710937-7.925781 21.460937-6.25 83.820313 17.925781 149.304688 83.394531 167.246094 167.210938 1.460938 6.453125.074219 13.222656-3.804688 18.578125-3.878906 5.359375-9.875 8.789062-16.460937 9.414062zm0 0" fill="#f29c1f"/><path d="m409.730469 79.0625c-1.636719-1.671875-2.582031-3.902344-2.644531-6.242188.050781-1.15625.304687-2.296874.75-3.371093.429687-1.070313 1.066406-2.042969 1.871093-2.867188 1.671875-1.640625 3.898438-2.585937 6.238281-2.648437 3.570313.019531 6.773438 2.1875 8.125 5.488281.433594 1.074219.683594 2.214844.738282 3.375-.0625 2.339844-1.007813 4.566406-2.648438 6.238281-.820312.808594-1.796875 1.445313-2.867187 1.871094-2.136719 1.003906-4.609375 1.003906-6.746094 0-1.066406-.386719-2.03125-1.019531-2.816406-1.84375zm0 0" fill="#d25627"/><path d="m370.757812 512.039062h-335.449218c-19.5 0-35.308594-15.808593-35.308594-35.3125v-8.828124h105.929688l-35.308594-17.652344h247.171875l-17.65625 17.652344h105.933593v8.828124c0 19.503907-15.808593 35.3125-35.3125 35.3125zm0 0" fill="#bdc3c7"/><path d="m388.414062 360.910156v18.714844c0 48.753906-39.523437 88.273438-88.277343 88.273438h-194.207031c-48.753907 0-88.273438-39.519532-88.273438-88.273438v-150.070312c0-4.875 3.949219-8.828126 8.828125-8.828126h320zm0 0" fill="#e64c3c"/><path d="m97.101562 317.832031-35.308593 35.308594v44.140625c.371093 5.210938 4.875 9.148438 10.089843 8.824219h50.441407c5.214843.324219 9.71875-3.613281 10.089843-8.824219v-44.140625zm0 0" fill="#fdd7ad"/><path d="m105.929688 220.726562v114.761719c-.621094 4.394531-4.386719 7.664063-8.828126 7.664063-4.4375 0-8.203124-3.269532-8.824218-7.664063v-114.761719zm0 0" fill="#a5a5a4"/><path d="m269.285156 166.078125-91.984375 11.5625c-8.855469 1.089844-17.597656-2.777344-22.746093-10.066406-5.148438-7.289063-5.871094-16.820313-1.882813-24.804688l31.164063-62.144531zm0 0" fill="#f29c1f"/><path d="m431.449219 337.066406-62.148438 31.160156c-7.984375 3.976563-17.503906 3.246094-24.789062-1.898437-7.285157-5.144531-11.15625-13.875-10.078125-22.730469l11.609375-91.972656zm0 0" fill="#f29c1f"/><path d="m417.09375 331.789062-76.570312-76.570312c-4.070313-4.203125-4.613282-10.695312-1.289063-15.511719 5.902344-9.09375 8.566406-19.910156 7.566406-30.703125l118.484375-10.875c7.035156-.625 13.996094 1.84375 19.070313 6.757813 5.070312 4.914062 7.757812 11.789062 7.359375 18.84375-1.980469 37.996093-15.136719 74.566406-37.816406 105.117187-4.1875 5.726563-10.660157 9.339844-17.730469 9.90625-7.066407.566406-14.03125-1.980468-19.074219-6.964844zm0 0" fill="#e57e25"/><path d="m447.1875 253.839844c1.679688 1.636718 3.910156 2.578125 6.25 2.648437 1.15625-.0625 2.292969-.316406 3.363281-.75 1.070313-.433593 2.046875-1.066406 2.878907-1.871093 1.636718-1.671876 2.585937-3.902344 2.648437-6.242188-.023437-3.566406-2.1875-6.773438-5.492187-8.121094-1.074219-.433594-2.214844-.6875-3.371094-.75-2.34375.066406-4.574219 1.011719-6.25 2.648438-.800782.832031-1.4375 1.808594-1.871094 2.878906-.988281 2.136719-.988281 4.597656 0 6.734375.390625 1.070313 1.023438 2.035156 1.84375 2.824219zm0 0" fill="#d25627"/><path d="m434.707031 291.296875c1.667969 1.636719 3.898438 2.585937 6.238281 2.648437 1.160157-.058593 2.300782-.3125 3.375-.75 1.066407-.433593 2.042969-1.066406 2.867188-1.875 1.640625-1.667968 2.585938-3.898437 2.648438-6.238281-.019532-3.570312-2.1875-6.773437-5.492188-8.121093-1.074219-.4375-2.210938-.6875-3.371094-.742188-2.339844.0625-4.570312 1.007812-6.242187 2.648438-.804688.824218-1.441407 1.796874-1.871094 2.867187-1 2.136719-1 4.609375 0 6.746094.390625 1.066406 1.023437 2.03125 1.847656 2.816406zm0 0" fill="#d25627"/><path d="m311.851562 165.230469c-10.789062-.996094-21.601562 1.667969-30.691406 7.5625-4.820312 3.324219-11.3125 2.789062-15.519531-1.277344l-76.570313-76.570313c-4.988281-5.042968-7.53125-12.007812-6.964843-19.078124.566406-7.070313 4.1875-13.542969 9.914062-17.726563 30.550781-22.679687 67.117188-35.828125 105.117188-37.800781 7.050781-.398438 13.929687 2.285156 18.84375 7.355468 4.914062 5.074219 7.378906 12.03125 6.757812 19.066407zm0 0" fill="#e57e25"/><g fill="#d25627"><path d="m353.5625 47.847656c-1.636719-1.671875-2.582031-3.902344-2.648438-6.242187.054688-1.15625.308594-2.296875.75-3.371094.4375-1.078125 1.082032-2.058594 1.898438-2.886719 1.671875-1.636718 3.902344-2.585937 6.242188-2.648437 3.5625.023437 6.765624 2.191406 8.113281 5.492187.441406 1.070313.695312 2.210938.75 3.371094-.066407 2.339844-1.011719 4.570312-2.648438 6.242188-.828125.804687-1.800781 1.441406-2.871093 1.871093-1.070313.441407-2.210938.695313-3.371094.75-1.15625-.0625-2.296875-.316406-3.371094-.75-1.078125-.378906-2.050781-1.007812-2.84375-1.828125zm0 0"/><path d="m268.757812 66.570312c-1.636718-1.671874-2.582031-3.898437-2.648437-6.238281.0625-1.160156.316406-2.296875.75-3.375.429687-1.066406 1.066406-2.042969 1.871094-2.867187 1.671875-1.640625 3.898437-2.585938 6.238281-2.648438 3.570312.019532 6.773438 2.1875 8.125 5.492188.433594 1.074218.683594 2.210937.738281 3.371094-.0625 2.339843-1.007812 4.570312-2.648437 6.242187-.820313.808594-1.796875 1.445313-2.867188 1.871094-2.136718 1-4.609375 1-6.746094 0-1.066406-.390625-2.03125-1.023438-2.8125-1.847657zm0 0"/><path d="m231.28125 79.0625c-1.636719-1.671875-2.582031-3.902344-2.648438-6.242188.054688-1.15625.308594-2.296874.753907-3.371093.429687-1.070313 1.0625-2.042969 1.871093-2.867188 1.667969-1.640625 3.898438-2.585937 6.238282-2.648437 3.570312.019531 6.773437 2.1875 8.121094 5.488281.4375 1.074219.6875 2.214844.742187 3.375-.0625 2.339844-1.007813 4.566406-2.648437 6.238281-.820313.808594-1.796876 1.445313-2.867188 1.871094-2.136719 1.003906-4.609375 1.003906-6.746094 0-1.066406-.386719-2.03125-1.019531-2.816406-1.84375zm0 0"/><path d="m372.285156 79.0625c-1.636718-1.671875-2.582031-3.902344-2.648437-6.242188.054687-1.15625.308593-2.296874.75-3.371093.433593-1.070313 1.066406-2.050781 1.871093-2.878907 1.667969-1.640624 3.902344-2.589843 6.242188-2.648437 3.566406.019531 6.769531 2.183594 8.121094 5.484375.4375 1.078125.6875 2.21875.742187 3.378906-.066406 2.339844-1.011719 4.570313-2.648437 6.242188-.828125.804687-1.800782 1.4375-2.867188 1.871094-1.078125.433593-2.214844.6875-3.375.75-1.15625-.0625-2.296875-.316407-3.371094-.75-1.0625-.394532-2.027343-1.019532-2.816406-1.835938zm0 0"/><path d="m472.152344 166.457031c-1.636719-1.675781-2.582032-3.902343-2.648438-6.242187.0625-1.15625.316406-2.296875.75-3.371094.429688-1.070312 1.066406-2.046875 1.871094-2.871094 1.667969-1.640625 3.902344-2.589844 6.242188-2.648437 3.566406.019531 6.769531 2.183593 8.121093 5.484375.433594 1.074218.6875 2.21875.742188 3.378906-.066407 2.339844-1.011719 4.570312-2.648438 6.242188-.824219.804687-1.800781 1.441406-2.871093 1.871093-1.074219.433594-2.210938.6875-3.371094.75-1.15625-.0625-2.296875-.316406-3.371094-.75-1.066406-.390625-2.03125-1.023437-2.816406-1.84375zm0 0"/><path d="m440.945312 147.722656c-1.632812-1.671875-2.578124-3.902344-2.648437-6.238281.0625-1.160156.316406-2.300781.75-3.375.433594-1.066406 1.070313-2.042969 1.875-2.867187 1.667969-1.644532 3.898437-2.589844 6.238281-2.648438 3.570313.019531 6.773438 2.1875 8.121094 5.488281.4375 1.074219.6875 2.214844.742188 3.375-.0625 2.339844-1.007813 4.570313-2.648438 6.238281-.828125.804688-1.804688 1.441407-2.875 1.875-1.074219.441407-2.214844.695313-3.375.75-1.152344-.0625-2.289062-.316406-3.363281-.75-1.066407-.394531-2.03125-1.023437-2.816407-1.847656zm0 0"/><path d="m440.945312 110.277344c-1.636718-1.671875-2.582031-3.902344-2.648437-6.242188.054687-1.15625.308594-2.300781.75-3.371094.429687-1.070312 1.0625-2.046874 1.875-2.871093 1.667969-1.640625 3.898437-2.585938 6.238281-2.644531 3.566406.023437 6.765625 2.1875 8.113282 5.488281.445312 1.074219.699218 2.214843.75 3.371093-.0625 2.339844-1.007813 4.570313-2.648438 6.242188-.824219.804688-1.796875 1.441406-2.867188 1.871094-1.074218.441406-2.214843.695312-3.371093.75-1.160157-.0625-2.300781-.3125-3.375-.75-1.066407-.390625-2.027344-1.023438-2.816407-1.84375zm0 0"/></g></svg>