<svg height="512pt" viewBox="0 0 512 512" width="512pt" xmlns="http://www.w3.org/2000/svg"><path d="m158.898438 512h-105.933594c-4.855469 0-8.828125-5.5625-8.828125-12.359375v-49.433594h79.449219v12.359375c0 27.3125 15.800781 49.433594 35.3125 49.433594zm0 0" fill="#805333"/><path d="m273.65625 14.125v56.496094h-229.519531v-56.496094c0-7.769531 3.972656-14.125 8.828125-14.125h211.863281c4.855469 0 8.828125 6.355469 8.828125 14.125zm0 0" fill="#805333"/><path d="m229.515625 467.863281h-185.378906s44.140625-61.792969 44.140625-211.863281-44.140625-211.863281-44.140625-211.863281h229.519531s37.164062 51.996093 43.253906 176.554687zm0 0" fill="#cb8252"/><path d="m512 467.863281v8.828125c0 19.5-15.808594 35.308594-35.308594 35.308594h-317.792968c-19.503907 0-35.3125-15.808594-35.3125-35.308594v-8.828125h105.929687l-44.136719-26.484375 273.65625-17.65625-52.964844 44.140625zm0 0" fill="#bdc3c7"/><path d="m25.000198 25.000198v4.999863" fill="none" stroke="#000" stroke-linecap="round" stroke-linejoin="round" stroke-width="2" transform="scale(8.827586)"/><path d="m88.277344 256c0 150.070312-44.140625 211.863281-44.140625 211.863281s-44.136719-61.792969-44.136719-211.863281 44.136719-211.863281 44.136719-211.863281 44.140625 61.792969 44.140625 211.863281zm0 0" fill="#805333"/><path d="m237.636719 158.71875.089843-.085938c17.65625 13.152344 22.777344 38.046876 14.652344 62.058594h-66.207031zm0 0" fill="#7f6e5d"/><path d="m237.726562 158.632812-.089843.085938c-2.824219 7.945312-15.445313 40.429688-38.664063 52.523438-4.679687 2.546874-8.988281 5.722656-12.800781 9.449218h-36.101563c-3.46875.003906-6.613281 2.042969-8.035156 5.207032-.285156-16.261719 4.839844-32.160157 14.566406-45.199219 21.1875-29.304688 57.203126-39.371094 80.683594-22.421875.164063.097656.3125.214844.441406.355468zm0 0" fill="#cbb292"/><path d="m494.34375 229.515625v150.070313c0 48.753906-39.519531 88.277343-88.273438 88.277343h-176.554687c-37.523437 0-70.949219-23.722656-83.332031-59.144531-.792969-2.296875-1.5-4.679688-2.117188-7.0625-1.882812-7.207031-2.832031-14.625-2.824218-22.070312v-150.070313c-.011719-1.25.261718-2.484375.792968-3.617187 1.421875-3.164063 4.566406-5.203126 8.035156-5.207032h335.445313c4.878906 0 8.828125 3.949219 8.828125 8.824219zm0 0" fill="#e64c3c"/><path d="m220.691406 317.792969-26.484375 35.308593v44.140626c0 4.875 3.953125 8.828124 8.828125 8.828124h44.136719c4.875 0 8.828125-3.953124 8.828125-8.828124v-44.140626l-8.828125-8.824218zm0 0" fill="#fdd7ad"/><path d="m229.515625 220.691406v114.757813c-.621094 4.394531-4.386719 7.664062-8.824219 7.664062-4.441406 0-8.207031-3.269531-8.828125-7.664062v-114.757813zm0 0" fill="#a5a5a4"/></svg>