<svg height="512pt" viewBox="0 -4 512.04726 512" width="512pt" xmlns="http://www.w3.org/2000/svg"><path d="m194.253906 353.128906 8.828125 105.933594-114.757812 17.652344v-35.308594c.027343-9.738281 7.914062-17.625 17.652343-17.65625 9.722657-.070312 17.585938-7.933594 17.65625-17.65625v-52.964844zm0 0" fill="#95a5a5"/><path d="m203.082031 273.679688-167.722656 44.140624 22.421875 22.421876c8.269531 8.25 19.476562 12.886718 31.160156 12.886718h122.96875l-6.621094-26.480468zm0 0" fill="#bdc3c7"/><path d="m.046875 229.542969v77.242187c-.523437 5.460938 3.386719 10.347656 8.828125 11.035156h476.691406c5.441406-.6875 9.351563-5.574218 8.824219-11.035156v-77.242187zm0 0" fill="#cb8252"/><path d="m.046875 123.613281h494.34375v123.585938h-494.34375zm0 0" fill="#fdd7ad"/><path d="m476.738281 326.648438v39.722656c0 21.980468-14.214843 39.722656-31.78125 39.722656-17.566406 0-31.777343-17.742188-31.777343-39.722656 0 21.980468-14.214844 39.722656-31.78125 39.722656-17.566407 0-31.777344-17.742188-31.777344-39.722656 0 21.980468-14.214844 39.722656-31.78125 39.722656s-31.777344-17.742188-31.777344-39.722656c0 21.980468-14.214844 39.722656-31.78125 39.722656s-31.777344-17.742188-31.777344-39.722656c0 21.980468-14.214844 39.722656-31.78125 39.722656s-31.777344-17.742188-31.777344-39.722656v-39.722656c0-14.566407 7.941407-26.484376 17.652344-26.484376h282.484375c9.710938 0 17.65625 11.917969 17.65625 26.484376zm0 0" fill="#fb7b76"/><path d="m158.945312 397.269531h317.792969v79.445313h-317.792969zm0 0" fill="#cb8252"/><path d="m476.738281 344.300781v70.621094h-317.792969v-70.621094c0 14.65625 14.210938 26.484375 31.777344 26.484375s31.78125-11.828125 31.78125-26.484375c0 14.65625 14.210938 26.484375 31.777344 26.484375s31.78125-11.828125 31.78125-26.484375c0 14.65625 14.210938 26.484375 31.777344 26.484375s31.78125-11.828125 31.78125-26.484375c0 14.65625 14.210937 26.484375 31.777344 26.484375 17.566406 0 31.78125-11.828125 31.78125-26.484375 0 14.65625 14.210937 26.484375 31.777343 26.484375 17.566407 0 31.78125-11.828125 31.78125-26.484375zm0 0" fill="#fdd7ad"/><g fill="#e64c3c"><path d="m432.597656 273.679688c0 14.628906-11.855468 26.484374-26.480468 26.484374-14.628907 0-26.484376-11.855468-26.484376-26.484374 0-14.625 11.855469-26.480469 26.484376-26.480469 14.625 0 26.480468 11.855469 26.480468 26.480469zm0 0"/><path d="m405.957031 264.855469c-4.875 0-8.828125-3.953125-8.828125-8.828125 0-16.242188-7.5625-17.558594-9.074218-17.65625-4.792969-.292969-8.503907-4.308594-8.421876-9.109375.078126-4.734375 3.933594-8.535157 8.667969-8.546875 9.164063 0 26.484375 7.382812 26.484375 35.3125 0 4.875-3.953125 8.828125-8.828125 8.828125zm0 0"/><path d="m450.253906 52.992188c0 14.625-11.855468 26.480468-26.484375 26.480468h-.261719c-14.59375-.144531-26.316406-12.066406-26.21875-26.65625.097657-14.589844 11.976563-26.355468 26.570313-26.304687 14.589844.046875 26.394531 11.886719 26.394531 26.480469zm0 0"/><path d="m423.769531 52.992188c-4.875 0-8.824219-3.953126-8.824219-8.828126 0-19.976562-6.09375-26.066406-9.324218-26.484374-2.316406-.007813-4.527344-.949219-6.140625-2.609376-1.613281-1.660156-2.488281-3.902343-2.429688-6.214843.105469-4.925781 4.140625-8.855469 9.066407-8.8281252 1.074218 0 26.480468.5039062 26.480468 44.1367182 0 4.875-3.949218 8.828126-8.828125 8.828126zm0 0"/><path d="m273.703125 52.992188c0 14.625-11.855469 26.480468-26.484375 26.480468-14.625 0-26.480469-11.855468-26.480469-26.480468s11.855469-26.484376 26.480469-26.484376c14.628906 0 26.484375 11.859376 26.484375 26.484376zm0 0"/><path d="m247.21875 52.992188c-4.875 0-8.828125-3.953126-8.828125-8.828126 0-19.976562-6.089844-26.066406-9.320313-26.484374-2.316406-.007813-4.53125-.949219-6.140624-2.609376-1.613282-1.660156-2.492188-3.902343-2.429688-6.214843.105469-4.925781 4.140625-8.855469 9.066406-8.8281252 1.074219 0 26.480469.5039062 26.480469 44.1367182 0 4.875-3.953125 8.828126-8.828125 8.828126zm0 0"/><path d="m105.976562 52.992188c0 14.625-11.855468 26.480468-26.480468 26.480468s-26.484375-11.855468-26.484375-26.480468 11.859375-26.484376 26.484375-26.484376 26.480468 11.859376 26.480468 26.484376zm0 0"/><path d="m79.496094 52.992188c-4.875 0-8.828125-3.953126-8.828125-8.828126 0-43.632812 25.40625-44.1367182 26.484375-44.1367182 4.875-.1171876 8.921875 3.7382812 9.039062 8.6132812.117188 4.875-3.742187 8.921875-8.617187 9.039063-3.238281.503906-9.25 6.648437-9.25 26.484374 0 4.875-3.953125 8.828126-8.828125 8.828126zm0 0"/></g><path d="m494.390625 105.957031v17.65625c-2.367187 15.230469-15.480469 26.464844-30.894531 26.464844-15.414063 0-28.53125-11.234375-30.898438-26.464844-2.367187 15.230469-15.480468 26.464844-30.894531 26.464844s-28.53125-11.234375-30.898437-26.464844c-1.308594 15.796875-15.082032 27.605469-30.894532 26.480469-15.8125 1.125-29.589844-10.683594-30.898437-26.480469-1.308594 15.796875-15.082031 27.605469-30.894531 26.480469-15.8125 1.125-29.589844-10.683594-30.898438-26.480469-1.308594 15.796875-15.082031 27.605469-30.894531 26.480469-15.8125 1.125-29.589844-10.683594-30.898438-26.480469-1.308593 15.796875-15.082031 27.605469-30.894531 26.480469-15.816406 1.125-29.589844-10.683594-30.898438-26.480469-1.308593 15.796875-15.082031 27.605469-30.894531 26.480469-15.816406 1.125-29.589843-10.683594-30.898437-26.480469-1.308594 15.796875-15.082032 27.605469-30.894532 26.480469-15.816406 1.125-29.589843-10.683594-30.898437-26.480469v-17.65625c.0429688-14.609375 11.875-26.4375 26.484375-26.484375h441.378906c14.605469.046875 26.4375 11.875 26.480469 26.484375zm0 0" fill="#fb7b76"/><path d="m158.945312 503.199219h-154.484374c-1.601563.007812-3.078126-.847657-3.867188-2.242188-.789062-1.390625-.761719-3.101562.070312-4.46875l17.390626-28.863281c3.1875-5.300781 8.910156-8.550781 15.097656-8.5625h90.480468v8.824219c0 19.503906 15.808594 35.3125 35.3125 35.3125zm0 0" fill="#7f8c8d"/><path d="m35.359375 194.234375c-3.589844.019531-6.832031-2.132813-8.207031-5.445313s-.609375-7.125 1.9375-9.652343c.417968-.375.859375-.730469 1.316406-1.058594.496094-.332031 1.03125-.597656 1.597656-.792969.5-.257812 1.035156-.433594 1.589844-.53125 3.296875-.667968 6.6875.59375 8.742188 3.257813 2.054687 2.660156 2.417968 6.261719.9375 9.28125-1.480469 3.019531-4.550782 4.9375-7.914063 4.941406zm0 0" fill="#ff5364"/><path d="m88.324219 194.234375c-3.585938.019531-6.828125-2.132813-8.207031-5.445313-1.375-3.3125-.609376-7.125 1.9375-9.652343.417968-.375.859374-.730469 1.316406-1.058594.496094-.332031 1.03125-.597656 1.597656-.792969.5-.257812 1.035156-.433594 1.589844-.53125 3.296875-.667968 6.6875.59375 8.742187 3.257813 2.058594 2.660156 2.421875 6.261719.9375 9.28125-1.480469 3.019531-4.550781 4.9375-7.914062 4.941406zm0 0" fill="#894b9d"/><path d="m141.289062 194.234375c-3.585937.019531-6.828124-2.132813-8.203124-5.445313s-.609376-7.125 1.933593-9.652343c.417969-.375.859375-.730469 1.316407-1.058594.496093-.332031 1.035156-.597656 1.597656-.792969.5-.257812 1.035156-.433594 1.589844-.53125 3.296874-.667968 6.6875.59375 8.742187 3.257813 2.058594 2.660156 2.421875 6.261719.9375 9.28125-1.480469 3.019531-4.550781 4.9375-7.914063 4.941406zm0 0" fill="#ff5364"/><path d="m194.253906 194.234375c-3.585937.019531-6.828125-2.132813-8.203125-5.445313s-.609375-7.125 1.9375-9.652343c.417969-.375.855469-.730469 1.3125-1.058594.496094-.332031 1.035157-.597656 1.597657-.792969.5-.257812 1.035156-.433594 1.589843-.53125 3.296875-.667968 6.6875.59375 8.746094 3.257813 2.054687 2.660156 2.417969 6.261719.9375 9.28125-1.484375 3.019531-4.554687 4.9375-7.917969 4.941406zm0 0" fill="#894b9d"/><path d="m247.21875 194.234375c-3.585938.019531-6.828125-2.132813-8.203125-5.445313s-.609375-7.125 1.9375-9.652343c.417969-.375.855469-.730469 1.3125-1.058594.496094-.332031 1.035156-.597656 1.597656-.792969.503907-.257812 1.039063-.433594 1.589844-.53125 3.296875-.667968 6.6875.59375 8.746094 3.257813 2.054687 2.660156 2.417969 6.261719.9375 9.28125-1.484375 3.019531-4.554688 4.9375-7.917969 4.941406zm0 0" fill="#ff5364"/><path d="m300.183594 194.234375c-3.585938.019531-6.828125-2.132813-8.203125-5.445313s-.609375-7.125 1.9375-9.652343c.417969-.375.855469-.730469 1.316406-1.058594.496094-.332031 1.03125-.597656 1.597656-.792969.5-.257812 1.035157-.433594 1.585938-.53125 3.296875-.667968 6.691406.59375 8.746093 3.257813 2.054688 2.660156 2.417969 6.261719.9375 9.28125-1.480468 3.019531-4.550781 4.9375-7.917968 4.941406zm0 0" fill="#894b9d"/><path d="m353.152344 194.234375c-3.589844.019531-6.832032-2.132813-8.207032-5.445313s-.609374-7.125 1.9375-9.652343c.417969-.375.859376-.730469 1.316407-1.058594.496093-.332031 1.03125-.597656 1.597656-.792969.5-.257812 1.035156-.433594 1.589844-.53125 3.296875-.667968 6.6875.59375 8.742187 3.257813 2.054688 2.660156 2.417969 6.261719.9375 9.28125-1.480468 3.019531-4.550781 4.9375-7.914062 4.941406zm0 0" fill="#ff5364"/><path d="m406.117188 194.234375c-3.585938.019531-6.828126-2.132813-8.203126-5.445313-1.378906-3.3125-.613281-7.125 1.933594-9.652343.417969-.375.859375-.730469 1.316406-1.058594.496094-.332031 1.03125-.597656 1.597657-.792969.5-.257812 1.035156-.433594 1.589843-.53125 3.296876-.667968 6.6875.59375 8.742188 3.257813 2.058594 2.660156 2.421875 6.261719.9375 9.28125-1.480469 3.019531-4.550781 4.9375-7.914062 4.941406zm0 0" fill="#894b9d"/><path d="m459.082031 194.234375c-3.585937.019531-6.828125-2.132813-8.203125-5.445313s-.609375-7.125 1.933594-9.652343c.417969-.375.859375-.730469 1.316406-1.058594.496094-.332031 1.035156-.597656 1.597656-.792969.5-.257812 1.035157-.433594 1.589844-.53125 3.296875-.667968 6.6875.59375 8.742188 3.257813 2.058594 2.660156 2.421875 6.261719.9375 9.28125-1.480469 3.019531-4.550782 4.9375-7.914063 4.941406zm0 0" fill="#ff5364"/><path d="m512.046875 459.0625v8.824219c0 19.503906-15.808594 35.3125-35.308594 35.3125h-335.449219c-19.5 0-35.3125-15.808594-35.3125-35.3125v-8.824219zm0 0" fill="#bdc3c7"/></svg>