<svg height="512pt" viewBox="0 0 512 512" width="512pt" xmlns="http://www.w3.org/2000/svg"><path d="m26.484375 185.378906v-17.65625h282.480469v17.65625l-44.136719 291.3125-194.207031 17.652344-8.828125-17.652344-39.371094-291.3125zm0 0" fill="#cb8252"/><path d="m300.136719 88.277344-26.480469 44.136718-229.519531-8.828124-8.828125-35.308594c0-88.277344 132.414062-88.277344 132.414062-88.277344s132.414063 0 132.414063 88.277344zm0 0" fill="#cb8252"/><path d="m317.792969 150.070312-3.972657 29.304688-4.855468 6.003906h-286.542969l-4.765625-35.308594v-17.65625l300.136719-8.828124zm0 0" fill="#805333"/><path d="m17.65625 88.277344h300.136719c9.75 0 17.65625 7.902344 17.65625 17.652344v26.484374c0 9.75-7.90625 17.65625-17.65625 17.65625h-300.136719c-9.75 0-17.65625-7.90625-17.65625-17.65625v-26.484374c0-9.75 7.90625-17.652344 17.65625-17.652344zm0 0" fill="#d1d4d1"/><path d="m273.65625 476.691406h-211.863281c-4.875 0-8.828125 3.949219-8.828125 8.824219v17.65625c0 4.875 3.953125 8.828125 8.828125 8.828125h211.863281c4.875 0 8.828125-3.953125 8.828125-8.828125v-3" fill="#805333"/><path d="m196.238281 265.621094-10.242187 61.085937-.617188-.085937c-.617187-1.148438-1.148437-2.296875-1.765625-3.53125-3.355469-6.621094-7.238281-14.390625-13.503906-24.804688-21.101563-34.253906-49.171875-34.339844-49.171875-34.339844 18.363281-18.363281 50.316406-17.039062 75.300781 1.675782zm0 0" fill="#cbb292"/><path d="m185.996094 326.707031-7.324219 43.964844c-18.371094-1.125-35.644531-9.128906-48.375-22.421875-25.867187-25.867188-30.105469-63.558594-9.359375-84.304688 0 0 28.070312.085938 49.171875 34.339844 6.265625 10.414063 10.148437 18.183594 13.503906 24.804688.617188 1.234375 1.148438 2.382812 1.765625 3.53125zm0 0" fill="#7f6e5d"/><path d="m97.101562 61.792969c-1.152343-.015625-2.292968-.253907-3.351562-.707031-1.09375-.402344-2.085938-1.035157-2.914062-1.851563-1.617188-1.691406-2.53125-3.929687-2.558594-6.269531-.03125-1.15625.210937-2.304688.703125-3.355469.449219-1.066406 1.078125-2.054687 1.855469-2.910156 2.128906-1.996094 5.070312-2.878907 7.945312-2.382813.585938.082032 1.15625.257813 1.683594.527344.5625.195312 1.097656.460938 1.589844.792969.460937.328125.902343.683593 1.324218 1.0625.78125.855469 1.40625 1.84375 1.855469 2.910156.449219 1.0625.683594 2.203125.695313 3.355469-.03125 2.335937-.945313 4.574218-2.558594 6.269531l-1.324219 1.058594c-.492187.332031-1.027344.597656-1.589844.792969-.527343.269531-1.097656.449218-1.683593.53125-.550782.101562-1.109376.160156-1.671876.175781zm0 0" fill="#fdd7ad"/><path d="m141.242188 44.136719c-1.15625-.011719-2.292969-.253907-3.355469-.703125-1.089844-.40625-2.082031-1.039063-2.914063-1.855469-1.613281-1.691406-2.527344-3.929687-2.558594-6.269531-.03125-1.15625.210938-2.304688.707032-3.351563.445312-1.070312 1.074218-2.054687 1.851562-2.914062 2.128906-1.996094 5.070313-2.878907 7.945313-2.382813.589843.082032 1.15625.261719 1.6875.527344.5625.195312 1.09375.464844 1.589843.796875.460938.328125.902344.679687 1.324219 1.058594.777344.859375 1.402344 1.84375 1.851563 2.914062.449218 1.0625.6875 2.199219.699218 3.351563-.035156 2.339844-.949218 4.578125-2.5625 6.269531l-1.324218 1.058594c-.492188.332031-1.027344.601562-1.585938.796875-.53125.265625-1.101562.445312-1.6875.527344-.550781.101562-1.109375.164062-1.667968.175781zm0 0" fill="#fdd7ad"/><path d="m176.550781 61.792969c-1.152343-.015625-2.292969-.253907-3.355469-.707031-1.089843-.402344-2.082031-1.035157-2.910156-1.851563-1.617187-1.691406-2.53125-3.929687-2.5625-6.269531-.027344-1.15625.210938-2.304688.707032-3.355469.449218-1.066406 1.074218-2.054687 1.855468-2.910156 2.128906-1.996094 5.066406-2.878907 7.945313-2.382813.585937.082032 1.15625.257813 1.683593.527344.5625.195312 1.097657.460938 1.589844.792969.460938.328125.902344.683593 1.324219 1.0625.777344.855469 1.40625 1.84375 1.855469 2.910156.449218 1.0625.683594 2.203125.695312 3.355469-.035156 2.335937-.949218 4.574218-2.558594 6.269531l-1.324218 1.058594c-.492188.332031-1.027344.597656-1.589844.792969-.527344.269531-1.097656.449218-1.6875.53125-.550781.101562-1.105469.160156-1.667969.175781zm0 0" fill="#fdd7ad"/><path d="m512 344.277344c0 92.628906-75.09375 167.722656-167.722656 167.722656-92.632813 0-167.726563-75.09375-167.726563-167.722656h114.757813c.027344 28.523437 22.605468 51.925781 51.113281 52.964844h1.855469c28.574218.101562 52.046875-22.550782 52.964844-51.113282v-1.851562zm0 0" fill="#fdd7ad"/><path d="m512 344.277344c-14.300781 0-14.300781 17.652344-28.691406 17.652344-14.386719 0-14.386719-17.652344-28.6875-17.652344-14.300782 0-14.300782 17.652344-28.691406 17.652344-14.386719 0-14.386719-17.652344-28.6875-17.652344-.011719-28.535156-22.597657-51.941406-51.113282-52.96875h-1.851562c-28.578125-.097656-52.050782 22.550781-52.96875 51.113281v1.855469c-14.300782 0-14.300782 17.652344-28.6875 17.652344-14.390625 0-14.390625-17.652344-28.691406-17.652344-14.300782 0-14.300782 17.652344-28.6875 17.652344-14.390626 0-14.390626-17.652344-28.691407-17.652344 0-92.632813 75.09375-167.726563 167.726563-167.726563 92.628906 0 167.722656 75.09375 167.722656 167.726563zm0 0" fill="#ff5364"/><path d="m380.082031 480.601562c-4.414062 0-8.148437-3.253906-8.75-7.625-.601562-4.371093 2.117188-8.515624 6.363281-9.703124 35.777344-10.265626 65.121094-35.929688 80.050782-70.023438 1.261718-2.890625 3.96875-4.890625 7.105468-5.242188 3.136719-.355468 6.21875.992188 8.09375 3.53125 1.875 2.535157 2.25 5.882813.988282 8.773438-16.835938 39.113281-50.453125 68.515625-91.460938 79.996094-.78125.207031-1.585937.304687-2.390625.292968zm0 0" fill="#fff"/><path d="m344.761719 467.863281c.589843.015625 1.179687.070313 1.765625.167969.550781.09375 1.085937.269531 1.589844.519531.566406.191407 1.101562.457031 1.597656.792969l1.324218 1.050781c.378907.453125.734376.925781 1.066407 1.414063.355469.445312.625.949218.804687 1.492187.253906.5.433594 1.035157.539063 1.589844.101562.582031.160156 1.171875.175781 1.765625.039062 1.15625-.195312 2.3125-.6875 3.363281-.453125 1.0625-1.074219 2.046875-1.847656 2.910157l-1.3125 1.070312c-.492188.335938-1.027344.605469-1.589844.800781-.5.257813-1.035156.433594-1.589844.53125-2.902344.597657-5.914062-.285156-8.042968-2.347656-.777344-.855469-1.410157-1.839844-1.863282-2.90625-.496094-1.046875-.742187-2.195313-.722656-3.351563.011719-.59375.070312-1.183593.175781-1.765624.089844-.554688.265625-1.089844.523438-1.589844.167969-.546875.433593-1.058594.785156-1.511719.351563-.527344.707031-.96875 1.050781-1.410156 1.683594-1.621094 3.921875-2.542969 6.257813-2.585938zm0 0" fill="#fff"/><g fill="#fb7b76"><path d="m458.789062 282.03125c3.585938-.035156 6.835938 2.105469 8.222657 5.410156 1.390625 3.304688.640625 7.125-1.894531 9.660156-2.527344 2.515626-6.320313 3.265626-9.613282 1.898438-1.070312-.449219-2.058594-1.074219-2.921875-1.847656-3.429687-3.464844-3.453125-9.039063-.054687-12.535156.859375-.78125 1.84375-1.414063 2.914062-1.871094 1.058594-.453125 2.195313-.699219 3.347656-.714844zm0 0"/><path d="m414.648438 282.210938c3.585937-.035157 6.835937 2.101562 8.226562 5.40625 1.390625 3.308593.640625 7.125-1.894531 9.660156-2.53125 2.515625-6.324219 3.257812-9.613281 1.890625-1.074219-.445313-2.0625-1.066407-2.921876-1.847657-3.421874-3.476562-3.421874-9.054687 0-12.535156.855469-.777344 1.835938-1.40625 2.902344-1.859375 1.042969-.453125 2.164063-.695312 3.300782-.714843zm0 0"/><path d="m423.34375 246.863281c2.347656-.023437 4.609375.898438 6.269531 2.558594 1.660157 1.660156 2.582031 3.921875 2.558594 6.269531-.015625 2.335938-.921875 4.582032-2.535156 6.277344-2.527344 2.511719-6.320313 3.257812-9.613281 1.886719-1.070313-.441407-2.058594-1.066407-2.921876-1.84375-3.417968-3.472657-3.4375-9.039063-.042968-12.535157.859375-.777343 1.839844-1.410156 2.90625-1.863281 1.066406-.464843 2.214844-.722656 3.378906-.75zm0 0"/><path d="m379.242188 255.859375c2.347656-.023437 4.605468.898437 6.269531 2.558594 1.660156 1.660156 2.582031 3.921875 2.558593 6.269531-.019531 2.335938-.925781 4.582031-2.535156 6.273438-2.527344 2.519531-6.320312 3.265624-9.613281 1.898437-1.070313-.445313-2.058594-1.070313-2.921875-1.84375-3.417969-3.480469-3.417969-9.054687 0-12.535156.859375-.777344 1.839844-1.40625 2.90625-1.863281 1.050781-.464844 2.183594-.722657 3.335938-.757813zm0 0"/><path d="m379.101562 220.546875c3.582032-.03125 6.832032 2.109375 8.21875 5.414063 1.386719 3.304687.636719 7.121093-1.898437 9.65625-2.527344 2.515624-6.320313 3.265624-9.613281 1.898437-1.070313-.445313-2.054688-1.070313-2.914063-1.84375-3.429687-3.46875-3.453125-9.042969-.050781-12.535156.855469-.78125 1.835938-1.410157 2.902344-1.863281 1.0625-.457032 2.199218-.703126 3.355468-.726563zm0 0"/><path d="m334.925781 211.863281c3.585938-.035156 6.839844 2.101563 8.226563 5.40625 1.390625 3.308594.640625 7.125-1.894532 9.660157-2.527343 2.515624-6.320312 3.265624-9.613281 1.898437-1.074219-.445313-2.0625-1.066406-2.921875-1.84375-3.429687-3.46875-3.453125-9.039063-.054687-12.535156.855469-.78125 1.839843-1.414063 2.90625-1.863281 1.058593-.457032 2.199219-.703126 3.351562-.722657zm0 0"/><path d="m290.824219 220.902344c3.585937-.035156 6.835937 2.101562 8.226562 5.40625 1.386719 3.308594.640625 7.125-1.898437 9.660156-2.523438 2.519531-6.316406 3.265625-9.613282 1.898438-1.066406-.445313-2.054687-1.070313-2.921874-1.84375-3.425782-3.46875-3.449219-9.039063-.050782-12.535157.855469-.785156 1.835938-1.417969 2.902344-1.871093 1.0625-.457032 2.203125-.699219 3.355469-.714844zm0 0"/><path d="m246.792969 247.550781c3.589843-.035156 6.839843 2.105469 8.226562 5.414063 1.386719 3.3125.632813 7.128906-1.90625 9.664062-2.527343 2.515625-6.320312 3.257813-9.613281 1.890625-1.074219-.445312-2.0625-1.066406-2.921875-1.847656-3.410156-3.480469-3.410156-9.050781 0-12.535156.855469-.777344 1.839844-1.40625 2.90625-1.859375 1.046875-.449219 2.167969-.695313 3.308594-.726563zm0 0"/><path d="m264.582031 282.800781c3.589844-.039062 6.84375 2.101563 8.234375 5.410157 1.390625 3.308593.636719 7.132812-1.90625 9.667968-2.527344 2.511719-6.320312 3.257813-9.613281 1.886719-1.074219-.441406-2.0625-1.066406-2.921875-1.84375-3.417969-3.480469-3.417969-9.054687 0-12.535156.855469-.777344 1.839844-1.40625 2.902344-1.863281 1.046875-.449219 2.167968-.691407 3.304687-.722657zm0 0"/><path d="m220.453125 282.976562c3.582031-.03125 6.832031 2.109376 8.214844 5.414063 1.386719 3.304687.636719 7.121094-1.894531 9.65625-2.527344 2.515625-6.320313 3.265625-9.613282 1.898437-1.070312-.449218-2.058594-1.070312-2.921875-1.847656-3.421875-3.476562-3.421875-9.054687 0-12.535156.855469-.777344 1.835938-1.40625 2.902344-1.863281 1.046875-.449219 2.171875-.695313 3.3125-.722657zm0 0"/><path d="m335.070312 247.171875c3.582032-.03125 6.832032 2.109375 8.214844 5.414063 1.386719 3.304687.636719 7.121093-1.894531 9.65625-2.527344 2.515624-6.320313 3.265624-9.613281 1.898437-1.070313-.449219-2.058594-1.070313-2.921875-1.847656-3.421875-3.46875-3.441407-9.039063-.046875-12.535157.855468-.78125 1.839844-1.410156 2.90625-1.863281 1.058594-.457031 2.199218-.703125 3.355468-.722656zm0 0"/><path d="m291 265.039062c2.351562-.027343 4.609375.894532 6.273438 2.558594 1.660156 1.660156 2.582031 3.921875 2.554687 6.269532-.015625 2.335937-.921875 4.582031-2.53125 6.277343-2.527344 2.515625-6.320313 3.265625-9.613281 1.898438-1.074219-.453125-2.058594-1.078125-2.921875-1.855469-3.421875-3.46875-3.441407-9.035156-.046875-12.527344.855468-.78125 1.839844-1.414062 2.90625-1.871094 1.066406-.46875 2.214844-.726562 3.378906-.75zm0 0"/></g></svg>