<svg height="512pt" viewBox="0 -22 512.08422 512" width="512pt" xmlns="http://www.w3.org/2000/svg"><path d="m395.460938 71.929688h42.792968c13.609375 0 26.050782 7.6875 32.140625 19.863281l39.523438 79.042969c4.164062 7.878906 2.1875 17.597656-4.726563 23.222656-4.261718 3.234375-9.742187 4.40625-14.953125 3.191406-5.210937-1.21875-9.605469-4.691406-11.996093-9.480469l-35.03125-69.964843c-3.039063-6.089844-9.261719-9.941407-16.066407-9.945313h-31.683593zm0 0" fill="#a5a5a4"/><path d="m152.933594 89.894531-62.058594-82.636719c-1.058594-1.457031-1.15625-3.40625-.246094-4.960937.90625-1.558594 2.652344-2.429687 4.441406-2.2265625l301.40625 34.3398435c4.566407.554688 7.992188 4.441406 7.96875 9.039063v46.445312l-125.988281 35.929688zm0 0" fill="#90bae1"/><path d="m90.417969 269.546875c2.785156-49.226563 29.460937-93.507813 62.515625-125.757813l125.523437-26.945312 125.988281 26.945312c35.03125 34.226563 62.875 81.921876 62.875 134.738282 0 104.179687-84.453124 188.632812-188.628906 188.632812-10.539062.015625-21.058594-.882812-31.441406-2.695312l-139.460938 2.695312zm0 0" fill="#90bae1"/><path d="m126.4375 269.546875c3.878906-33.679687 18.566406-65.195313 41.859375-89.824219h220.789063c25.613281 26.714844 40.648437 61.828125 42.304687 98.804688-.117187 84.285156-68.414063 152.582031-152.699219 152.703125-3.054687 0-132.042968.179687-134.972656 0" fill="#7f6e5d"/><path d="m404.445312 89.894531v53.894531h-251.511718v-53.894531" fill="#d1d4d1"/><g fill="#cbb292"><path d="m368.515625 341.40625c0 9.921875-8.042969 17.964844-17.964844 17.964844s-17.964843-8.042969-17.964843-17.964844 8.042968-17.964844 17.964843-17.964844 17.964844 8.042969 17.964844 17.964844zm0 0"/><path d="m359.53125 296.492188c1.179688.03125 2.347656-.214844 3.414062-.71875 1.089844-.453126 2.089844-1.09375 2.964844-1.886719 1.652344-1.710938 2.585938-3.996094 2.605469-6.375-.015625-1.175781-.257813-2.335938-.71875-3.414063-.816406-2.257812-2.59375-4.035156-4.851563-4.851562-3.34375-1.40625-7.207031-.660156-9.792968 1.886718-.789063.875-1.429688 1.875-1.882813 2.964844-.503906 1.066406-.75 2.234375-.71875 3.414063.015625.601562.074219 1.203125.179688 1.796875.097656.5625.277343 1.105468.539062 1.613281.195313.574219.464844 1.117187.808594 1.617187l1.074219 1.347657 1.347656 1.078125c.503906.339844 1.046875.613281 1.617188.808594.511718.261718 1.054687.441406 1.617187.539062.59375.105469 1.195313.164062 1.796875.179688zm0 0"/><path d="m395.460938 314.457031c1.179687.03125 2.347656-.214843 3.414062-.71875 1.089844-.453125 2.089844-1.09375 2.964844-1.886719 1.652344-1.710937 2.585937-3.996093 2.605468-6.375-.015624-1.175781-.257812-2.335937-.71875-3.414062-.816406-2.257812-2.59375-4.035156-4.851562-4.851562-3.34375-1.40625-7.207031-.660157-9.789062 1.886718-.792969.875-1.433594 1.875-1.886719 2.964844-.503907 1.066406-.75 2.234375-.71875 3.414062.015625.601563.074219 1.203126.179687 1.796876.097656.5625.277344 1.105468.539063 1.613281.195312.574219.464843 1.117187.808593 1.617187l1.078126 1.347656 1.34375 1.078126c.503906.339843 1.046874.613281 1.617187.808593.511719.261719 1.054687.441407 1.617187.539063.59375.105468 1.195313.164062 1.796876.179687zm0 0"/></g><path d="m269.707031 431.230469c0 19.84375-16.085937 35.929687-35.929687 35.929687h-197.847656c-19.84375 0-35.929688-16.085937-35.929688-35.929687zm0 0" fill="#d1d4d1"/><path d="m251.507812 278.527344v62.878906c.011719 36.105469-21.613281 68.699219-54.882812 82.726562-11.046875 4.707032-22.933594 7.121094-34.941406 7.097657h-53.894532c-23.824218 0-46.667968-9.464844-63.515624-26.308594-16.84375-16.847656-26.308594-39.695313-26.308594-63.515625v-62.878906c0-4.960938 4.023437-8.980469 8.984375-8.980469h215.578125c4.960937 0 8.980468 4.019531 8.980468 8.980469zm0 0" fill="#e64c3c"/><path d="m106.496094 331.445312 1.527344.976563v26.949219c-.554688 5.425781-5.34375 9.414062-10.78125 8.980468h-32.523438c-5.453125.460938-10.269531-3.535156-10.824219-8.980468v-26.949219l26.949219-26.945313zm0 0" fill="#fdd7ad"/><path d="m89.824219 269.546875v44.910156c0 4.960938-4.019531 8.984375-8.980469 8.984375s-8.984375-4.023437-8.984375-8.984375v-44.910156zm0 0" fill="#a5a5a4"/></svg>