<svg height="512pt" viewBox="0 -4 512.00003 512" width="512pt" xmlns="http://www.w3.org/2000/svg"><path d="m51.199219 110.933594h409.601562v332.800781h-409.601562zm0 0" fill="#fdd7ad"/><path d="m264.535156 221.867188h153.597656c4.714844 0 8.535157 3.820312 8.535157 8.53125v136.535156c0 4.710937-3.820313 8.53125-8.535157 8.53125h-153.597656c-4.714844 0-8.535156-3.820313-8.535156-8.53125v-136.535156c0-4.710938 3.820312-8.53125 8.535156-8.53125zm0 0" fill="#84b5cb"/><path d="m426.324219 228.179688c-36.523438 14.679687-121.511719 56.917968-166.738281 145.664062-2.230469-1.597656-3.5625-4.167969-3.585938-6.910156v-136.535156c0-4.710938 3.820312-8.53125 8.535156-8.53125h153.597656c3.855469-.019532 7.226563 2.582031 8.191407 6.3125zm0 0" fill="#90bae1"/><path d="m486.398438 85.332031-110.566407-78.976562c-5.789062-4.132813-12.722656-6.355469-19.839843-6.355469h-199.984376c-7.117187 0-14.050781 2.222656-19.839843 6.355469l-110.566407 78.976562 230.398438 42.667969zm0 0" fill="#cbb292"/><path d="m51.199219 426.667969h409.601562v68.265625h-409.601562zm0 0" fill="#cbb292"/><path d="m110.933594 290.132812h85.332031c4.714844 0 8.535156 3.820313 8.535156 8.535157v196.265625h-102.402343v-196.265625c0-4.714844 3.820312-8.535157 8.535156-8.535157zm0 0" fill="#7f6e5d"/><path d="m110.933594 221.867188h85.332031c4.714844 0 8.535156 3.820312 8.535156 8.53125v17.066406c0 4.714844-3.820312 8.535156-8.535156 8.535156h-85.332031c-4.714844 0-8.535156-3.820312-8.535156-8.535156v-17.066406c0-4.710938 3.820312-8.53125 8.535156-8.53125zm0 0" fill="#cbb292"/><g fill="#7f6e5d"><path d="m256 469.332031h-8.535156c-4.710938 0-8.53125-3.820312-8.53125-8.53125 0-4.714843 3.820312-8.535156 8.53125-8.535156h8.535156c4.710938 0 8.535156 3.820313 8.535156 8.535156 0 4.710938-3.824218 8.53125-8.535156 8.53125zm0 0"/><path d="m307.199219 469.332031h-8.53125c-4.714844 0-8.535157-3.820312-8.535157-8.53125 0-4.714843 3.820313-8.535156 8.535157-8.535156h8.53125c4.714843 0 8.535156 3.820313 8.535156 8.535156 0 4.710938-3.820313 8.53125-8.535156 8.53125zm0 0"/><path d="m358.398438 469.332031h-8.53125c-4.714844 0-8.535157-3.820312-8.535157-8.53125 0-4.714843 3.820313-8.535156 8.535157-8.535156h8.53125c4.714843 0 8.535156 3.820313 8.535156 8.535156 0 4.710938-3.820313 8.53125-8.535156 8.53125zm0 0"/><path d="m409.601562 469.332031h-8.535156c-4.710937 0-8.53125-3.820312-8.53125-8.53125 0-4.714843 3.820313-8.535156 8.53125-8.535156h8.535156c4.710938 0 8.53125 3.820313 8.53125 8.535156 0 4.710938-3.820312 8.53125-8.53125 8.53125zm0 0"/></g><path d="m136.535156 392.535156c-4.714844 0-8.535156-3.824218-8.535156-8.535156v-8.535156c0-4.710938 3.820312-8.53125 8.535156-8.53125 4.710938 0 8.53125 3.820312 8.53125 8.53125v8.535156c0 4.710938-3.820312 8.535156-8.53125 8.535156zm0 0" fill="#cbb292"/><path d="m374.871094 331.605469c-2.902344-5.289063-15.617188-26.964844-33.539063-32.9375-17.917969-5.976563-30.632812-27.648438-33.535156-32.941407 0-.082031.171875-.253906.257813-.339843 14.675781-14.761719 41.554687-11.777344 59.902343 6.65625 18.261719 18.175781 21.332031 44.800781 6.914063 59.5625zm0 0" fill="#cbb292"/><path d="m374.871094 331.605469c0 .085937-.171875.257812-.257813.339843-14.675781 14.765626-41.558593 11.777344-59.902343-6.65625-18.261719-18.175781-21.335938-44.796874-6.914063-59.5625 2.902344 5.292969 15.617187 26.964844 33.535156 32.941407 17.921875 5.972656 30.636719 27.648437 33.539063 32.9375zm0 0" fill="#7f6e5d"/><path d="m503.464844 503.464844h-494.929688c-4.714844 0-8.535156-3.820313-8.535156-8.53125 0-4.714844 3.820312-8.535156 8.535156-8.535156h494.929688c4.714844 0 8.535156 3.820312 8.535156 8.535156 0 4.710937-3.820312 8.53125-8.535156 8.53125zm0 0" fill="#59474e"/><path d="m486.398438 85.332031v59.734375c0 14.140625-11.460938 25.601563-25.597657 25.601563-14.140625 0-25.601562-11.460938-25.601562-25.601563h-51.199219c0 14.140625-11.460938 25.601563-25.601562 25.601563-14.136719 0-25.597657-11.460938-25.597657-25.601563h-51.199219c0 14.140625-11.464843 25.601563-25.601562 25.601563s-25.601562-11.460938-25.601562-25.601563h-51.199219c0 14.140625-11.460938 25.601563-25.597657 25.601563-14.140624 0-25.601562-11.460938-25.601562-25.601563h-51.199219c0 14.140625-11.460937 25.601563-25.601562 25.601563-14.136719 0-25.597657-11.460938-25.597657-25.601563v-59.734375zm0 0" fill="#cc4b4c"/><path d="m76.800781 85.332031h51.199219v59.734375c0 14.140625-11.460938 25.601563-25.601562 25.601563-14.136719 0-25.597657-11.460938-25.597657-25.601563zm0 0" fill="#e6e7e8"/><path d="m179.199219 85.332031h51.199219v59.734375c0 14.140625-11.460938 25.601563-25.597657 25.601563-14.140625 0-25.601562-11.460938-25.601562-25.601563zm0 0" fill="#e6e7e8"/><path d="m281.601562 85.332031h51.199219v59.734375c0 14.140625-11.460937 25.601563-25.601562 25.601563-14.136719 0-25.597657-11.460938-25.597657-25.601563zm0 0" fill="#e6e7e8"/><path d="m384 85.332031h51.199219v59.734375c0 14.140625-11.460938 25.601563-25.597657 25.601563-14.140624 0-25.601562-11.460938-25.601562-25.601563zm0 0" fill="#e6e7e8"/></svg>