<svg height="512pt" viewBox="0 0 512 512" width="512pt" xmlns="http://www.w3.org/2000/svg"><path d="m44.136719 203.035156h423.726562v282.480469h-423.726562zm0 0" fill="#fdd7ad"/><path d="m256 282.484375h158.898438c4.875 0 8.824218 3.949219 8.824218 8.824219v79.449218h-176.550781v-79.449218c0-4.875 3.953125-8.824219 8.828125-8.824219zm0 0" fill="#90bae1"/><path d="m17.65625 476.691406h476.6875c9.75 0 17.65625 7.902344 17.65625 17.652344v17.65625h-512v-17.65625c0-9.75 7.90625-17.652344 17.65625-17.652344zm0 0" fill="#59474e"/><path d="m79.449219 361.929688h123.585937v114.761718h-123.585937zm0 0" fill="#7f6e5d"/><path d="m282.484375 326.621094c-.59375-.015625-1.183594-.074219-1.765625-.175782-.554688-.097656-1.089844-.277343-1.589844-.53125-.5625-.191406-1.097656-.460937-1.589844-.792968l-1.324218-1.058594c-3.414063-3.484375-3.414063-9.054688 0-12.535156l1.324218-1.0625c.492188-.332032 1.027344-.601563 1.589844-.792969.5-.253906 1.035156-.433594 1.589844-.53125 1.128906-.261719 2.308594-.261719 3.441406 0 .585938.082031 1.152344.261719 1.675782.53125.542968.175781 1.050781.445313 1.503906.792969.527344.355468.96875.707031 1.410156 1.0625.78125.855468 1.40625 1.84375 1.855469 2.910156.941406 2.136719.941406 4.574219 0 6.710938-.429688 1.078124-1.058594 2.066406-1.855469 2.914062-.441406.351562-.882812.703125-1.410156 1.058594-.453125.347656-.960938.617187-1.503906.792968-.523438.269532-1.089844.449219-1.675782.53125-.554687.101563-1.113281.160157-1.675781.175782zm0 0" fill="#fff"/><path d="m370.757812 326.621094h-52.964843c-4.875 0-8.828125-3.953125-8.828125-8.828125s3.953125-8.828125 8.828125-8.828125h52.964843c4.875 0 8.828126 3.953125 8.828126 8.828125s-3.953126 8.828125-8.828126 8.828125zm0 0" fill="#fff"/><path d="m432.550781 379.585938h-194.207031c-4.875 0-8.828125-3.953126-8.828125-8.828126s3.953125-8.828124 8.828125-8.828124h194.207031c4.875 0 8.828125 3.953124 8.828125 8.828124s-3.953125 8.828126-8.828125 8.828126zm0 0" fill="#7f6e5d"/><path d="m256 406.070312h52.964844c4.875 0 8.828125 3.949219 8.828125 8.828126v17.652343c0 4.875-3.953125 8.828125-8.828125 8.828125h-52.964844c-4.875 0-8.828125-3.953125-8.828125-8.828125v-17.652343c0-4.878907 3.953125-8.828126 8.828125-8.828126zm0 0" fill="#7f6e5d"/><path d="m361.929688 406.070312h52.96875c4.875 0 8.824218 3.949219 8.824218 8.828126v17.652343c0 4.875-3.949218 8.828125-8.824218 8.828125h-52.96875c-4.875 0-8.828126-3.953125-8.828126-8.828125v-17.652343c0-4.878907 3.953126-8.828126 8.828126-8.828126zm0 0" fill="#7f6e5d"/><path d="m203.035156 291.308594v88.277344h-123.585937v-88.277344c0-4.875 3.953125-8.824219 8.828125-8.824219h105.929687c4.875 0 8.828125 3.949219 8.828125 8.824219zm0 0" fill="#90bae1"/><path d="m114.757812 326.621094c-.589843-.015625-1.179687-.074219-1.765624-.175782-.550782-.097656-1.085938-.277343-1.589844-.53125-.5625-.191406-1.09375-.460937-1.585938-.792968l-1.324218-1.058594c-3.414063-3.484375-3.414063-9.054688 0-12.535156l1.324218-1.0625c.492188-.332032 1.023438-.601563 1.585938-.792969.503906-.253906 1.039062-.433594 1.589844-.53125 1.132812-.261719 2.3125-.261719 3.445312 0 .582031.082031 1.148438.261719 1.675781.53125.542969.175781 1.050781.445313 1.5.792969.53125.355468.972657.707031 1.414063 1.0625.777344.855468 1.40625 1.84375 1.851562 2.910156.941406 2.136719.941406 4.574219 0 6.710938-.425781 1.078124-1.054687 2.066406-1.851562 2.914062-.441406.351562-.882813.703125-1.414063 1.058594-.449219.347656-.957031.617187-1.5.792968-.527343.269532-1.09375.449219-1.675781.53125-.554688.101563-1.117188.160157-1.679688.175782zm0 0" fill="#fff"/><path d="m167.722656 326.621094h-17.652344c-4.875 0-8.828124-3.953125-8.828124-8.828125s3.953124-8.828125 8.828124-8.828125h17.652344c4.875 0 8.828125 3.953125 8.828125 8.828125s-3.953125 8.828125-8.828125 8.828125zm0 0" fill="#fff"/><path d="m494.34375 185.378906v35.3125c0 14.625-11.855469 26.480469-26.480469 26.480469-14.628906 0-26.484375-11.855469-26.484375-26.480469h-52.964844c0 14.625-11.855468 26.480469-26.484374 26.480469-14.625 0-26.480469-11.855469-26.480469-26.480469h-52.964844c0 14.625-11.859375 26.480469-26.484375 26.480469s-26.484375-11.855469-26.484375-26.480469h-52.964844c0 14.625-11.855469 26.480469-26.480469 26.480469-14.628906 0-26.484374-11.855469-26.484374-26.480469h-52.964844c0 14.625-11.855469 26.480469-26.484375 26.480469-14.625 0-26.480469-11.855469-26.480469-26.480469v-35.3125" fill="#cc4b4c"/><path d="m88.277344 0h335.445312c9.753906 0 17.65625 7.90625 17.65625 17.65625v132.414062h-370.757812v-132.414062c0-9.75 7.902344-17.65625 17.65625-17.65625zm0 0" fill="#7f6e5d"/><path d="m344.277344 52.964844v26.484375c0 4.875-3.953125 8.828125-8.828125 8.828125h-158.898438c-4.875 0-8.828125-3.953125-8.828125-8.828125v-26.484375c0-4.875 3.953125-8.828125 8.828125-8.828125h158.898438c4.875 0 8.828125 3.953125 8.828125 8.828125zm0 0" fill="#59474e"/><path d="m494.34375 185.378906-52.964844-52.964844h-370.757812l-52.964844 52.964844zm0 0" fill="#cbb292"/><g fill="#e6e7e8"><path d="m70.621094 185.378906h52.964844v35.3125c0 14.625-11.855469 26.480469-26.484376 26.480469-14.625 0-26.480468-11.855469-26.480468-26.480469zm0 0"/><path d="m176.550781 185.378906h52.964844v35.3125c0 14.625-11.855469 26.480469-26.480469 26.480469s-26.484375-11.855469-26.484375-26.480469zm0 0"/><path d="m282.484375 185.378906h52.964844v35.3125c0 14.625-11.859375 26.480469-26.484375 26.480469s-26.480469-11.855469-26.480469-26.480469zm0 0"/><path d="m388.414062 185.378906h52.964844v35.3125c0 14.625-11.855468 26.480469-26.480468 26.480469-14.628907 0-26.484376-11.855469-26.484376-26.480469zm0 0"/></g></svg>