<svg height="512pt" viewBox="0 -4 512.00003 512" width="512pt" xmlns="http://www.w3.org/2000/svg"><path d="m256 503.464844c-4.710938 0-8.535156-3.820313-8.535156-8.53125v-136.535156c0-4.710938 3.824218-8.53125 8.535156-8.53125s8.535156 3.820312 8.535156 8.53125v136.535156c0 4.710937-3.824218 8.53125-8.535156 8.53125zm0 0" fill="#bdc3c7"/><path d="m187.734375 503.464844c-3.363281.003906-6.417969-1.964844-7.792969-5.035156-1.378906-3.066407-.828125-6.660157 1.410156-9.171876l68.265626-76.800781c3.132812-3.53125 8.539062-3.859375 12.074218-.722656 3.535156 3.132813 3.859375 8.539063.726563 12.074219l-68.265625 76.800781c-1.632813 1.828125-3.96875 2.871094-6.417969 2.855469zm0 0" fill="#bdc3c7"/><path d="m324.265625 503.464844c-2.4375.003906-4.761719-1.035156-6.382813-2.855469l-68.265624-76.800781c-2.027344-2.285156-2.679688-5.480469-1.714844-8.378906.96875-2.902344 3.40625-5.0625 6.398437-5.675782 2.996094-.613281 6.089844.417969 8.117188 2.703125l68.265625 76.800781c2.242187 2.515626 2.792968 6.117188 1.402344 9.1875-1.386719 3.070313-4.449219 5.039063-7.820313 5.019532zm0 0" fill="#bdc3c7"/><path d="m486.398438 119.464844-230.398438 8.535156-230.398438-8.535156 230.398438-119.464844zm0 0" fill="#cbb292"/><g fill="#bdc3c7"><path d="m460.800781 503.464844c-4.714843 0-8.535156-3.820313-8.535156-8.53125v-76.800782h-65.253906c-1.664063 0-3.011719 1.347657-3.011719 3.011719v73.789063c0 4.710937-3.820312 8.53125-8.535156 8.53125-4.710938 0-8.53125-3.820313-8.53125-8.53125v-73.789063c.015625-11.082031 8.996094-20.0625 20.078125-20.078125h73.789062c4.710938 0 8.53125 3.820313 8.53125 8.535156v85.332032c0 4.710937-3.820312 8.53125-8.53125 8.53125zm0 0"/><path d="m460.800781 418.132812c-4.714843 0-8.535156-3.820312-8.535156-8.53125v-110.933593c0-4.714844 3.820313-8.535157 8.535156-8.535157 4.710938 0 8.53125 3.820313 8.53125 8.535157v110.933593c0 4.710938-3.820312 8.53125-8.53125 8.53125zm0 0"/><path d="m136.535156 503.464844c-4.714844 0-8.535156-3.820313-8.535156-8.53125v-73.789063c0-1.664062-1.347656-3.011719-3.011719-3.011719h-65.253906v76.800782c0 4.710937-3.820313 8.53125-8.535156 8.53125-4.710938 0-8.53125-3.820313-8.53125-8.53125v-85.332032c0-4.714843 3.820312-8.535156 8.53125-8.535156h73.789062c11.082031.015625 20.0625 8.996094 20.078125 20.078125v73.789063c0 4.710937-3.820312 8.53125-8.53125 8.53125zm0 0"/><path d="m51.199219 418.132812c-4.710938 0-8.53125-3.820312-8.53125-8.53125v-110.933593c0-4.714844 3.820312-8.535157 8.53125-8.535157 4.714843 0 8.535156 3.820313 8.535156 8.535157v110.933593c0 4.710938-3.820313 8.53125-8.535156 8.53125zm0 0"/><path d="m256 332.800781c-4.710938 0-8.535156-3.820312-8.535156-8.535156v-128c0-4.710937 3.824218-8.53125 8.535156-8.53125s8.535156 3.820313 8.535156 8.53125v128c0 4.714844-3.824218 8.535156-8.535156 8.535156zm0 0"/></g><path d="m145.066406 324.265625h221.867188c9.425781 0 17.066406 7.640625 17.066406 17.066406s-7.640625 17.066407-17.066406 17.066407h-221.867188c-9.425781 0-17.066406-7.640626-17.066406-17.066407s7.640625-17.066406 17.066406-17.066406zm0 0" fill="#59474e"/><path d="m503.464844 503.464844h-494.929688c-4.714844 0-8.535156-3.820313-8.535156-8.53125 0-4.714844 3.820312-8.535156 8.535156-8.535156h494.929688c4.714844 0 8.535156 3.820312 8.535156 8.535156 0 4.710937-3.820312 8.53125-8.535156 8.53125zm0 0" fill="#59474e"/><path d="m25.601562 119.464844h51.199219v51.203125c0 14.136719-11.460937 25.597656-25.601562 25.597656-14.136719 0-25.597657-11.460937-25.597657-25.597656zm0 0" fill="#cc4b4c"/><path d="m76.800781 119.464844h51.199219v51.203125c0 14.136719-11.460938 25.597656-25.601562 25.597656-14.136719 0-25.597657-11.460937-25.597657-25.597656zm0 0" fill="#fb7b76"/><path d="m128 119.464844h51.199219v51.203125c0 14.136719-11.460938 25.597656-25.597657 25.597656-14.140624 0-25.601562-11.460937-25.601562-25.597656zm0 0" fill="#cc4b4c"/><path d="m179.199219 119.464844h51.199219v51.203125c0 14.136719-11.460938 25.597656-25.597657 25.597656-14.140625 0-25.601562-11.460937-25.601562-25.597656zm0 0" fill="#fb7b76"/><path d="m230.398438 119.464844h51.203124v51.203125c0 14.136719-11.464843 25.597656-25.601562 25.597656s-25.601562-11.460937-25.601562-25.597656zm0 0" fill="#cc4b4c"/><path d="m281.601562 119.464844h51.199219v51.203125c0 14.136719-11.460937 25.597656-25.601562 25.597656-14.136719 0-25.597657-11.460937-25.597657-25.597656zm0 0" fill="#fb7b76"/><path d="m332.800781 119.464844h51.199219v51.203125c0 14.136719-11.460938 25.597656-25.601562 25.597656-14.136719 0-25.597657-11.460937-25.597657-25.597656zm0 0" fill="#cc4b4c"/><path d="m384 119.464844h51.199219v51.203125c0 14.136719-11.460938 25.597656-25.597657 25.597656-14.140624 0-25.601562-11.460937-25.601562-25.597656zm0 0" fill="#fb7b76"/><path d="m435.199219 119.464844h51.199219v51.203125c0 14.136719-11.460938 25.597656-25.597657 25.597656-14.140625 0-25.601562-11.460937-25.601562-25.597656zm0 0" fill="#cc4b4c"/></svg>