<svg height="512pt" viewBox="0 0 512 512.00499" width="512pt" xmlns="http://www.w3.org/2000/svg"><path d="m308.96875 426.199219c61.703125 6.09375 105.929688 22.421875 105.929688 41.667969 0 24.363281-71.148438 44.136718-158.894532 44.136718s-158.898437-19.773437-158.898437-44.136718c0-19.246094 44.226562-35.574219 105.929687-41.667969" fill="#805333"/><path d="m344.277344 459.039062c-31.1875-20.378906-53.320313-51.996093-61.792969-88.277343h-52.964844c-8.472656 36.28125-30.605469 67.898437-61.792969 88.277343 0 0 0 17.65625 88.277344 17.65625 88.273438 0 88.273438-17.65625 88.273438-17.65625zm0 0" fill="#af8066"/><path d="m.00390625 229.523438v52.964843c0 53.628907 114.61718775 97.101563 255.99999975 97.101563 141.382813 0 256-43.472656 256-97.101563v-52.964843zm0 0" fill="#805333"/><path d="m349.308594 139.128906c95.25 14.035156 162.695312 49.257813 162.695312 90.394532 0 53.671874-114.582031 97.101562-256 97.101562-141.417968 0-255.99999975-43.429688-255.99999975-97.101562 0-45.550782 82.62499975-83.773438 194.20703175-94.191407" fill="#cb8252"/><path d="m331.035156 158.902344c-6.878906-.003906-13.5625-2.300782-18.984375-6.535156-.359375-.222657-.699219-.476563-1.015625-.757813-6.878906-5.917969-10.851562-14.53125-10.894531-23.605469 0-4.875 3.953125-8.828125 8.828125-8.828125s8.828125 3.953125 8.828125 8.828125c.007813 3.710938 1.554687 7.253906 4.269531 9.78125.179688.132813.347656.257813.515625.398438 3.992188 3.210937 9.460938 3.894531 14.121094 1.765625 5.570313-2.667969 8.558594-8.828125 7.203125-14.851563-1.355469-6.023437-6.695312-10.3125-12.871094-10.335937h-22.066406c-4.875 0-8.828125-3.949219-8.828125-8.824219s3.953125-8.828125 8.828125-8.828125h22.066406c14.457032-.007813 26.984375 10.007813 30.15625 24.109375 3.175782 14.101562-3.851562 28.519531-16.914062 34.707031-4.140625 1.949219-8.664063 2.964844-13.242188 2.976563zm0 0" fill="#c03a2b"/><path d="m315.589844 194.210938c27.980468 6.957031 46.34375 18.699218 46.34375 31.992187 0 21.320313-47.402344 38.628906-105.929688 38.628906s-105.933594-17.308593-105.933594-38.628906c0-13.292969 18.363282-25.035156 46.347657-31.992187" fill="#d1d4d1"/><path d="m317.796875 97.109375v68.070313c.515625 34.0625-25.949219 62.460937-59.96875 64.34375-16.699219.492187-32.890625-5.796876-44.878906-17.441407-11.988281-11.640625-18.746094-27.644531-18.738281-44.351562v-61.792969c0-4.875 3.949218-8.828125 8.824218-8.828125zm0 0" fill="#e64c3c"/><g fill="#cbb292"><path d="m220.691406 70.625c-3.148437-.007812-6.054687-1.695312-7.625-4.425781-1.570312-2.726563-1.566406-6.085938.007813-8.816407l3.601562-6.179687c.914063-1.679687.417969-3.78125-1.148437-4.878906-8.960938-7.359375-10.410156-20.527344-3.257813-29.652344l10.277344-13.257813c1.933594-2.492187 5.054687-3.761718 8.179687-3.3320308 3.125.4335938 5.785157 2.4999998 6.972657 5.4218748 1.191406 2.921875.730469 6.257813-1.207031 8.75l-10.28125 13.238282c-.667969.804687-.964844 1.851562-.8125 2.886718.152343 1.03125.734374 1.949219 1.605468 2.527344 8.0625 6.617188 10.144532 18.101562 4.917969 27.125l-3.601563 6.179688c-1.574218 2.726562-4.480468 4.410156-7.628906 4.414062zm0 0"/><path d="m256.003906 70.625c-3.152344-.007812-6.054687-1.695312-7.625-4.425781-1.570312-2.726563-1.570312-6.085938.003906-8.816407l3.601563-6.179687c.914063-1.679687.421875-3.78125-1.144531-4.878906-8.964844-7.359375-10.410156-20.527344-3.257813-29.652344l10.273438-13.257813c1.9375-2.492187 5.054687-3.761718 8.183593-3.3320308 3.125.4335938 5.78125 2.4999998 6.972657 5.4218748 1.1875 2.921875.730469 6.257813-1.207031 8.75l-10.285157 13.238282c-.667969.804687-.960937 1.851562-.8125 2.886718.152344 1.03125.738281 1.949219 1.605469 2.527344 8.0625 6.617188 10.144531 18.101562 4.917969 27.125l-3.601563 6.179688c-1.574218 2.726562-4.480468 4.410156-7.625 4.414062zm0 0"/><path d="m291.3125 70.625c-3.148438-.007812-6.054688-1.695312-7.625-4.425781-1.570312-2.726563-1.566406-6.085938.007812-8.816407l3.601563-6.179687c.910156-1.679687.417969-3.78125-1.148437-4.878906-8.960938-7.359375-10.410157-20.527344-3.257813-29.652344l10.277344-13.257813c1.933593-2.492187 5.054687-3.761718 8.179687-3.3320308 3.125.4335938 5.785156 2.4999998 6.972656 5.4218748 1.191407 2.921875.730469 6.257813-1.207031 8.75l-10.28125 13.238282c-.667969.804687-.964843 1.851562-.8125 2.886718.152344 1.03125.734375 1.949219 1.605469 2.527344 8.0625 6.617188 10.144531 18.101562 4.917969 27.125l-3.601563 6.179688c-1.574218 2.726562-4.480468 4.410156-7.628906 4.414062zm0 0"/></g></svg>