<svg height="512pt" viewBox="0 -4 512 512" width="512pt" xmlns="http://www.w3.org/2000/svg"><path d="m308.964844 417.367188c61.707031 6.09375 105.933594 22.421874 105.933594 41.667968 0 24.363282-71.152344 44.136719-158.898438 44.136719s-158.898438-19.773437-158.898438-44.136719c0-19.246094 44.226563-35.574218 105.933594-41.667968" fill="#805333"/><path d="m344.277344 450.207031c-31.191406-20.378906-53.324219-51.996093-61.792969-88.277343h-52.96875c-8.46875 36.28125-30.601563 67.898437-61.792969 88.277343 0 0 0 17.65625 88.277344 17.65625s88.277344-17.65625 88.277344-17.65625zm0 0" fill="#af8066"/><path d="m0 220.691406v52.964844c0 53.625 114.617188 97.101562 256 97.101562s256-43.476562 256-97.101562v-52.964844zm0 0" fill="#805333"/><path d="m349.308594 130.296875c95.25 14.035156 162.691406 49.257813 162.691406 90.394531 0 53.671875-114.582031 97.101563-256 97.101563s-256-43.429688-256-97.101563c0-45.550781 82.625-83.777344 194.207031-94.191406" fill="#cb8252"/><path d="m114.757812 220.691406v26.480469c0 4.875 3.953126 8.828125 8.828126 8.828125h264.828124c4.875 0 8.828126-3.953125 8.828126-8.828125v-26.480469l-61.792969-17.65625h-158.898438zm0 0" fill="#95a5a5"/><path d="m335.449219 114.757812h11.765625c3.5625 0 6.777344 2.140626 8.148437 5.429688l41.878907 100.503906h-282.484376l33.296876-99.894531c1.203124-3.605469 4.578124-6.039063 8.378906-6.039063zm0 0" fill="#bdc3c7"/><path d="m176.550781 0h150.070313c4.875 0 8.828125 3.953125 8.828125 8.828125v167.722656c0 4.875-3.953125 8.828125-8.828125 8.828125h-150.070313c-4.875 0-8.828125-3.953125-8.828125-8.828125v-167.722656c0-4.875 3.953125-8.828125 8.828125-8.828125zm0 0" fill="#f9eab0"/><g fill="#547580"><path d="m203.035156 44.136719c-2.339844-.03125-4.578125-.945313-6.269531-2.558594-.378906-.417969-.730469-.863281-1.058594-1.324219-.332031-.492187-.601562-1.027344-.792969-1.589844-.257812-.5-.433593-1.035156-.53125-1.589843-.101562-.582031-.160156-1.171875-.175781-1.765625.03125-2.335938.945313-4.574219 2.558594-6.265625 2.539063-2.503907 6.335937-3.238281 9.625-1.855469 1.066406.453125 2.050781 1.078125 2.910156 1.855469 1.613281 1.691406 2.527344 3.929687 2.5625 6.265625-.015625.59375-.078125 1.183594-.1875 1.765625-.085937.554687-.261719 1.09375-.519531 1.589843-.199219.5625-.464844 1.09375-.792969 1.589844l-1.0625 1.324219c-.859375.777344-1.84375 1.402344-2.910156 1.855469-1.0625.449218-2.203125.691406-3.355469.703125zm0 0"/><path d="m300.136719 44.136719h-61.792969c-4.875 0-8.828125-3.949219-8.828125-8.828125 0-4.875 3.953125-8.824219 8.828125-8.824219h61.792969c4.875 0 8.828125 3.949219 8.828125 8.824219 0 4.878906-3.953125 8.828125-8.828125 8.828125zm0 0"/><path d="m203.035156 79.449219c-2.339844-.035157-4.578125-.949219-6.269531-2.5625-.378906-.417969-.730469-.859375-1.058594-1.324219-.332031-.492188-.601562-1.023438-.792969-1.585938-.257812-.5-.433593-1.039062-.53125-1.589843-.101562-.582031-.160156-1.175781-.175781-1.765625.03125-2.339844.945313-4.578125 2.558594-6.269532 2.539063-2.503906 6.335937-3.234374 9.625-1.851562 1.066406.449219 2.050781 1.074219 2.910156 1.851562 1.613281 1.695313 2.527344 3.933594 2.5625 6.269532-.015625.59375-.078125 1.183594-.1875 1.765625-.085937.554687-.261719 1.089843-.519531 1.589843-.199219.558594-.464844 1.09375-.792969 1.585938l-1.0625 1.324219c-.859375.777343-1.84375 1.40625-2.910156 1.855469-1.0625.453124-2.203125.691406-3.355469.707031zm0 0"/><path d="m300.136719 79.449219h-61.792969c-4.875 0-8.828125-3.953125-8.828125-8.828125s3.953125-8.828125 8.828125-8.828125h61.792969c4.875 0 8.828125 3.953125 8.828125 8.828125s-3.953125 8.828125-8.828125 8.828125zm0 0"/><path d="m203.035156 114.757812c-2.339844-.03125-4.578125-.945312-6.269531-2.558593-.378906-.421875-.730469-.863281-1.058594-1.324219-.332031-.492188-.601562-1.027344-.792969-1.589844-.257812-.5-.433593-1.035156-.53125-1.589844-.101562-.582031-.160156-1.171874-.175781-1.765624.03125-2.335938.945313-4.574219 2.558594-6.265626 2.539063-2.503906 6.335937-3.238281 9.625-1.855468 1.066406.449218 2.050781 1.078125 2.910156 1.855468 1.613281 1.691407 2.527344 3.929688 2.5625 6.265626-.015625.59375-.078125 1.183593-.1875 1.765624-.085937.554688-.261719 1.089844-.519531 1.589844-.199219.5625-.464844 1.09375-.792969 1.589844l-1.0625 1.324219c-.859375.777343-1.84375 1.402343-2.910156 1.851562-1.0625.453125-2.203125.695313-3.355469.707031zm0 0"/><path d="m300.136719 114.757812h-61.792969c-4.875 0-8.828125-3.953124-8.828125-8.828124s3.953125-8.828126 8.828125-8.828126h61.792969c4.875 0 8.828125 3.953126 8.828125 8.828126s-3.953125 8.828124-8.828125 8.828124zm0 0"/><path d="m203.035156 150.070312c-2.339844-.035156-4.578125-.949218-6.269531-2.5625-.378906-.417968-.730469-.859374-1.058594-1.324218-.332031-.492188-.601562-1.023438-.792969-1.585938-.257812-.503906-.433593-1.039062-.53125-1.589844-.101562-.585937-.160156-1.175781-.175781-1.765624.03125-2.339844.945313-4.578126 2.558594-6.269532 2.539063-2.503906 6.335937-3.234375 9.625-1.851562 1.066406.449218 2.050781 1.074218 2.910156 1.851562 1.613281 1.695313 2.527344 3.933594 2.5625 6.269532-.015625.589843-.078125 1.183593-.1875 1.765624-.085937.554688-.261719 1.089844-.519531 1.589844-.199219.558594-.464844 1.09375-.792969 1.585938l-1.0625 1.324218c-.859375.777344-1.84375 1.40625-2.910156 1.855469-1.0625.453125-2.203125.691407-3.355469.707031zm0 0"/><path d="m300.136719 150.070312h-61.792969c-4.875 0-8.828125-3.953124-8.828125-8.828124s3.953125-8.828126 8.828125-8.828126h61.792969c4.875 0 8.828125 3.953126 8.828125 8.828126s-3.953125 8.828124-8.828125 8.828124zm0 0"/></g></svg>