<svg height="512pt" viewBox="0 -4 512 511" width="512pt" xmlns="http://www.w3.org/2000/svg"><path d="m308.964844 417.867188c61.707031 6.09375 105.933594 22.421874 105.933594 41.667968 0 24.363282-71.152344 44.136719-158.898438 44.136719s-158.898438-19.773437-158.898438-44.136719c0-19.246094 44.226563-35.574218 105.933594-41.667968" fill="#805333"/><path d="m344.277344 450.707031c-31.191406-20.378906-53.324219-51.996093-61.792969-88.277343h-52.96875c-8.46875 36.28125-30.601563 67.898437-61.792969 88.277343 0 0 0 17.65625 88.277344 17.65625s88.277344-17.65625 88.277344-17.65625zm0 0" fill="#af8066"/><path d="m0 221.191406v52.964844c0 53.625 114.617188 97.101562 256 97.101562s256-43.476562 256-97.101562v-52.964844zm0 0" fill="#805333"/><path d="m349.308594 130.796875c95.25 14.035156 162.691406 49.257813 162.691406 90.394531 0 53.671875-114.582031 97.101563-256 97.101563s-256-43.429688-256-97.101563c0-45.550781 82.625-83.777344 194.207031-94.191406zm0 0" fill="#cb8252"/><path d="m158.898438.5h185.378906c4.875 0 8.824218 3.953125 8.824218 8.828125v167.722656h-203.03125v-167.722656c0-4.875 3.949219-8.828125 8.828126-8.828125zm0 0" fill="#90bae1"/><path d="m351.160156 3.855469c-37.25 9.269531-124.027344 43.785156-201.089844 169.488281v-164.015625c0-4.875 3.949219-8.828125 8.828126-8.828125h185.378906c2.6875-.007812 5.230468 1.230469 6.882812 3.355469zm0 0" fill="#b0d3f0"/><path d="m185.378906 53.464844c-3.570312 0-6.789062-2.152344-8.152344-5.449219-1.367187-3.296875-.613281-7.09375 1.910157-9.617187l8.828125-8.828126c2.21875-2.296874 5.5-3.214843 8.585937-2.410156 3.085938.808594 5.496094 3.21875 6.304688 6.304688.808593 3.089844-.113281 6.371094-2.40625 8.585937l-8.828125 8.828125c-1.65625 1.65625-3.902344 2.585938-6.242188 2.585938zm0 0" fill="#e6e7e8"/><path d="m185.378906 97.601562c-3.570312 0-6.789062-2.148437-8.152344-5.449218-1.367187-3.296875-.613281-7.09375 1.910157-9.617188l52.96875-52.964844c2.214843-2.296874 5.496093-3.214843 8.582031-2.410156 3.085938.808594 5.496094 3.21875 6.304688 6.304688.808593 3.089844-.113282 6.371094-2.40625 8.585937l-52.964844 52.964844c-1.65625 1.65625-3.902344 2.585937-6.242188 2.585937zm0 0" fill="#e6e7e8"/><path d="m114.757812 230.015625v26.484375c0 4.875 3.953126 8.828125 8.828126 8.828125h264.828124c4.875 0 8.828126-3.953125 8.828126-8.828125v-26.484375l-44.253907-17.652344h-203.035156zm0 0" fill="#a5a5a4"/><path d="m353.101562 159.398438 44.140626 70.617187h-282.484376l35.3125-70.617187zm0 0" fill="#d1d4d1"/><path d="m284.917969 199.589844 15.21875 30.425781h-97.101563l15.21875-30.425781c1.492188-2.992188 4.546875-4.882813 7.890625-4.882813h50.882813c3.34375 0 6.398437 1.890625 7.890625 4.882813zm0 0" fill="#5e5f62"/></svg>