<svg height="512pt" viewBox="0 0 512 512" width="512pt" xmlns="http://www.w3.org/2000/svg"><path d="m92.691406 494.34375h401.652344v-123.585938h-401.652344c-35.332031-1.175781-64.949218 26.464844-66.207031 61.792969 1.257813 35.328125 30.875 62.96875 66.207031 61.792969zm0 0" fill="#d1d4d1"/><path d="m419.308594 335.449219h-401.652344v-123.585938h401.652344c35.332031-1.175781 64.949218 26.464844 66.207031 61.792969-1.257813 35.328125-30.875 62.96875-66.207031 61.792969zm0 0" fill="#d1d4d1"/><path d="m503.171875 388.414062h-421.753906c-23.191407-.398437-42.96875 16.714844-45.90625 39.722657-1.230469 12.414062 2.84375 24.765625 11.210937 34.011719 8.367188 9.25 20.253906 14.53125 32.726563 14.542968h423.722656c4.875 0 8.828125 3.949219 8.828125 8.824219v17.65625c0 4.875-3.953125 8.828125-8.828125 8.828125h-423.722656c-43.878907 0-79.449219-35.570312-79.449219-79.449219 0-43.878906 35.570312-79.449219 79.449219-79.449219v-17.652343l353.101562 17.652343h70.621094c4.875 0 8.828125 3.953126 8.828125 8.828126v17.65625c0 4.875-3.953125 8.828124-8.828125 8.828124zm0 0" fill="#894b9d"/><g fill="#a5a5a4"><path d="m97.101562 441.378906h-8.824218c-4.875 0-8.828125-3.953125-8.828125-8.828125s3.953125-8.828125 8.828125-8.828125h8.824218c4.878907 0 8.828126 3.953125 8.828126 8.828125s-3.949219 8.828125-8.828126 8.828125zm0 0"/><path d="m361.929688 441.378906h-229.515626c-4.875 0-8.828124-3.953125-8.828124-8.828125s3.953124-8.828125 8.828124-8.828125h229.515626c4.875 0 8.828124 3.953125 8.828124 8.828125s-3.953124 8.828125-8.828124 8.828125zm0 0"/><path d="m459.035156 441.378906h-61.792968c-4.875 0-8.828126-3.953125-8.828126-8.828125s3.953126-8.828125 8.828126-8.828125h61.792968c4.875 0 8.828125 3.953125 8.828125 8.828125s-3.953125 8.828125-8.828125 8.828125zm0 0"/></g><path d="m8.828125 229.515625h421.753906c23.191407-.398437 42.96875 16.71875 45.90625 39.726563 1.230469 12.410156-2.84375 24.761718-11.210937 34.011718-8.367188 9.246094-20.253906 14.527344-32.726563 14.539063h-423.722656c-4.875 0-8.828125 3.953125-8.828125 8.828125v17.65625c0 4.875 3.953125 8.824218 8.828125 8.824218h423.722656c43.878907 0 79.449219-35.566406 79.449219-79.445312s-35.570312-79.449219-79.449219-79.449219h-423.722656c-4.875 0-8.828125 3.953125-8.828125 8.828125v17.65625c0 4.875 3.953125 8.824219 8.828125 8.824219zm0 0" fill="#c03a2b"/><path d="m423.722656 282.484375h-8.824218c-4.878907 0-8.828126-3.953125-8.828126-8.828125s3.949219-8.828125 8.828126-8.828125h8.824218c4.875 0 8.828125 3.953125 8.828125 8.828125s-3.953125 8.828125-8.828125 8.828125zm0 0" fill="#a5a5a4"/><path d="m379.585938 282.484375h-229.515626c-4.875 0-8.828124-3.953125-8.828124-8.828125s3.953124-8.828125 8.828124-8.828125h229.515626c4.875 0 8.828124 3.953125 8.828124 8.828125s-3.953124 8.828125-8.828124 8.828125zm0 0" fill="#a5a5a4"/><path d="m114.757812 282.484375h-61.792968c-4.875 0-8.828125-3.953125-8.828125-8.828125s3.953125-8.828125 8.828125-8.828125h61.792968c4.875 0 8.828126 3.953125 8.828126 8.828125s-3.953126 8.828125-8.828126 8.828125zm0 0" fill="#a5a5a4"/><path d="m397.242188 10.769531v75.5625c-.046876 43.472657-26.234376 82.648438-66.382813 99.3125-13.367187 5.703125-27.753906 8.617188-42.285156 8.5625h-65.941407c-28.613281.003907-56.050781-11.363281-76.28125-31.59375-20.230468-20.230469-31.59375-47.667969-31.59375-76.28125v-75.5625c.023438-5.9375 4.832032-10.7460935 10.769532-10.769531h260.945312c5.9375.0234375 10.746094 4.832031 10.769532 10.769531zm0 0" fill="#e64c3c"/><path d="m203.035156 105.929688h-35.3125c-4.875 0-8.824218-3.949219-8.824218-8.828126v-32.367187c0-1.910156.617187-3.769531 1.761718-5.296875l24.71875-32.953125 24.71875 32.953125c1.144532 1.527344 1.765625 3.386719 1.765625 5.296875v32.367187c0 4.878907-3.953125 8.828126-8.828125 8.828126zm0 0" fill="#fdd7ad"/><path d="m194.207031 0v41.226562c0 4.875-3.953125 8.824219-8.828125 8.824219s-8.828125-3.949219-8.828125-8.824219v-41.226562zm0 0" fill="#a5a5a4"/></svg>