<svg height="512pt" viewBox="0 0 512 512" width="512pt" xmlns="http://www.w3.org/2000/svg"><path d="m79.449219 97.101562h-44.140625c-9.738282.03125-17.625 7.917969-17.652344 17.65625v335.449219h476.6875v-335.449219c-.027344-9.738281-7.914062-17.625-17.652344-17.65625zm0 0" fill="#3f5c6c"/><path d="m458.152344 137.445312c-67.53125 15.535157-247.878906 75.917969-399.539063 295.105469h-5.648437v-291.308593c0-4.875 3.953125-8.828126 8.828125-8.828126h388.414062c3.402344-.015624 6.503907 1.949219 7.945313 5.03125zm0 0" fill="#b0d3f0"/><path d="m459.035156 141.242188v291.308593h-400.421875c151.660157-219.1875 332.007813-279.570312 399.539063-295.105469.5625 1.1875.863281 2.480469.882812 3.796876zm0 0" fill="#90bae1"/><g fill="#3b97d3"><path d="m370.757812 326.25c-3.316406.007812-6.359374-1.847656-7.875-4.800781-20.523437-40.144531-61.808593-65.402344-106.890624-65.402344-45.085938 0-86.371094 25.257813-106.894532 65.402344-2.21875 4.34375-7.542968 6.0625-11.886718 3.84375-4.34375-2.222657-6.066407-7.542969-3.84375-11.886719 23.539062-46.058594 70.898437-75.042969 122.625-75.042969 51.722656 0 99.085937 28.984375 122.621093 75.042969 1.398438 2.734375 1.273438 6-.328125 8.621094-1.605468 2.621094-4.453125 4.222656-7.527344 4.222656zm0 0"/><path d="m330.0625 346.605469c-3.394531-.007813-6.484375-1.964844-7.945312-5.03125-12.097657-25.535157-37.824219-41.8125-66.082032-41.8125-28.253906 0-53.984375 16.277343-66.082031 41.8125-1.210937 3.078125-4.035156 5.21875-7.320313 5.554687-3.289062.335938-6.488281-1.191406-8.292968-3.960937-1.804688-2.769531-1.910156-6.3125-.277344-9.183594 15.027344-31.683594 46.953125-51.875 82.015625-51.875 35.066406 0 66.992187 20.191406 82.019531 51.875 1.300782 2.730469 1.113282 5.9375-.5 8.496094-1.609375 2.558593-4.421875 4.117187-7.445312 4.125zm0 0"/><path d="m289.121094 367.332031c-3.738282-.003906-7.070313-2.359375-8.316406-5.886719-3.710938-10.515624-13.652344-17.546874-24.804688-17.546874s-21.09375 7.03125-24.804688 17.546874c-.976562 3.070313-3.550781 5.367188-6.714843 5.988282-3.160157.621094-6.410157-.53125-8.476563-3.007813-2.0625-2.472656-2.617187-5.875-1.441406-8.878906 6.210938-17.554687 22.8125-29.292969 41.4375-29.292969s35.226562 11.738282 41.4375 29.292969c.960938 2.703125.546875 5.703125-1.105469 8.046875-1.652343 2.34375-4.34375 3.738281-7.210937 3.738281zm0 0"/><path d="m256 388.308594c-2.347656.023437-4.609375-.898438-6.269531-2.558594-1.660157-1.660156-2.582031-3.921875-2.558594-6.269531.015625-.59375.074219-1.183594.175781-1.765625.097656-.554688.277344-1.089844.53125-1.589844.195313-.558594.464844-1.09375.792969-1.589844.324219-.460937.679687-.898437 1.058594-1.3125 3.539062-3.277344 9-3.277344 12.539062 0 .378907.414063.734375.851563 1.058594 1.3125.328125.496094.59375 1.03125.792969 1.589844.257812.5.433594 1.035156.519531 1.589844.109375.582031.171875 1.171875.1875 1.765625-.015625.558593-.074219 1.117187-.1875 1.667969-.074219.585937-.25 1.152343-.519531 1.675781-.195313.566406-.460938 1.101562-.792969 1.597656-.332031.460937-.683594.902344-1.058594 1.324219-1.695312 1.609375-3.933593 2.523437-6.269531 2.5625zm0 0"/></g><path d="m8.828125 432.550781h494.34375c4.875 0 8.828125 3.953125 8.828125 8.828125v35.3125c0 19.5-15.808594 35.308594-35.308594 35.308594h-441.382812c-19.5 0-35.308594-15.808594-35.308594-35.308594v-35.3125c0-4.875 3.953125-8.828125 8.828125-8.828125zm0 0" fill="#2c3e50"/><path d="m315.710938 467.863281h-119.421876c-6.6875 0-12.800781-3.78125-15.792968-9.765625l-12.773438-25.546875h176.554688l-12.773438 25.546875c-2.992187 5.984375-9.105468 9.765625-15.792968 9.765625zm0 0" fill="#547580"/><path d="m0 476.691406h105.929688c4.875 0 8.828124-3.953125 8.828124-8.828125s-3.953124-8.828125-8.828124-8.828125h-105.929688zm0 0" fill="#35495e"/><path d="m150.070312 476.691406h-8.828124c-4.875 0-8.828126-3.953125-8.828126-8.828125s3.953126-8.828125 8.828126-8.828125h8.828124c4.875 0 8.828126 3.953125 8.828126 8.828125s-3.953126 8.828125-8.828126 8.828125zm0 0" fill="#35495e"/><path d="m512 476.691406h-105.929688c-4.875 0-8.828124-3.953125-8.828124-8.828125s3.953124-8.828125 8.828124-8.828125h105.929688zm0 0" fill="#35495e"/><path d="m370.757812 476.691406h-8.828124c-4.875 0-8.828126-3.953125-8.828126-8.828125s3.953126-8.828125 8.828126-8.828125h8.828124c4.875 0 8.828126 3.953125 8.828126 8.828125s-3.953126 8.828125-8.828126 8.828125zm0 0" fill="#35495e"/><path d="m397.242188 10.769531v75.5625c-.046876 43.472657-26.234376 82.648438-66.382813 99.3125-13.367187 5.703125-27.753906 8.617188-42.285156 8.5625h-65.941407c-28.613281.003907-56.050781-11.363281-76.28125-31.59375-20.230468-20.230469-31.59375-47.667969-31.59375-76.28125v-75.5625c.023438-5.9375 4.832032-10.7460935 10.769532-10.769531h260.945312c5.9375.0234375 10.746094 4.832031 10.769532 10.769531zm0 0" fill="#e64c3c"/><path d="m203.035156 105.929688h-35.3125c-4.875 0-8.824218-3.949219-8.824218-8.828126v-32.367187c0-1.910156.617187-3.769531 1.761718-5.296875l24.71875-32.953125 24.71875 32.953125c1.144532 1.527344 1.765625 3.386719 1.765625 5.296875v32.367187c0 4.878907-3.953125 8.828126-8.828125 8.828126zm0 0" fill="#fdd7ad"/><path d="m194.207031 0v41.226562c0 4.875-3.953125 8.824219-8.828125 8.824219s-8.828125-3.949219-8.828125-8.824219v-41.226562zm0 0" fill="#a5a5a4"/><path d="m388.414062 203.035156h-264.828124c-4.875 0-8.828126-3.953125-8.828126-8.828125s3.953126-8.828125 8.828126-8.828125h264.828124c4.875 0 8.828126 3.953125 8.828126 8.828125s-3.953126 8.828125-8.828126 8.828125zm0 0" fill="#c03a2b"/></svg>