<svg height="512pt" viewBox="0 0 512.00229 512" width="512pt" xmlns="http://www.w3.org/2000/svg"><path d="m52.964844 105.933594h406.070312v326.621094h-406.070312zm0 0" fill="#a5a5a4"/><path d="m238.34375 238.347656h35.3125v70.617188h-35.3125zm0 0" fill="#7f6e5d"/><path d="m203.035156 203.035156h105.929688v35.3125c0 4.875-3.953125 8.824219-8.828125 8.824219h-88.273438c-4.875 0-8.828125-3.949219-8.828125-8.824219zm0 0" fill="#d1d4d1"/><path d="m185.378906 167.726562h141.242188v35.308594c0 4.875-3.953125 8.828125-8.828125 8.828125h-123.585938c-4.875 0-8.828125-3.953125-8.828125-8.828125zm0 0" fill="#805333"/><path d="m503.171875 167.726562h-17.65625c-4.875 0-8.824219-3.953124-8.824219-8.828124v-17.65625l-17.65625-52.964844h52.964844v70.621094c0 4.875-3.953125 8.828124-8.828125 8.828124zm0 0" fill="#a5a5a4"/><path d="m88.277344 123.585938h52.964844v44.140624c0 4.875-3.953126 8.828126-8.828126 8.828126h-35.3125c-4.875 0-8.824218-3.953126-8.824218-8.828126zm0 0" fill="#d1d4d1"/><path d="m370.757812 114.761719h52.964844v52.964843c0 4.875-3.949218 8.828126-8.824218 8.828126h-35.3125c-4.875 0-8.828126-3.953126-8.828126-8.828126zm0 0" fill="#d1d4d1"/><path d="m317.546875 311.113281-21.523437 94.957031-40.023438 26.484376-40.023438-26.484376-21.523437-94.957031c-.699219-2.511719-.234375-5.207031 1.269531-7.332031 1.507813-2.128906 3.890625-3.46875 6.492188-3.640625h107.570312c2.601563.171875 4.984375 1.511719 6.492188 3.640625 1.503906 2.125 1.96875 4.820312 1.269531 7.332031zm0 0" fill="#e64c3c"/><path d="m317.792969 370.761719c-8.425781.007812-16.570313-3.011719-22.953125-8.511719-1.917969-1.65625-3.027344-4.058594-3.054688-6.59375l-.476562-46.609375c-.019532-2.355469.902344-4.621094 2.558594-6.292969 1.660156-1.675781 3.914062-2.613281 6.269531-2.613281h17.65625c19.5 0 35.308593 15.808594 35.308593 35.308594s-15.808593 35.3125-35.308593 35.3125zm-8.429688-19.765625c2.585938 1.402344 5.488281 2.128906 8.429688 2.109375 9.75 0 17.65625-7.90625 17.65625-17.65625s-7.90625-17.65625-17.65625-17.65625h-8.738281zm0 0" fill="#e64c3c"/><path d="m8.828125 44.140625h35.308594v52.964844h-35.308594c-4.875 0-8.828125-3.953125-8.828125-8.828125v-35.3125c0-4.875 3.953125-8.824219 8.828125-8.824219zm0 0" fill="#d1d4d1"/><path d="m512 97.105469h-52.964844v-52.964844h44.136719c4.875 0 8.828125 3.949219 8.828125 8.824219zm0 0" fill="#d1d4d1"/><path d="m476.691406 17.65625v123.585938h-132.414062l-17.65625 35.3125h-141.242188l-17.65625-35.3125h-123.585937c-4.875 0-8.828125-3.953126-8.828125-8.828126v-114.757812c0-9.75 7.90625-17.65625 17.65625-17.65625h406.070312c9.75 0 17.65625 7.90625 17.65625 17.65625zm0 0" fill="#cb8252"/><path d="m476.691406 512h-441.382812c-4.875 0-8.824219-3.949219-8.824219-8.828125v-70.617187c0-14.628907 11.855469-26.484376 26.480469-26.484376h406.070312c14.625 0 26.480469 11.855469 26.480469 26.484376v70.617187c0 2.34375-.929687 4.589844-2.582031 6.242187-1.65625 1.65625-3.902344 2.585938-6.242188 2.585938zm0 0" fill="#cb8252"/><path d="m372.277344 467.863281h-240.207032c-5.363281.003907-10.433593 2.441407-13.78125 6.628907l-30.011718 37.507812h335.445312l-38.964844-38.964844c-3.308593-3.308594-7.796874-5.171875-12.480468-5.171875zm0 0" fill="#805333"/><path d="m123.585938 70.621094c0 14.625-11.855469 26.484375-26.484376 26.484375-14.625 0-26.480468-11.859375-26.480468-26.484375s11.855468-26.480469 26.480468-26.480469c14.628907 0 26.484376 11.855469 26.484376 26.480469zm0 0" fill="#805333"/><path d="m238.34375 44.140625-26.480469 52.964844h-44.140625c-4.875 0-8.824218-3.953125-8.824218-8.828125v-35.3125c0-4.875 3.949218-8.824219 8.824218-8.824219zm0 0" fill="#b0d3f0"/><path d="m264.828125 52.964844v35.3125c0 4.875-3.953125 8.828125-8.828125 8.828125h-52.964844l26.480469-52.964844h26.484375c4.875 0 8.828125 3.949219 8.828125 8.824219zm0 0" fill="#90bae1"/><g fill="#805333"><path d="m326.621094 61.792969h-17.65625c-4.875 0-8.828125-3.949219-8.828125-8.828125 0-4.875 3.953125-8.824219 8.828125-8.824219h17.65625c4.875 0 8.828125 3.949219 8.828125 8.824219 0 4.878906-3.953125 8.828125-8.828125 8.828125zm0 0"/><path d="m432.550781 61.792969h-70.621093c-4.875 0-8.828126-3.949219-8.828126-8.828125 0-4.875 3.953126-8.824219 8.828126-8.824219h70.621093c4.875 0 8.828125 3.949219 8.828125 8.824219 0 4.878906-3.953125 8.828125-8.828125 8.828125zm0 0"/><path d="m432.550781 97.105469h-17.652343c-4.878907 0-8.828126-3.953125-8.828126-8.828125s3.949219-8.828125 8.828126-8.828125h17.652343c4.875 0 8.828125 3.953125 8.828125 8.828125s-3.953125 8.828125-8.828125 8.828125zm0 0"/><path d="m379.585938 97.105469h-70.621094c-4.875 0-8.828125-3.953125-8.828125-8.828125s3.953125-8.828125 8.828125-8.828125h70.621094c4.875 0 8.828124 3.953125 8.828124 8.828125s-3.953124 8.828125-8.828124 8.828125zm0 0"/></g><path d="m406.070312 176.554688v59.25c0 3.460937 2.023438 6.597656 5.171876 8.03125l77.957031 35.445312c8.242187 3.71875 14 11.402344 15.261719 20.355469l7.449218 52.214843c.695313 4.824219-2.65625 9.300782-7.484375 9.992188s-9.300781-2.660156-9.992187-7.484375l-7.460938-52.226563c-.417968-2.980468-2.335937-5.542968-5.082031-6.777343l-77.949219-35.445313c-9.457031-4.292968-15.527344-13.722656-15.527344-24.105468v-59.25" fill="#41767f"/><path d="m123.585938 176.554688v61.792968c0 4.875-3.953126 8.824219-8.828126 8.824219s-8.828124-3.949219-8.828124-8.824219v-61.792968" fill="#41767f"/></svg>