<svg height="512pt" viewBox="-31 0 512 512" width="512pt" xmlns="http://www.w3.org/2000/svg"><path d="m80.84375 89.824219h-53.894531l-7.996094-55.953125c-.648437-4.554688-.230469-9.195313 1.222656-13.5625 4.023438-12.125 15.363281-20.31250025 28.140625-20.308594h11.15625c12.757813 0 24.085938 8.160156 28.125 20.265625 1.453125 4.363281 1.871094 9.007813 1.222656 13.5625zm0 0" fill="#7f5b53"/><path d="m197.613281 125.753906h53.894531v46.800782h-53.894531zm0 0" fill="#7f5b53"/><path d="m82.457031 233.542969c35.972657-40.621094 87.847657-63.574219 142.105469-62.875 54.277344-.683594 106.171875 22.265625 142.191406 62.875zm0 0" fill="#e57e25"/><g fill="#f29c1f"><path d="m224.15625 98.808594h-187.820312c-4.960938 0-8.984376-4.023438-8.984376-8.984375 0-4.960938 4.023438-8.980469 8.984376-8.980469h187.820312c4.960938 0 8.984375 4.019531 8.984375 8.980469 0 4.960937-4.023437 8.984375-8.984375 8.984375zm0 0"/><path d="m224.5625 44.914062c9.921875 0 17.964844 8.042969 17.964844 17.964844v22.453125c0 2.480469-2.011719 4.492188-4.492188 4.492188h-31.4375v-26.945313c0-9.921875 8.042969-17.964844 17.964844-17.964844zm0 0"/><path d="m224.5625 134.738281c-4.960938 0-8.984375-4.023437-8.984375-8.984375v-35.929687c0-4.960938 4.023437-8.980469 8.984375-8.980469s8.980469 4.019531 8.980469 8.980469v35.929687c0 4.960938-4.019531 8.984375-8.980469 8.984375zm0 0"/></g><path d="m278.457031 134.738281h-107.789062c-4.960938 0-8.984375-4.023437-8.984375-8.984375 0-4.960937 4.023437-8.980468 8.984375-8.980468h107.789062c4.960938 0 8.980469 4.019531 8.980469 8.980468 0 4.960938-4.019531 8.984375-8.980469 8.984375zm0 0" fill="#af8066"/><path d="m35.929688 260.492188h377.261718v62.875h-377.261718zm0 0" fill="#af8066"/><path d="m35.929688 314.386719h377.261718v161.683593h-377.261718zm0 0" fill="#7f5b53"/><path d="m332.351562 368.28125v107.789062h-215.578124v-107.789062c0-9.921875 8.042968-17.964844 17.964843-17.964844h179.648438c9.921875 0 17.964843 8.042969 17.964843 17.964844zm0 0" fill="#af8066"/><path d="m260.492188 422.175781c0 19.84375-16.085938 35.929688-35.929688 35.929688s-35.929688-16.085938-35.929688-35.929688 16.085938-35.929687 35.929688-35.929687 35.929688 16.085937 35.929688 35.929687zm0 0" fill="#cbb292"/><path d="m71.859375 368.28125c-4.960937 0-8.980469-4.023438-8.980469-8.984375v-8.980469c0-4.960937 4.019532-8.984375 8.980469-8.984375s8.984375 4.023438 8.984375 8.984375v8.980469c0 4.960937-4.023438 8.984375-8.984375 8.984375zm0 0" fill="#e6e7e8"/><path d="m80.84375 458.105469v-62.878907c0-4.960937-4.023438-8.980468-8.984375-8.980468s-8.980469 4.019531-8.980469 8.980468v62.878907zm0 0" fill="#e6e7e8"/><path d="m26.949219 224.5625h395.226562c14.882813 0 26.945313 12.0625 26.945313 26.945312 0 14.882813-12.0625 26.949219-26.945313 26.949219h-395.226562c-14.882813 0-26.949219-12.066406-26.949219-26.949219 0-14.882812 12.066406-26.945312 26.949219-26.945312zm0 0" fill="#f29c1f"/><path d="m26.949219 458.105469h395.226562c14.882813 0 26.945313 12.066406 26.945313 26.945312 0 14.882813-12.0625 26.949219-26.945313 26.949219h-395.226562c-14.882813 0-26.949219-12.066406-26.949219-26.949219 0-14.878906 12.066406-26.945312 26.949219-26.945312zm0 0" fill="#f29c1f"/></svg>