<svg height="512pt" viewBox="0 0 512 512.002" width="512pt" xmlns="http://www.w3.org/2000/svg"><path d="m132.492188 243.332031c-28.835938-14.78125-51.273438-39.597656-63.085938-69.769531h-60.746094c23.742188 39.183594 38.007813 83.371094 41.652344 129.039062 6.597656 74.285157 32.023438 117.152344 82.269531 113.683594zm0 0" fill="#fb7b76"/><path d="m485.945312 173.5625c-.070312 9.554688-7.796874 17.285156-17.355468 17.355469h-312.40625c-9.574219-.03125-17.328125-7.78125-17.355469-17.355469.070313-9.558594 7.800781-17.285156 17.355469-17.355469h312.40625c9.574218.027344 17.328125 7.78125 17.355468 17.355469zm0 0" fill="#c03a2b"/><path d="m172.5 156.207031c29.070312-49.421875 82.5625-79.285156 139.886719-78.101562 57.324219-1.183594 110.816406 28.679687 139.890625 78.101562" fill="#e64c3c"/><path d="m485.945312 494.644531c-.070312 9.558594-7.796874 17.285157-17.355468 17.359375h-312.40625c-9.574219-.03125-17.328125-7.785156-17.355469-17.359375.070313-9.554687 7.800781-17.285156 17.355469-17.355469h312.40625c9.574218.03125 17.328125 7.785157 17.355468 17.355469zm0 0" fill="#c03a2b"/><path d="m169.113281 190.917969c-37.617187 38.746093-57.90625 91.101562-56.21875 145.078125 1.683594 53.980468 25.195313 104.96875 65.160157 141.292968h268.667968c39.960938-36.324218 63.476563-87.3125 65.160156-141.292968 1.683594-53.976563-18.601562-106.332032-56.222656-145.078125zm0 0" fill="#e64c3c"/><path d="m468.789062 390.511719c-2.789062-.003907-5.40625-1.34375-7.039062-3.609375-1.628906-2.265625-2.070312-5.175782-1.1875-7.820313 1.800781-5.410156 3.304688-10.914062 4.515625-16.488281 1.105469-4.582031 5.667969-7.445312 10.273437-6.445312 4.609376 1 7.574219 5.496093 6.683594 10.125-1.339844 6.160156-3.015625 12.246093-5.019531 18.222656-1.152344 3.574218-4.46875 6-8.226563 6.015625zm0 0" fill="#fdd7ad"/><path d="m477.269531 338.441406c-4.792969 0-8.679687-3.882812-8.679687-8.675781.167968-35.976563-12.269532-70.875-35.152344-98.632813-3.039062-3.71875-2.488281-9.195312 1.226562-12.234374 3.71875-3.039063 9.195313-2.488282 12.230469 1.230468 25.25 30.960938 39.042969 69.683594 39.050781 109.636719 0 4.792969-3.882812 8.675781-8.675781 8.675781zm0 0" fill="#fdd7ad"/><path d="m347.101562 43.390625c0 19.171875-15.542968 34.714844-34.714843 34.714844-19.167969 0-34.710938-15.542969-34.710938-34.714844 0-19.167969 15.542969-34.710937 34.710938-34.710937 19.171875 0 34.714843 15.542968 34.714843 34.710937zm0 0" fill="#e64c3c"/><g fill="#cbb292"><path d="m12.761719 138.847656c-3.003907 0-5.796875-1.558594-7.375-4.113281-1.582031-2.558594-1.726563-5.753906-.382813-8.441406l3.542969-7.089844c1.394531-2.789063.851563-6.160156-1.355469-8.367187-8.273437-8.304688-9.558594-21.289063-3.070312-31.058594l5.710937-8.574219c2.722657-4.089844 5.191407-8.347656 7.390625-12.746094 1.398438-2.789062.851563-6.160156-1.351562-8.367187-8.273438-8.304688-9.558594-21.289063-3.074219-31.058594l10.109375-15.167969c2.660156-3.988281 8.050781-5.0625 12.039062-2.402343 3.988282 2.660156 5.0625 8.046874 2.402344 12.035156l-10.109375 15.144531c-1.925781 2.867187-1.5625 6.695313.867188 9.152344 7.519531 7.480469 9.390625 18.9375 4.644531 28.421875-2.519531 5.039062-5.347656 9.917968-8.472656 14.605468l-5.71875 8.582032c-1.921875 2.871094-1.5625 6.699218.871094 9.15625 7.496093 7.484375 9.351562 18.929687 4.605468 28.402344l-3.539062 7.089843c-1.464844 2.929688-4.457032 4.785157-7.734375 4.796875zm0 0"/><path d="m52.046875 138.847656c-3.003906 0-5.796875-1.558594-7.375-4.113281-1.582031-2.558594-1.726563-5.753906-.382813-8.441406l3.550782-7.089844c1.398437-2.792969.847656-6.167969-1.363282-8.375-8.277343-8.300781-9.574218-21.273437-3.105468-31.050781l5.71875-8.574219c2.722656-4.09375 5.191406-8.351563 7.394531-12.746094 1.398437-2.792969.847656-6.167969-1.363281-8.375-8.265625-8.308593-9.550782-21.28125-3.074219-31.050781l10.136719-15.167969c1.722656-2.578125 4.6875-4.042969 7.78125-3.8437498 3.09375.1992188 5.847656 2.0351568 7.222656 4.8164068 1.371094 2.78125 1.15625 6.082031-.5625 8.660156l-10.109375 15.144531c-1.914063 2.871094-1.554687 6.691406.867187 9.152344 7.515626 7.488281 9.378907 18.949219 4.625 28.429687-2.523437 5.039063-5.351562 9.917969-8.476562 14.605469l-5.71875 8.574219c-1.917969 2.871094-1.554688 6.695312.867188 9.15625 7.515624 7.476562 9.390624 18.929687 4.652343 28.410156l-3.542969 7.082031c-1.464843 2.933594-4.460937 4.789063-7.742187 4.796875zm0 0"/></g></svg>