<svg height="512pt" viewBox="-35 0 512 512.02516" width="512pt" xmlns="http://www.w3.org/2000/svg"><path d="m344.261719 459.058594c.882812 30.519531-34.292969 52.964844-62.144531 52.964844-23.039063 0-61.078126-24.222657-79.09375-35.308594l26.480468-35.308594zm0 0" fill="#4fba6f"/><path d="m120.121094 462.210938 46.699218 39.722656c1.582032 1.40625 3.882813 1.65625 5.730469.621094l43.414063-24.71875 27.664062-15.625zm0 0" fill="#f0c419"/><path d="m414.265625 351.273438c11.59375 10.617187 18.21875 25.59375 18.273437 41.316406-.894531 32.828125-28.164062 58.757812-61 57.996094h-1.058593l-26.21875-88.628907zm0 0" fill="#e64c3c"/><path d="m397.230469 117.785156c21.011719 8.34375 34.941406 28.507813 35.308593 51.113282-.988281 28.992187-23.222656 52.8125-52.082031 55.789062l-62.675781-3.972656 8.828125-88.277344zm0 0" fill="#24ae5f"/><path d="m251.804688 40.472656c12.226562-15.851562 32.574218-23.121094 52.082031-18.605468 19.503906 4.515624 34.589843 19.984374 38.609375 39.597656l-95.335938 26.835937zm0 0" fill="#e64c3c"/><path d="m22.9375 274.476562c-.917969.558594-1.804688 1.179688-2.648438 1.851563-10.148437 7.414063-28.6875 26.128906-15.976562 51.378906 8.738281 17.210938 10.417969 24.890625 15.714844 37.339844l68.234375-20.746094zm0 0" fill="#24ae5f"/><path d="m70.609375 449.878906c-2.796875.511719-5.632813.75-8.476563.707032-29.382812.015624-53.234374-23.757813-53.316406-53.144532-.015625-11.75 3.933594-23.164062 11.210938-32.394531.359375-.59375.773437-1.15625 1.234375-1.679687 9.644531-11.53125 23.730469-18.429688 38.753906-18.976563l54.730469 8.738281zm0 0" fill="#e64c3c"/><path d="m21.96875 232.445312c-4.6875-15.59375-5.652344-32.070312-2.824219-48.109374 9.53125-20.480469-9.625-40.960938-9.625-71.679688 0-24.804688 24.984375-22.863281 34.605469-21.273438l79.449219 94.023438zm0 0" fill="#4fba6f"/><path d="m179.71875 28.386719s-19.757812-32.148438-49.355469-10.707031c-20.375 14.742187-19.660156 19.351562-30.414062 20.789062-7.242188.847656-13.96875 4.175781-19.039063 9.417969-3.953125 3.703125-6.824218 8.410156-8.296875 13.621093l86.269531 9.136719zm0 0" fill="#24ae5f"/><path d="m397.230469 82.121094v38.84375c-.167969 11.324218-9.445313 20.394531-20.773438 20.300781h-5.710937v306.316406c-.164063 11.328125-9.441406 20.398438-20.769532 20.304688h-258.597656c-11.328125.09375-20.605468-8.976563-20.769531-20.304688v-306.316406h-5.710937c-11.328126.09375-20.609376-8.976563-20.773438-20.300781v-38.84375c.164062-11.328125 9.445312-20.394532 20.773438-20.304688h311.558593c11.328125-.089844 20.605469 8.976563 20.773438 20.304688zm0 0" fill="#e4c05c"/><path d="m148.695312 61.464844 31.535157-32.566406 26.621093-27.363282c.9375-.980468 2.230469-1.535156 3.585938-1.535156s2.648438.554688 3.582031 1.535156l37.785157 38.910156 20.382812 21.019532zm0 0" fill="#f0c419"/><path d="m370.746094 208.523438 10.054687 16.683593h.089844l59.769531 98.789063c1.28125 2.136718.785156 4.894531-1.164062 6.445312l-31.78125 26.304688-36.96875 30.535156zm0 0" fill="#f29c1f"/><path d="m70.609375 186.542969-48.828125 45.902343-11.359375 10.683594c-1.65625 1.503906-2.082031 3.9375-1.03125 5.914063l13.546875 25.421875.089844.265625 39.0625 73.445312 8.519531 16.066407zm0 0" fill="#f29c1f"/><g fill="#805333"><path d="m158.882812 432.578125c-.589843-.015625-1.179687-.074219-1.765624-.179687-.550782-.09375-1.085938-.273438-1.585938-.527344-.566406-.195313-1.097656-.464844-1.589844-.804688l-1.324218-1.050781c-3.414063-3.488281-3.414063-9.0625 0-12.550781l1.324218-1.070313c.492188-.332031 1.027344-.601562 1.589844-.792969.5-.253906 1.035156-.433593 1.585938-.53125 2.910156-.550781 5.902343.34375 8.035156 2.394532 2.558594 2.523437 3.332031 6.347656 1.957031 9.667968-1.378906 3.320313-4.632813 5.472657-8.226563 5.445313zm0 0"/><path d="m114.746094 388.4375c-.59375-.011719-1.183594-.074219-1.765625-.175781-.554688-.09375-1.089844-.273438-1.589844-.527344-.5625-.199219-1.097656-.46875-1.589844-.804687l-1.320312-1.050782c-3.414063-3.488281-3.414063-9.0625 0-12.554687l1.320312-1.066407c.492188-.335937 1.027344-.601562 1.589844-.792968.5-.257813 1.035156-.433594 1.589844-.53125 2.90625-.550782 5.902343.339844 8.035156 2.390625 2.558594 2.527343 3.332031 6.347656 1.953125 9.667969-1.375 3.320312-4.628906 5.476562-8.222656 5.445312zm0 0"/><path d="m114.746094 335.472656c-.59375-.015625-1.183594-.074218-1.765625-.175781-.554688-.097656-1.089844-.273437-1.589844-.53125-.5625-.195313-1.097656-.464844-1.589844-.800781l-1.320312-1.050782c-3.414063-3.488281-3.414063-9.066406 0-12.554687l1.320312-1.066406c.492188-.335938 1.027344-.601563 1.589844-.796875.5-.253906 1.035156-.433594 1.589844-.527344 2.90625-.550781 5.902343.339844 8.035156 2.390625 2.558594 2.523437 3.332031 6.347656 1.953125 9.667969-1.375 3.320312-4.628906 5.472656-8.222656 5.445312zm0 0"/><path d="m211.847656 432.578125c-.589844-.015625-1.179687-.074219-1.761718-.179687-.554688-.09375-1.089844-.273438-1.589844-.527344-.5625-.195313-1.097656-.464844-1.589844-.804688l-1.324219-1.050781c-3.410156-3.488281-3.410156-9.0625 0-12.550781l1.324219-1.070313c.492188-.332031 1.027344-.601562 1.589844-.792969.5-.253906 1.035156-.433593 1.589844-.53125 2.90625-.550781 5.898437.34375 8.03125 2.394532 2.558593 2.523437 3.332031 6.347656 1.957031 9.667968-1.378907 3.320313-4.628907 5.472657-8.226563 5.445313zm0 0"/><path d="m167.710938 388.4375c-.589844-.011719-1.179688-.074219-1.765626-.175781-.550781-.09375-1.089843-.273438-1.589843-.527344-.5625-.199219-1.09375-.46875-1.585938-.804687l-1.324219-1.050782c-3.414062-3.488281-3.414062-9.0625 0-12.554687l1.324219-1.066407c.492188-.335937 1.023438-.601562 1.585938-.792968.5-.257813 1.039062-.433594 1.589843-.53125 2.90625-.550782 5.902344.339844 8.035157 2.390625 2.558593 2.527343 3.332031 6.347656 1.953125 9.667969-1.375 3.320312-4.628906 5.476562-8.222656 5.445312zm0 0"/><path d="m114.746094 432.578125c-.59375-.015625-1.183594-.074219-1.765625-.179687-.554688-.09375-1.089844-.273438-1.589844-.527344-.5625-.195313-1.097656-.464844-1.589844-.804688l-1.320312-1.050781c-3.414063-3.488281-3.414063-9.0625 0-12.550781l1.320312-1.070313c.492188-.332031 1.027344-.601562 1.589844-.792969.5-.253906 1.035156-.433593 1.589844-.53125 2.90625-.550781 5.902343.34375 8.035156 2.394532 2.558594 2.523437 3.332031 6.347656 1.953125 9.667968-1.375 3.320313-4.628906 5.472657-8.222656 5.445313zm0 0"/></g></svg>