<svg height="512pt" viewBox="0 0 512 512.00393" width="512pt" xmlns="http://www.w3.org/2000/svg"><path d="m224.664062 512h-142.820312c-7.4375.128906-14.574219-2.925781-19.617188-8.390625-5.039062-5.46875-7.507812-12.828125-6.777343-20.226563 2.601562-31.515624 6.347656-80.773437 6.347656-103.796874 1.292969-42.730469-7.792969-85.136719-26.484375-123.585938-11.128906-24.71875-19.023438-50.769531-23.480469-77.507812v-.085938c-3.621093-18.714844-6.269531-37.253906-8.210937-53.320312-2.472656-20.921876-3.61718775-86.066407-3.61718775-107.164063v-13.507813c0-2.4375 1.97265575-4.414062 4.41015575-4.414062h279.21875c2.4375 0 4.414063 1.976562 4.414063 4.414062v57.820313c.039063 21.003906-1.171875 41.992187-3.621094 62.851563-1.851562 15.539062-4.414062 33.457031-7.855469 51.554687" fill="#90bae1"/><path d="m249.371094 120.9375c1.492187-12.660156 2.585937-33.773438 3.082031-58.898438.066406-2.378906-.832031-4.6875-2.488281-6.394531-1.660156-1.710937-3.941406-2.675781-6.320313-2.679687h-199.222656c-2.375 0-4.652344.957031-6.3125 2.65625-1.664063 1.699218-2.570313 4-2.515625 6.375.488281 25.132812 1.589844 46.246094 3.089844 58.941406zm0 0" fill="#fdd7ad"/><path d="m203.035156 476.691406h-95.019531c-5.007813.015625-9.785156-2.101562-13.140625-5.824218-3.351562-3.722657-4.957031-8.699219-4.417969-13.675782 2.613281-24.039062 6.648438-63.480468 6.648438-77.605468.734375-49.070313-10.058594-97.632813-31.515625-141.769532-8.851563-19.492187-15.113282-40.058594-18.625-61.175781-.351563-2.03125-3.707032-21.097656-4.324219-25.777344-1.414063-9.269531-2.738281-19.15625-3.972656-29.925781-.265625-2.292969-.53125-4.324219-.707031-6.179688h.175781c54.554687-.96875 54.378906-17.65625 108.933593-17.65625 52.433594 0 54.289063 15.449219 102.929688 17.480469l.175781.175781c-.265625 1.855469-.53125 3.886719-.792969 6.179688-1.238281 10.769531-2.5625 20.65625-3.972656 29.925781-.621094 4.679688-1.324218 9.09375-2.121094 13.417969-.351562 2.207031-.703124 4.238281-1.058593 6.269531-.351563 2.027344-.707031 4.148438-1.148438 6.089844-.617187 3.089844-1.234375 6.003906-1.851562 8.914063zm0 0" fill="#805333"/><path d="m97.105469 220.691406c-3.507813-.003906-6.683594-2.082031-8.085938-5.296875-8.367187-20.488281-14.480469-41.828125-18.230469-63.640625-.703124-3.132812.351563-6.402344 2.753907-8.535156 2.402343-2.132812 5.773437-2.792969 8.800781-1.722656 3.027344 1.070312 5.238281 3.699218 5.765625 6.871094 3.546875 20.535156 9.273437 40.640624 17.082031 59.964843 1.191406 2.726563.925782 5.871094-.703125 8.363281-1.628906 2.492188-4.40625 3.992188-7.382812 3.996094zm0 0" fill="#fff"/><path d="m150.070312 414.898438c-1.15625.027343-2.304687-.214844-3.355468-.707032-1.066406-.449218-2.054688-1.074218-2.910156-1.855468-1.628907-1.683594-2.542969-3.925782-2.5625-6.265626.015624-1.15625.253906-2.292968.707031-3.355468.804687-2.21875 2.550781-3.964844 4.765625-4.765625 3.289062-1.382813 7.085937-.652344 9.625 1.851562.777344.859375 1.40625 1.84375 1.851562 2.914063.496094 1.046875.738282 2.195312.707032 3.355468-.015626.589844-.074219 1.179688-.175782 1.765626-.097656.550781-.273437 1.085937-.53125 1.585937-.191406.5625-.460937 1.097656-.792968 1.589844l-1.058594 1.324219-1.324219 1.058593c-.492187.335938-1.027344.601563-1.589844.796875-.5.253906-1.035156.433594-1.589843.527344-.582032.105469-1.171876.164062-1.765626.179688zm0 0" fill="#fff"/><path d="m132.414062 379.585938c-1.15625.03125-2.304687-.210938-3.351562-.707032-1.070312-.445312-2.054688-1.074218-2.914062-1.851562-1.625-1.683594-2.542969-3.929688-2.558594-6.269532.011718-1.152343.253906-2.292968.703125-3.355468.804687-2.214844 2.550781-3.960938 4.769531-4.765625 3.285156-1.382813 7.082031-.652344 9.621094 1.855469.777344.859374 1.40625 1.84375 1.855468 2.910156.492188 1.050781.734376 2.199218.703126 3.355468-.015626.59375-.074219 1.183594-.175782 1.765626-.097656.554687-.273437 1.089843-.527344 1.589843-.195312.5625-.460937 1.097657-.796874 1.589844l-1.058594 1.324219-1.324219 1.058594c-.492187.332031-1.027344.601562-1.589844.792968-.5.257813-1.035156.433594-1.589843.53125-.582032.101563-1.171876.160156-1.765626.175782zm0 0" fill="#fff"/><path d="m132.414062 450.207031c-1.15625.03125-2.304687-.210937-3.351562-.707031-1.070312-.445312-2.054688-1.074219-2.914062-1.851562-1.625-1.683594-2.542969-3.929688-2.558594-6.269532.011718-1.152344.253906-2.292968.703125-3.355468.804687-2.214844 2.550781-3.960938 4.769531-4.765626 3.285156-1.382812 7.082031-.652343 9.621094 1.855469.777344.855469 1.40625 1.84375 1.855468 2.910157.492188 1.050781.734376 2.199218.703126 3.355468-.015626.59375-.074219 1.183594-.175782 1.765625-.097656.554688-.273437 1.089844-.527344 1.589844-.195312.5625-.460937 1.097656-.796874 1.589844l-1.058594 1.324219-1.324219 1.058593c-.492187.332031-1.027344.601563-1.589844.792969-.5.253906-1.035156.433594-1.589843.53125-.582032.101562-1.171876.160156-1.765626.175781zm0 0" fill="#fff"/><path d="m211.863281 158.898438c-1.15625.027343-2.304687-.214844-3.355469-.707032-1.066406-.449218-2.054687-1.074218-2.910156-1.855468-1.628906-1.683594-2.542968-3.925782-2.5625-6.265626.015625-1.15625.253906-2.292968.707032-3.355468.804687-2.21875 2.550781-3.964844 4.765624-4.765625 3.289063-1.382813 7.085938-.652344 9.625 1.851562.777344.859375 1.40625 1.84375 1.851563 2.914063.496094 1.046875.738281 2.195312.707031 3.355468-.015625.589844-.074218 1.179688-.175781 1.765626-.097656.550781-.273437 1.085937-.53125 1.585937-.191406.5625-.460937 1.097656-.792969 1.589844l-1.058594 1.324219-1.324218 1.058593c-.492188.335938-1.027344.601563-1.589844.796875-.5.253906-1.035156.433594-1.589844.527344-.582031.105469-1.171875.164062-1.765625.179688zm0 0" fill="#fff"/><path d="m176.554688 158.898438c-1.160157.027343-2.308594-.214844-3.355469-.707032-1.070313-.449218-2.054688-1.074218-2.914063-1.855468-1.625-1.683594-2.542968-3.925782-2.558594-6.265626.011719-1.15625.253907-2.292968.707032-3.355468.800781-2.21875 2.546875-3.964844 4.765625-4.765625 3.289062-1.382813 7.082031-.652344 9.621093 1.851562.78125.859375 1.40625 1.84375 1.855469 2.914063.492188 1.046875.734375 2.195312.707031 3.355468-.015624.589844-.074218 1.179688-.179687 1.765626-.09375.550781-.273437 1.085937-.527344 1.585937-.195312.5625-.460937 1.097656-.796875 1.589844l-1.058594 1.324219-1.324218 1.058593c-.492188.335938-1.023438.601563-1.589844.796875-.5.253906-1.035156.433594-1.585938.527344-.585937.105469-1.175781.164062-1.765624.179688zm0 0" fill="#fff"/><path d="m194.207031 185.378906c-1.15625.03125-2.304687-.210937-3.351562-.707031-1.070313-.445313-2.054688-1.074219-2.914063-1.851563-1.625-1.683593-2.542968-3.929687-2.558594-6.269531.011719-1.152343.253907-2.292969.703126-3.355469.804687-2.214843 2.550781-3.960937 4.769531-4.765624 3.285156-1.382813 7.082031-.648438 9.621093 1.855468.777344.859375 1.40625 1.84375 1.855469 2.910156.492188 1.050782.734375 2.199219.703125 3.355469-.015625.59375-.074218 1.183594-.175781 1.765625-.09375.554688-.273437 1.089844-.527344 1.589844-.195312.5625-.460937 1.097656-.796875 1.589844l-1.058594 1.324218-1.324218 1.058594c-.492188.335938-1.027344.601563-1.589844.792969-.5.257813-1.035156.433594-1.589844.53125-.582031.101563-1.171875.160156-1.765625.175781zm0 0" fill="#fff"/><path d="m494.347656 300.136719c15.199219-11.398438 21.398438-31.242188 15.390625-49.265625-6.007812-18.023438-22.875-30.179688-41.875-30.179688-3.507812 0-7.003906.417969-10.414062 1.234375-6.398438-33.738281-31.78125-60.703125-65.070313-69.128906-33.289062-8.425781-68.441406 3.214844-90.121094 29.847656-8.988281-4.054687-18.742187-6.128906-28.601562-6.09375-30.8125-.003906-58.070312 19.964844-67.355469 49.347657-6.445312-3.414063-13.625-5.203126-20.917969-5.207032-19 0-35.867187 12.15625-41.875 30.179688-6.007812 18.023437.191407 37.867187 15.390626 49.265625l158.898437 44.140625zm0 0" fill="#ff5364"/><path d="m388.414062 211.863281c-4.875 0-8.824218-3.953125-8.824218-8.828125s-3.953125-8.828125-8.828125-8.828125-8.828125-3.953125-8.828125-8.828125 3.953125-8.828125 8.828125-8.828125c14.625 0 26.480469 11.859375 26.480469 26.484375 0 4.875-3.949219 8.828125-8.828126 8.828125zm0 0" fill="#fb7b76"/><path d="m280.976562 225.863281c-2.34375 0-4.585937-.929687-6.242187-2.585937-1.65625-1.660156-3.902344-2.589844-6.246094-2.589844s-4.589843.929688-6.246093 2.589844c-3.460938 3.34375-8.96875 3.296875-12.375-.109375-3.402344-3.40625-3.453126-8.910157-.105469-12.375 4.964843-4.964844 11.703125-7.757813 18.726562-7.757813 7.023438 0 13.761719 2.792969 18.726563 7.757813 2.523437 2.527343 3.28125 6.320312 1.914062 9.621093-1.367187 3.296876-4.582031 5.449219-8.152344 5.449219zm0 0" fill="#fb7b76"/><path d="m234.507812 273.65625c-6.898437.015625-13.523437-2.679688-18.449218-7.503906-2.367188-2.175782-3.367188-5.464844-2.609375-8.585938.761719-3.125 3.15625-5.585937 6.257812-6.433594 3.101563-.84375 6.417969.0625 8.65625 2.367188 3.496094 3.398438 9.082031 3.320312 12.480469-.175781 3.402344-3.496094 8.992188-3.570313 12.488281-.171875 3.496094 3.402344 3.574219 8.992187.171875 12.488281-4.886718 5.046875-11.589844 7.933594-18.617187 8.015625zm0 0" fill="#fb7b76"/><path d="m343.394531 264.828125c-2.835937 0-5.5-1.363281-7.160156-3.664063-1.660156-2.300781-2.113281-5.261718-1.214844-7.953124 1.539063-4.625-.957031-9.625-5.582031-11.167969-4.628906-1.539063-7.136719-6.542969-5.59375-11.175781 1.539062-4.632813 6.542969-7.136719 11.175781-5.597657 6.667969 2.21875 12.179688 6.992188 15.324219 13.277344 3.148438 6.28125 3.667969 13.558594 1.445312 20.226563-1.195312 3.617187-4.582031 6.058593-8.394531 6.054687zm0 0" fill="#fb7b76"/><path d="m423.886719 273.65625c-1.105469-.003906-2.207031-.070312-3.304688-.203125-3.128906-.390625-5.8125-2.421875-7.039062-5.328125-1.226563-2.90625-.808594-6.246094 1.09375-8.761719 1.90625-2.515625 5.007812-3.824219 8.136719-3.433593 4.835937.601562 9.246093-2.828126 9.851562-7.664063.320312-3.1875 2.34375-5.949219 5.285156-7.21875 2.941406-1.265625 6.339844-.84375 8.878906 1.113281 2.539063 1.953125 3.820313 5.128906 3.347657 8.296875-1.652344 13.242188-12.90625 23.183594-26.25 23.199219zm0 0" fill="#fb7b76"/><path d="m218.757812 512h215.730469c4.046875 0 7.578125-2.753906 8.5625-6.683594l51.296875-205.179687h-335.449218l51.296874 205.179687c.984376 3.929688 4.515626 6.683594 8.5625 6.683594zm0 0" fill="#fdd7ad"/><g fill="#cbb292"><path d="m432.554688 370.757812c-4.875 0-8.828126-3.953124-8.828126-8.828124v-26.480469c0-4.875 3.953126-8.828125 8.828126-8.828125s8.828124 3.953125 8.828124 8.828125v26.480469c0 4.875-3.953124 8.828124-8.828124 8.828124zm0 0"/><path d="m397.242188 370.757812c-4.875 0-8.828126-3.953124-8.828126-8.828124v-26.480469c0-4.875 3.953126-8.828125 8.828126-8.828125s8.828124 3.953125 8.828124 8.828125v26.480469c0 4.875-3.953124 8.828124-8.828124 8.828124zm0 0"/><path d="m361.933594 370.757812c-4.875 0-8.828125-3.953124-8.828125-8.828124v-26.480469c0-4.875 3.953125-8.828125 8.828125-8.828125s8.828125 3.953125 8.828125 8.828125v26.480469c0 4.875-3.953125 8.828124-8.828125 8.828124zm0 0"/><path d="m326.621094 370.757812c-4.875 0-8.824219-3.953124-8.824219-8.828124v-26.480469c0-4.875 3.949219-8.828125 8.824219-8.828125s8.828125 3.953125 8.828125 8.828125v26.480469c0 4.875-3.953125 8.828124-8.828125 8.828124zm0 0"/><path d="m291.3125 370.757812c-4.875 0-8.828125-3.953124-8.828125-8.828124v-26.480469c0-4.875 3.953125-8.828125 8.828125-8.828125s8.828125 3.953125 8.828125 8.828125v26.480469c0 4.875-3.953125 8.828124-8.828125 8.828124zm0 0"/><path d="m256.003906 370.757812c-4.878906 0-8.828125-3.953124-8.828125-8.828124v-26.480469c0-4.875 3.949219-8.828125 8.828125-8.828125 4.875 0 8.824219 3.953125 8.824219 8.828125v26.480469c0 4.875-3.949219 8.828124-8.824219 8.828124zm0 0"/><path d="m220.691406 370.757812c-4.875 0-8.828125-3.953124-8.828125-8.828124v-26.480469c0-4.875 3.953125-8.828125 8.828125-8.828125s8.828125 3.953125 8.828125 8.828125v26.480469c0 4.875-3.953125 8.828124-8.828125 8.828124zm0 0"/><path d="m406.070312 512v-114.757812c0-4.875-3.953124-8.828126-8.828124-8.828126s-8.828126 3.953126-8.828126 8.828126v114.757812zm0 0"/><path d="m370.761719 512v-114.757812c0-4.875-3.953125-8.828126-8.828125-8.828126s-8.828125 3.953126-8.828125 8.828126v114.757812zm0 0"/><path d="m335.449219 512v-114.757812c0-4.875-3.953125-8.828126-8.828125-8.828126s-8.824219 3.953126-8.824219 8.828126v114.757812zm0 0"/><path d="m300.140625 512v-114.757812c0-4.875-3.953125-8.828126-8.828125-8.828126s-8.828125 3.953126-8.828125 8.828126v114.757812zm0 0"/><path d="m264.828125 512v-114.757812c0-4.875-3.949219-8.828126-8.824219-8.828126-4.878906 0-8.828125 3.953126-8.828125 8.828126v114.757812zm0 0"/></g></svg>