<svg height="512pt" viewBox="-4 0 512 512.00018" width="512pt" xmlns="http://www.w3.org/2000/svg"><path d="m329.761719 338.441406c-4.792969 0-8.675781-3.886718-8.675781-8.679687v-52.066407c0-4.792968 3.882812-8.679687 8.675781-8.679687s8.679687 3.886719 8.679687 8.679687v52.066407c0 4.792969-3.886718 8.679687-8.679687 8.679687zm0 0" fill="#cbb292"/><path d="m355.796875 251.660156c0 14.378906-11.65625 26.035156-26.035156 26.035156-14.378907 0-26.03125-11.65625-26.03125-26.035156s11.652343-26.03125 26.03125-26.03125c14.378906 0 26.035156 11.652344 26.035156 26.03125zm0 0" fill="#4c8056"/><path d="m24.730469 249.230469 25.253906 228.058593 158.285156 26.03125h17.359375l10.238282-43.386718 6.769531-34.714844 8.503906-43.386719 10.238281-52.070312 9.199219-82.785157-244.542969-38.707031zm0 0" fill="#f29c1f"/><path d="m19.179688 199.59375h147.785156l-6.683594 39.570312c-5.988281-.695312-12.0625-1.386718-18.222656-2.082031-39.523438-4.929687-79.652344-.773437-117.328125 12.148438zm0 0" fill="#9fc9d3"/><path d="m275.871094 199.59375-5.292969 47.382812c-1.648437.085938-3.382813.085938-5.117187.085938-29.363282-.441406-58.679688-2.46875-87.824219-6.074219l6.769531-39.917969c.074219-.488281.101562-.984374.085938-1.476562zm0 0" fill="#9fc9d3"/><path d="m260.339844 164.882812-112.8125 17.355469-112.816406-17.355469c.03125-33.867187 15.261718-65.933593 41.496093-87.355468 26.230469-21.421875 60.691407-29.9375 93.882813-23.203125-10.207032 18.222656-4.265625 41.25 13.484375 52.261719 17.746093 11.011718 41.019531 6.109374 52.8125-11.128907 15.5625 19.789063 24.003906 44.25 23.953125 69.425781zm0 0" fill="#9fc9d3"/><path d="m184.492188 199.59375c.015624.492188-.011719.988281-.085938 1.476562l-6.769531 39.917969c-5.726563-.609375-11.453125-1.214843-17.355469-1.824219l6.683594-39.570312zm0 0" fill="#8697cb"/><path d="m177.636719 240.988281-7.980469 46.859375c-.742188 4.167969-4.363281 7.203125-8.59375 7.203125-.492188.011719-.984375-.015625-1.476562-.085937-4.71875-.855469-7.882813-5.332032-7.113282-10.066406l7.808594-45.734376c5.902344.609376 11.628906 1.214844 17.355469 1.824219zm0 0" fill="#e57e25"/><path d="m184.492188 199.59375h-17.527344l.257812-1.476562c.636719-4.570313 4.738282-7.847657 9.335938-7.453126 4.597656.390626 8.085937 4.316407 7.933594 8.929688zm0 0" fill="#8697cb"/><path d="m236.386719 95.457031c-11.792969 17.238281-35.066407 22.140625-52.8125 11.128907-17.75-11.011719-23.691407-34.039063-13.484375-52.261719 26.296875 5.367187 49.808594 19.957031 66.296875 41.132812zm0 0" fill="#b0d3f0"/><path d="m199.59375 512h-130.171875c-8.851563.007812-16.292969-6.648438-17.265625-15.445312l-2.171875-19.265626h140.929687v21.695313c0 7.203125 3.90625 13.015625 8.679688 13.015625zm0 0" fill="#90bae1"/><g fill="#f0c419"><path d="m120.078125 333.234375-21.054687 21.050781c-.925782.953125-2.199219 1.492188-3.527344 1.492188s-2.601563-.539063-3.527344-1.492188l-21.050781-21.050781c-.953125-.925781-1.492188-2.199219-1.492188-3.527344s.539063-2.601562 1.492188-3.527343l21.070312-21.035157c1.972657-1.882812 5.078125-1.882812 7.054688 0l21.050781 21.050781c1.867188 1.976563 1.859375 5.070313-.015625 7.039063zm0 0"/><path d="m174.339844 397.796875-14.578125-14.578125c-1.988281-1.820312-5.039063-1.820312-7.03125 0l-21.085938 21.085938c-.957031.921874-1.496093 2.191406-1.496093 3.515624 0 1.328126.539062 2.597657 1.496093 3.515626l21.085938 21.085937c.921875.957031 2.191406 1.496094 3.515625 1.496094 1.328125 0 2.597656-.539063 3.515625-1.496094l17.269531-17.269531zm0 0"/><path d="m156.203125 355.796875c-3.523437.019531-6.710937-2.09375-8.066406-5.351563-1.351563-3.253906-.597657-7.003906 1.90625-9.488281.828125-.785156 1.800781-1.402343 2.863281-1.820312 2.113281-.871094 4.480469-.871094 6.59375 0 1.0625.417969 2.035156 1.035156 2.863281 1.820312.375.414063.722657.847657 1.042969 1.300781.328125.484376.589844 1.011719.78125 1.5625.25.492188.425781 1.019532.519531 1.5625.230469 1.144532.230469 2.324219 0 3.472657-.09375.542969-.269531 1.070312-.519531 1.5625-.191406.550781-.453125 1.078125-.78125 1.558593-.320312.457032-.667969.890626-1.042969 1.304688-1.664062 1.582031-3.863281 2.480469-6.160156 2.515625zm0 0"/><path d="m216.949219 295.007812c-3.527344.019532-6.714844-2.09375-8.066407-5.351562-1.351562-3.253906-.597656-7.003906 1.90625-9.488281.828126-.785157 1.800782-1.402344 2.863282-1.820313 2.113281-.871094 4.480468-.871094 6.59375 0 1.0625.417969 2.035156 1.035156 2.863281 1.820313.375.414062.722656.847656 1.042969 1.300781.328125.484375.589844 1.011719.78125 1.5625.25.492188.425781 1.019531.519531 1.5625.230469 1.144531.230469 2.324219 0 3.472656-.09375.542969-.269531 1.070313-.519531 1.5625-.191406.550782-.453125 1.078125-.78125 1.558594-.320313.457031-.667969.890625-1.042969 1.304688-1.664063 1.582031-3.863281 2.480468-6.160156 2.515624zm0 0"/><path d="m112.8125 277.695312c-3.523438.019532-6.710938-2.09375-8.0625-5.351562-1.351562-3.253906-.601562-7.003906 1.902344-9.488281.828125-.785157 1.800781-1.402344 2.863281-1.820313 2.113281-.871094 4.484375-.871094 6.59375 0 1.0625.417969 2.035156 1.035156 2.867187 1.820313.371094.414062.71875.847656 1.039063 1.300781.328125.484375.59375 1.011719.78125 1.5625.25.492188.425781 1.019531.519531 1.5625.234375 1.144531.234375 2.324219 0 3.472656-.09375.542969-.269531 1.070313-.519531 1.5625-.1875.550782-.453125 1.078125-.78125 1.558594-.320313.457031-.667969.890625-1.039063 1.304688-1.664062 1.582031-3.867187 2.480468-6.164062 2.515624zm0 0"/><path d="m78.101562 416.542969c-3.523437.019531-6.710937-2.09375-8.066406-5.351563-1.351562-3.253906-.597656-7.003906 1.90625-9.488281.828125-.785156 1.800782-1.402344 2.863282-1.824219 2.113281-.867187 4.480468-.867187 6.59375 0 1.0625.421875 2.035156 1.039063 2.863281 1.824219.375.414063.722656.847656 1.042969 1.300781.328124.484375.589843 1.011719.78125 1.5625.25.492188.425781 1.019532.519531 1.5625.230469 1.144532.230469 2.324219 0 3.472656-.09375.542969-.269531 1.070313-.519531 1.5625-.191407.550782-.453126 1.078126-.78125 1.558594-.320313.457032-.667969.890625-1.042969 1.304688-1.664063 1.582031-3.863281 2.480468-6.160157 2.515625zm0 0"/></g><path d="m485.964844 451.253906v47.730469c0 7.203125-3.902344 13.015625-8.675782 13.015625h-277.695312c-4.773438 0-8.679688-5.8125-8.679688-13.015625v-47.730469zm0 0" fill="#cb8252"/><path d="m242.984375 459.933594 43.386719 26.03125 69.425781-26.03125h130.167969v-43.390625h-295.050782v43.390625zm0 0" fill="#f0c419"/><path d="m199.59375 329.761719h277.695312c4.792969 0 8.675782 3.886719 8.675782 8.679687v60.746094h-295.050782v-60.746094c0-4.792968 3.886719-8.679687 8.679688-8.679687zm0 0" fill="#cb8252"/><path d="m181.726562 173.558594c-.492187.003906-.984374-.039063-1.46875-.121094-4.722656-.804688-7.898437-5.28125-7.097656-10.003906l20.359375-120.105469c4.222657-25.0625 25.957031-43.3945312 51.371094-43.328125h76.195313c4.792968 0 8.675781 3.886719 8.675781 8.679688 0 4.792968-3.882813 8.675781-8.675781 8.675781h-76.195313c-16.933594-.03125-31.410156 12.1875-34.222656 28.890625l-20.394531 120.085937c-.707032 4.167969-4.316407 7.222657-8.546876 7.226563zm0 0" fill="#c03a2b"/><path d="m17.355469 164.882812h260.339843c9.585938 0 17.355469 7.769532 17.355469 17.355469 0 9.585938-7.769531 17.355469-17.355469 17.355469h-260.339843c-9.585938 0-17.355469-7.769531-17.355469-17.355469 0-9.585937 7.769531-17.355469 17.355469-17.355469zm0 0" fill="#4482c3"/><path d="m195.253906 381.832031h286.375c11.980469 0 21.691406 9.710938 21.691406 21.695313 0 11.980468-9.710937 21.691406-21.691406 21.691406h-286.375c-11.980468 0-21.695312-9.710938-21.695312-21.691406 0-11.984375 9.714844-21.695313 21.695312-21.695313zm0 0" fill="#805333"/></svg>