<svg height="512pt" viewBox="-18 0 512 512.00978" width="512pt" xmlns="http://www.w3.org/2000/svg"><path d="m361.9375 432.550781h-26.484375c-24.363281-.027343-44.109375-19.773437-44.136719-44.136719v-52.964843c.027344-24.367188 19.773438-44.109375 44.136719-44.140625h14.125c4.875 0 8.828125 3.953125 8.828125 8.828125s-3.953125 8.828125-8.828125 8.828125h-14.125c-14.625 0-26.484375 11.855468-26.484375 26.484375v52.964843c0 14.625 11.859375 26.484376 26.484375 26.484376h17.65625v-11.65625c0-4.875 3.953125-8.824219 8.828125-8.824219s8.824219 3.949219 8.824219 8.824219v20.480468c0 4.875-3.949219 8.828125-8.824219 8.828125zm0 0" fill="#b0d3f0"/><path d="m461.863281 379.585938-11.652343 97.105468-44.136719 8.824219-44.136719-8.824219-11.652344-97.105468 55.789063-8.828126zm0 0" fill="#4fba6f"/><path d="m44.144531 35.308594h194.207031c9.75 0 17.652344 7.90625 17.652344 17.65625v26.484375h-229.515625v-26.484375c0-9.75 7.902344-17.65625 17.65625-17.65625zm0 0" fill="#7f6e5d"/><path d="m158.902344 17.65625c0 9.75-7.90625 17.652344-17.65625 17.652344s-17.65625-7.902344-17.65625-17.652344 7.90625-17.65625 17.65625-17.65625 17.65625 7.90625 17.65625 17.65625zm0 0" fill="#f29c1f"/><path d="m246.832031 512h-211.171875c-5.109375.058594-9.996094-2.085938-13.417968-5.886719-3.417969-3.796875-5.035157-8.882812-4.441407-13.957031l11.53125-90.5c2.441407-17.816406 17.734375-31.042969 35.714844-30.898438l76.199219-26.480468 76.199218 26.480468c17.980469-.144531 33.273438 13.082032 35.71875 30.898438l11.527344 90.464844c.605469 5.082031-1.007812 10.175781-4.429687 13.980468-3.417969 3.808594-8.3125 5.957032-13.429688 5.898438zm0 0" fill="#f29c1f"/><path d="m167.730469 441.378906c0 14.625-11.859375 26.484375-26.484375 26.484375s-26.484375-11.859375-26.484375-26.484375 11.859375-26.480468 26.484375-26.480468 26.484375 11.855468 26.484375 26.480468zm0 0" fill="#e57e25"/><path d="m264.832031 105.929688-9.179687 65.324218-1.679688-.261718c-9.886718-6.976563-21.890625 14.386718-39.191406 14.386718-55.878906 0-55.878906 61.792969-111.847656 61.792969-41.046875 0-51.90625-63.910156-76.976563-79.007813l-8.296875-62.234374 132.414063-17.652344zm0 0" fill="#90bae1"/><path d="m255.652344 171.253906-26.128906 184.761719c-1.445313 8.488281-8.78125 14.710937-17.390626 14.742187h-143.714843c-8.851563-.011718-16.328125-6.582031-17.476563-15.359374l-24.984375-187.234376c25.070313 15.097657 35.929688 43.699219 76.976563 43.699219 55.96875 0 55.96875-52.964843 111.847656-52.964843 14.03125-.339844 27.792969 3.90625 39.191406 12.09375zm0 0" fill="#4fba6f"/><path d="m17.660156 70.621094h247.171875c9.75 0 17.65625 7.902344 17.65625 17.65625 0 9.75-7.90625 17.652344-17.65625 17.652344h-247.171875c-9.75 0-17.65624975-7.902344-17.65624975-17.652344 0-9.753906 7.90624975-17.65625 17.65624975-17.65625zm0 0" fill="#f29c1f"/><g fill="#e6e7e8"><path d="m114.761719 317.792969c0 9.75-7.902344 17.65625-17.652344 17.65625s-17.65625-7.90625-17.65625-17.65625 7.90625-17.65625 17.65625-17.65625 17.652344 7.90625 17.652344 17.65625zm0 0"/><path d="m88.28125 273.65625c-1.152344-.015625-2.292969-.253906-3.355469-.707031-2.21875-.804688-3.964843-2.550781-4.765625-4.765625-.453125-1.0625-.691406-2.203125-.707031-3.355469.035156-2.335937.949219-4.574219 2.558594-6.269531.859375-.777344 1.84375-1.40625 2.914062-1.851563 1.609375-.707031 3.398438-.890625 5.121094-.53125.550781.097657 1.089844.277344 1.589844.53125.5625.191407 1.09375.460938 1.585937.792969l1.324219 1.058594c1.613281 1.695312 2.527344 3.933594 2.5625 6.269531-.015625 1.152344-.253906 2.292969-.707031 3.355469-.449219 1.066406-1.074219 2.054687-1.855469 2.910156l-1.324219 1.0625c-.492187.332031-1.023437.601562-1.585937.792969-.5.253906-1.039063.433593-1.589844.53125-.582031.101562-1.175781.160156-1.765625.175781zm0 0"/><path d="m150.074219 300.136719c-1.152344-.011719-2.292969-.253907-3.355469-.703125-2.21875-.804688-3.964844-2.550782-4.765625-4.769532-.453125-1.058593-.691406-2.199218-.707031-3.355468.035156-2.335938.949218-4.574219 2.558594-6.265625.859374-.777344 1.84375-1.40625 2.914062-1.855469 1.609375-.703125 3.402344-.890625 5.121094-.527344.550781.09375 1.089844.273438 1.589844.527344.5625.195312 1.09375.460938 1.585937.796875l1.324219 1.058594c1.613281 1.691406 2.527344 3.929687 2.5625 6.265625-.015625 1.15625-.253906 2.296875-.707032 3.355468-.449218 1.070313-1.074218 2.054688-1.855468 2.914063l-1.324219 1.058594c-.492187.335937-1.023437.601562-1.585937.796875-.5.253906-1.039063.433594-1.589844.527344-.582032.101562-1.175782.160156-1.765625.175781zm0 0"/></g><path d="m467.160156 335.449219-5.296875 44.136719h-111.578125l-5.296875-44.136719 61.085938-8.828125zm0 0" fill="#71c285"/><path d="m475.546875 265.886719-8.386719 69.5625h-122.171875l-8.386719-69.5625c-.304687-2.519531.488282-5.046875 2.179688-6.9375 1.6875-1.894531 4.109375-2.96875 6.648438-2.949219h121.289062c2.539062-.019531 4.960938 1.054688 6.648438 2.949219 1.691406 1.890625 2.484374 4.417969 2.179687 6.9375zm0 0" fill="#90bae1"/><path d="m467.335938 512h-122.527344c-3.648438.171875-7.027344-1.925781-8.496094-5.273438-1.46875-3.347656-.722656-7.25 1.878906-9.820312l23.746094-20.214844h88.273438l23.746093 20.214844c2.601563 2.570312 3.347657 6.472656 1.878907 9.820312-1.46875 3.347657-4.847657 5.445313-8.5 5.273438zm0 0" fill="#90bae1"/></svg>