<svg height="512pt" viewBox="-5 0 512 512.013" width="512pt" xmlns="http://www.w3.org/2000/svg"><path d="m502.023438 265.886719-8.386719 69.5625-61.085938 8.828125-61.085937-8.828125-4.238282-35.132813-4.148437-34.429687c-.304687-2.519531.488281-5.046875 2.179687-6.9375 1.6875-1.894531 4.113282-2.96875 6.648438-2.949219h121.289062c2.539063-.019531 4.960938 1.054688 6.652344 2.949219 1.6875 1.890625 2.480469 4.417969 2.175782 6.9375zm0 0" fill="#90bae1"/><path d="m388.414062 432.550781h-8.828124c-24.363282-.027343-44.109376-19.773437-44.136719-44.136719v-52.964843c-.085938-22.699219 17.128906-41.730469 39.722656-43.917969 3.136719-.316406 6.207031 1.066406 8.046875 3.628906 1.84375 2.558594 2.179688 5.90625.882812 8.78125-1.292968 2.875-4.027343 4.839844-7.164062 5.15625-13.558594 1.308594-23.886719 12.730469-23.835938 26.351563v52.964843c0 14.625 11.859376 26.484376 26.484376 26.484376v-11.65625c0-4.875 3.953124-8.824219 8.828124-8.824219s8.828126 3.949219 8.828126 8.824219v20.480468c0 4.875-3.953126 8.828125-8.828126 8.828125zm0 0" fill="#b0d3f0"/><path d="m114.757812 353.101562s-61.792968 35.3125-61.792968 158.898438h264.828125c0-123.585938-61.792969-158.898438-61.792969-158.898438l-70.621094-17.652343zm0 0" fill="#f29c1f"/><path d="m229.492188 432.550781c0 24.378907-19.761719 44.140625-44.140626 44.140625-24.375 0-44.136718-19.761718-44.136718-44.140625 0-24.375 19.761718-44.136719 44.136718-44.136719 24.378907 0 44.140626 19.761719 44.140626 44.136719zm0 0" fill="#e57e25"/><path d="m260.273438 467.863281c-2.867188 0-5.554688-1.390625-7.207032-3.730469-1.65625-2.339843-2.074218-5.335937-1.117187-8.039062 5.355469-15.238281 5.355469-31.847656 0-47.085938-1.625-4.597656.789062-9.644531 5.386719-11.269531 4.601562-1.621093 9.644531.792969 11.269531 5.390625 6.691406 19.042969 6.691406 39.800782 0 58.84375-1.246094 3.535156-4.585938 5.894532-8.332031 5.890625zm0 0" fill="#d25627"/><path d="m110.425781 467.863281c-3.746093.003907-7.085937-2.355469-8.335937-5.890625-6.671875-19.046875-6.671875-39.796875 0-58.84375 1.625-4.597656 6.667968-7.011718 11.269531-5.390625 4.601563 1.625 7.011719 6.671875 5.390625 11.269531-5.351562 15.242188-5.351562 31.847657 0 47.085938.953125 2.703125.535156 5.699219-1.117188 8.039062-1.65625 2.339844-4.34375 3.730469-7.207031 3.730469zm0 0" fill="#d25627"/><path d="m185.378906 423.722656c-4.875 0-8.828125-3.949218-8.828125-8.824218v-26.484376c0-4.875 3.953125-8.828124 8.828125-8.828124s8.828125 3.953124 8.828125 8.828124v26.484376c0 4.875-3.953125 8.824218-8.828125 8.824218zm0 0" fill="#d25627"/><path d="m95.160156 318.410156-68.34375-46.875c-5.191406-2.855468-8.609375-8.125-9.089844-14.035156l-17.6562495-203.035156c-.4218745-4.921875 1.2421875-9.796875 4.5859375-13.4375 3.339844-3.640625 8.054688-5.714844 13-5.71875h70.621094l-6.886719 35.3125h-44.507813l15.199219 174.433594 40.800781 31.867187zm0 0" fill="#f29c1f"/><path d="m285.925781 291.308594-2.03125 36.8125c-.796875 14.039062-12.421875 25.003906-26.480469 24.980468h-144.066406c-14.0625.023438-25.6875-10.941406-26.484375-24.980468l-2.03125-36.8125zm0 0" fill="#e57e25"/><path d="m127.726562 0h132.90625c24.203126-.00390625 46.332032 13.664062 57.160157 35.308594l-123.585938 8.828125-123.585937-8.828125c10.816406-21.628906 32.921875-35.2968752 57.105468-35.308594zm0 0" fill="#7f6e5d"/><path d="m494.34375 335.449219-5.296875 44.136719-56.496094 8.828124-55.082031-8.828124-5.296875-44.136719zm0 0" fill="#71c285"/><path d="m358.839844 50.847656c-13.871094 11.445313-26.882813 23.894532-38.929688 37.25-15.972656 18.871094-25.28125 42.484375-26.480468 67.179688l-7.503907 136.03125h-201.09375l-14.210937-256h282.480468c3.699219 0 7.003907 2.304687 8.285157 5.769531 1.277343 3.46875.261719 7.367187-2.546875 9.769531zm0 0" fill="#90bae1"/><g fill="#8697cb"><path d="m185.378906 282.484375c-4.691406.171875-8.640625-3.484375-8.828125-8.175781v-204.339844c0-4.875 3.953125-8.828125 8.828125-8.828125s8.828125 3.953125 8.828125 8.828125v204.339844c-.1875 4.691406-4.136719 8.347656-8.828125 8.175781zm0 0"/><path d="m185.378906 291.308594s44.136719 0 44.136719-25.996094c-.128906-4.882812.625-9.746094 2.226563-14.363281.992187-2.992188.3125-6.289063-1.785157-8.648438-2.097656-2.355469-5.296875-3.414062-8.386719-2.773437-15.519531 2.246094-29 11.851562-36.191406 25.785156"/><path d="m185.378906 291.308594s-44.136718 0-44.136718-25.996094c.128906-4.882812-.628907-9.75-2.234376-14.363281-.988281-2.988281-.3125-6.277344 1.78125-8.632813 2.089844-2.355468 5.277344-3.417968 8.363282-2.789062 15.53125 2.234375 29.027344 11.839844 36.226562 25.785156"/><path d="m202.972656 70.621094h-35.308594c-9.753906 0-17.65625-7.90625-17.65625-17.65625v-17.65625h70.621094v17.65625c0 9.75-7.90625 17.65625-17.65625 17.65625zm0 0"/></g><path d="m488.34375 379.585938-11.652344 97.105468-44.140625 8.824219-44.136719-8.824219-8.828124-73.449218-2.824219-23.65625zm0 0" fill="#4fba6f"/><path d="m476.691406 476.691406 23.734375 20.238282c2.632813 2.546874 3.40625 6.460937 1.941407 9.820312-1.464844 3.355469-4.859376 5.449219-8.515626 5.25h-122.597656c-3.660156.199219-7.054687-1.894531-8.519531-5.25-1.464844-3.359375-.691406-7.273438 1.941406-9.820312l23.738281-20.238282zm0 0" fill="#90bae1"/></svg>