<svg height="512pt" viewBox="0 0 512 512" width="512pt" xmlns="http://www.w3.org/2000/svg"><path d="m229.515625 361.929688c-4.875 0-8.824219-3.949219-8.824219-8.828126v-17.652343c0-4.875 3.949219-8.828125 8.824219-8.828125 4.878906 0 8.828125 3.953125 8.828125 8.828125v17.652343c0 4.878907-3.949219 8.828126-8.828125 8.828126zm0 0" fill="#7f6e5d"/><path d="m317.792969 423.722656c-8.425781.011719-16.570313-3.007812-22.953125-8.507812-3.28125-3.261719-3.488282-8.507813-.472656-12.015625 3.015624-3.511719 8.230468-4.097657 11.949218-1.339844 3.183594 2.757813 7.265625 4.257813 11.476563 4.210937 9.75 0 17.65625-7.90625 17.65625-17.65625s-7.90625-17.65625-17.65625-17.65625h-16.859375c-4.957032.03125-9.039063-3.875-9.226563-8.828124-.089843-2.296876.753907-4.535157 2.34375-6.199219 1.589844-1.664063 3.785157-2.613281 6.085938-2.628907h17.65625c19.5 0 35.308593 15.8125 35.308593 35.3125s-15.808593 35.308594-35.308593 35.308594zm0 0" fill="#e64c3c"/><path d="m317.546875 364.074219-21.523437 94.960937-40.023438 8.828125-40.023438-8.828125-21.523437-94.960937c-.699219-2.507813-.234375-5.203125 1.269531-7.332031 1.507813-2.125 3.890625-3.464844 6.492188-3.640626h107.570312c2.601563.175782 4.984375 1.515626 6.492188 3.640626 1.503906 2.128906 1.96875 4.824218 1.269531 7.332031zm0 0" fill="#e64c3c"/><path d="m472.433594 278.890625-154.640625-14.0625-8.828125-17.65625 8.828125-26.480469 154.640625-14.0625c10.152344-.921875 20.222656 2.46875 27.746094 9.34375 7.527343 6.871094 11.816406 16.59375 11.820312 26.785156-.003906 10.191407-4.292969 19.914063-11.820312 26.789063-7.523438 6.871094-17.59375 10.261719-27.746094 9.34375zm0 0" fill="#41767f"/><path d="m105.929688 459.035156h262.304687c10.433594-.652344 19.4375 7.226563 20.179687 17.65625v35.308594h-282.484374zm0 0" fill="#2c3e50"/><path d="m211.863281 167.722656h88.273438v61.792969h-88.273438zm0 0" fill="#d1d4d1"/><path d="m185.378906 132.414062h141.242188v44.136719c0 4.875-3.953125 8.828125-8.828125 8.828125h-123.585938c-4.875 0-8.828125-3.953125-8.828125-8.828125zm0 0" fill="#a5a5a4"/><path d="m379.585938 150.070312h-273.65625v-44.140624l264.828124 8.828124h8.828126c9.75 0 17.65625 7.90625 17.65625 17.65625s-7.90625 17.65625-17.65625 17.65625zm0 0" fill="#805333"/><path d="m0 88.277344h141.242188v423.722656h-123.585938c-9.75 0-17.65625-7.90625-17.65625-17.65625zm0 0" fill="#a5a5a4"/><path d="m229.515625 308.964844c-4.875 0-8.824219-3.953125-8.824219-8.828125v-35.308594c0-4.875 3.949219-8.828125 8.824219-8.828125 4.878906 0 8.828125 3.953125 8.828125 8.828125v35.308594c0 4.875-3.949219 8.828125-8.828125 8.828125zm0 0" fill="#7f6e5d"/><path d="m273.65625 326.621094c-4.875 0-8.828125-3.953125-8.828125-8.828125v-52.964844c0-4.875 3.953125-8.828125 8.828125-8.828125s8.828125 3.953125 8.828125 8.828125v52.964844c0 4.875-3.953125 8.828125-8.828125 8.828125zm0 0" fill="#7f6e5d"/><path d="m35.308594 0h300.140625c19.5 0 35.308593 15.808594 35.308593 35.308594v79.449218h-370.757812v-79.449218c0-19.5 15.808594-35.308594 35.308594-35.308594zm0 0" fill="#cb8252"/><path d="m211.863281 220.691406h105.929688v44.136719h-105.929688c-9.75 0-17.65625-7.90625-17.65625-17.65625v-8.828125c0-9.75 7.90625-17.652344 17.65625-17.652344zm0 0" fill="#a5a5a4"/><path d="m370.757812 79.449219h-211.859374c-4.878907 0-8.828126-3.953125-8.828126-8.828125s3.949219-8.828125 8.828126-8.828125h211.859374c4.875 0 8.828126 3.953125 8.828126 8.828125s-3.953126 8.828125-8.828126 8.828125zm0 0" fill="#805333"/><path d="m123.585938 79.449219h-17.65625c-4.875 0-8.828126-3.953125-8.828126-8.828125s3.953126-8.828125 8.828126-8.828125h17.65625c4.875 0 8.828124 3.953125 8.828124 8.828125s-3.953124 8.828125-8.828124 8.828125zm0 0" fill="#805333"/><g fill="#2c3e50"><path d="m97.101562 194.207031c0 14.625-11.855468 26.484375-26.480468 26.484375s-26.484375-11.859375-26.484375-26.484375 11.859375-26.484375 26.484375-26.484375 26.480468 11.859375 26.480468 26.484375zm0 0"/><path d="m105.929688 264.828125h-70.621094c-4.875 0-8.824219-3.953125-8.824219-8.828125s3.949219-8.828125 8.824219-8.828125h70.621094c4.875 0 8.828124 3.953125 8.828124 8.828125s-3.953124 8.828125-8.828124 8.828125zm0 0"/><path d="m88.277344 300.136719h-35.3125c-4.875 0-8.828125-3.949219-8.828125-8.828125 0-4.875 3.953125-8.824219 8.828125-8.824219h35.3125c4.875 0 8.824218 3.949219 8.824218 8.824219 0 4.878906-3.949218 8.828125-8.824218 8.828125zm0 0"/></g></svg>