<svg height="512pt" viewBox="-4 0 512 512.00478" width="512pt" xmlns="http://www.w3.org/2000/svg"><path d="m52.070312 399.191406c-1.574218.003906-3.121093-.425781-4.46875-1.242187l-34.964843-20.972657c-7.820313-4.722656-12.6093752-13.183593-12.63281275-22.320312v-85.632812c0-14.378907 11.65234375-26.035157 26.03124975-26.035157h26.035156c4.792969 0 8.679688 3.886719 8.679688 8.675781v138.847657c0 4.792969-3.886719 8.679687-8.679688 8.679687zm-26.035156-138.847656c-4.792968 0-8.675781 3.886719-8.675781 8.679688v85.632812c0 3.046875 1.597656 5.867188 4.207031 7.4375l21.824219 13.09375v-114.84375zm0 0" fill="#e64c3c"/><path d="m277.699219 225.632812c0-62.304687 50.507812-112.816406 112.8125-112.816406 62.304687 0 112.8125 50.511719 112.8125 112.816406 0 62.304688-50.507813 112.8125-112.8125 112.8125zm0 0" fill="#e57e25"/><path d="m312.410156 225.632812c0-43.136718 34.964844-78.101562 78.101563-78.101562 43.132812 0 78.101562 34.964844 78.101562 78.101562 0 43.132813-34.96875 78.101563-78.101562 78.101563zm0 0" fill="#f29c1f"/><g fill="#e57e25"><path d="m390.511719 234.308594c-3.511719 0-6.671875-2.113282-8.015625-5.355469s-.601563-6.976563 1.878906-9.457031l55.226562-55.226563c3.40625-3.289062 8.816407-3.242187 12.164063.105469s3.394531 8.761719.105469 12.164062l-55.226563 55.226563c-1.625 1.628906-3.832031 2.542969-6.132812 2.542969zm0 0"/><path d="m468.613281 234.308594h-78.101562c-4.792969 0-8.679688-3.882813-8.679688-8.675782 0-4.792968 3.886719-8.679687 8.679688-8.679687h78.101562c4.792969 0 8.675781 3.886719 8.675781 8.679687 0 4.792969-3.882812 8.675782-8.675781 8.675782zm0 0"/><path d="m445.738281 289.535156c-2.300781 0-4.507812-.914062-6.136719-2.542968l-55.226562-55.226563c-3.289062-3.402344-3.242188-8.816406.105469-12.164063 3.347656-3.347656 8.761719-3.394531 12.164062-.105468l55.226563 55.226562c2.484375 2.480469 3.226562 6.214844 1.882812 9.457032-1.34375 3.242187-4.507812 5.355468-8.015625 5.355468zm0 0"/></g><path d="m26.035156 468.613281h381.832032v8.679688c0 19.171875-15.542969 34.710937-34.710938 34.710937h-312.40625c-19.171875 0-34.714844-15.539062-34.714844-34.710937zm0 0" fill="#bdc3c7"/><path d="m390.511719 234.308594c-4.792969 0-8.679688-3.882813-8.679688-8.675782v-78.101562c0-4.792969 3.886719-8.679688 8.679688-8.679688s8.675781 3.886719 8.675781 8.679688v78.101562c0 4.792969-3.882812 8.675782-8.675781 8.675782zm0 0" fill="#e57e25"/><path d="m390.511719 234.308594c-2.300781 0-4.507813-.914063-6.136719-2.542969l-55.226562-55.226563c-3.289063-3.402343-3.242188-8.816406.105468-12.164062s8.761719-3.394531 12.164063-.105469l55.226562 55.226563c2.484375 2.480468 3.226563 6.214844 1.882813 9.457031s-4.507813 5.355469-8.015625 5.355469zm0 0" fill="#e57e25"/><path d="m390.511719 234.308594v147.527344c0 23.015624-9.144531 45.085937-25.417969 61.363281-16.273438 16.273437-38.347656 25.414062-61.363281 25.414062h-173.558594c-47.925781 0-86.78125-38.851562-86.78125-86.777343v-147.527344c0-4.792969 3.886719-8.675782 8.679687-8.675782h329.761719c4.792969 0 8.679688 3.882813 8.679688 8.675782zm0 0" fill="#e64c3c"/><path d="m86.460938 173.5625c-3.0625-.003906-5.898438-1.621094-7.457032-4.257812-1.558594-2.632813-1.613281-5.898438-.144531-8.582032l7.210937-13.191406c4.277344-7.898438 2.472657-17.714844-4.339843-23.570312-14.167969-12.460938-16.429688-33.699219-5.207031-48.867188l20.601562-28.140625c2.828125-3.875 8.261719-4.71875 12.132812-1.890625 3.871094 2.824219 4.71875 8.257812 1.890626 12.128906l-20.582032 28.160156c-6.007812 8.015626-4.742187 19.320313 2.890625 25.808594 12.792969 11.222656 16.042969 29.839844 7.808594 44.734375l-7.210937 13.15625c-1.519532 2.777344-4.429688 4.507813-7.59375 4.511719zm0 0" fill="#cbb292"/><path d="m155.882812 130.175781c-3.0625-.003906-5.894531-1.625-7.453124-4.257812-1.5625-2.636719-1.617188-5.898438-.148438-8.585938l7.214844-13.191406c4.277344-7.898437 2.46875-17.710937-4.339844-23.570313-14.171875-12.460937-16.433594-33.699218-5.207031-48.863281l20.601562-28.144531c2.828125-3.871094 8.257813-4.71875 12.132813-1.890625 3.871094 2.828125 4.71875 8.257813 1.890625 12.132813l-20.585938 28.15625c-6.007812 8.015624-4.742187 19.324218 2.890625 25.808593 12.792969 11.222657 16.042969 29.84375 7.808594 44.738281l-7.210938 13.152344c-1.519531 2.777344-4.425781 4.507813-7.59375 4.515625zm0 0" fill="#cbb292"/><path d="m216.628906 199.597656c-3.0625-.003906-5.894531-1.621094-7.457031-4.257812-1.558594-2.636719-1.613281-5.898438-.144531-8.585938l7.210937-13.191406c4.28125-7.898438 2.472657-17.710938-4.335937-23.566406-14.171875-12.460938-16.433594-33.699219-5.207032-48.867188l20.601563-28.140625c2.828125-3.875 8.257813-4.722656 12.128906-1.894531 3.875 2.828125 4.722657 8.261719 1.894531 12.132812l-20.585937 28.160157c-6.007813 8.015625-4.742187 19.320312 2.890625 25.808593 12.792969 11.222657 16.042969 29.839844 7.808594 44.734376l-7.210938 13.15625c-1.519531 2.777343-4.425781 4.503906-7.59375 4.511718zm0 0" fill="#cbb292"/><path d="m121.492188 321.089844-26.03125 34.710937v43.390625c0 4.792969 3.882812 8.679688 8.675781 8.679688h43.390625c4.792968 0 8.679687-3.886719 8.679687-8.679688v-43.390625l-8.679687-8.675781zm0 0" fill="#fdd7ad"/><path d="m130.171875 225.632812v112.8125c-.613281 4.320313-4.3125 7.535157-8.679687 7.535157-4.363282 0-8.0625-3.214844-8.675782-7.535157v-112.8125zm0 0" fill="#a5a5a4"/></svg>