<svg height="512pt" viewBox="-5 0 512 512.01679" width="512pt" xmlns="http://www.w3.org/2000/svg"><path d="m146.898438 79.273438c-14.199219-11.183594-31.710938-17.332032-49.785157-17.480469-53.671875 0-97.1054685 55.347656-97.1054685 123.585937 0 55.878906 29.1328125 103.105469 69.1210935 118.378906l15.800782-31.78125c-28.335938-8.121093-49.609376-43.785156-49.609376-86.597656 0-48.726562 27.628907-88.277344 61.792969-88.277344 21.097657 0 39.632813 15.007813 50.84375 38.046876zm0 0" fill="#b0d3f0"/><path d="m317.800781 512h-203.035156c-28.6875 0-79.445313-17.65625-79.445313-114.757812 0-43.875 21.625-89.511719 45.285157-133.738282l60.644531-69.296875 156.25 50.230469c3.617188 6.707031 7.324219 13.503906 11.03125 20.390625 1.589844 3.089844 3.265625 6.179687 4.855469 9.269531v.175782l92.691406 220.070312zm0 0" fill="#e57e25"/><path d="m482.171875 264.828125-7.328125 61.792969-77.59375 17.65625-77.59375-17.65625-7.328125-61.792969zm0 0" fill="#f0c419"/><path d="m489.234375 512h-183.96875c-5.476563.277344-10.546875-2.875-12.730469-7.902344-2.179687-5.03125-1.011718-10.886718 2.933594-14.695312l40.078125-30.367188 61.703125-35.3125 61.703125 35.3125 40.078125 30.367188c3.945312 3.808594 5.113281 9.664062 2.933594 14.695312-2.183594 5.027344-7.253906 8.179688-12.730469 7.902344zm0 0" fill="#90bae1"/><path d="m494.265625 164.015625-12.09375 100.8125-84.921875 8.828125-84.921875-8.828125-12.09375-100.8125c-.414063-3.53125.695313-7.078125 3.058594-9.738281 2.359375-2.664063 5.742187-4.195313 9.300781-4.207032h169.3125c3.558594.011719 6.941406 1.542969 9.300781 4.207032 2.359375 2.660156 3.472657 6.207031 3.058594 9.738281zm0 0" fill="#90bae1"/><path d="m297.5 244.4375c-21.1875 10.0625-30.367188 29.21875-65.0625 29.21875-47.050781 0-47.050781-35.3125-94.1875-35.3125-30.367188 0-41.136719 14.742188-57.644531 25.160156 28.777343-53.671875 60.644531-105.136718 60.644531-148.746094 0-79.449218-44.136719-114.757812-44.136719-114.757812h194.207031s-44.140624 35.308594-44.140624 114.757812c0 38.402344 24.71875 82.890626 50.320312 129.679688zm0 0" fill="#90bae1"/><g fill="#e6e7e8"><path d="m167.734375 60.761719c-3.90625-.003907-7.347656-2.570313-8.457031-6.3125-1.609375-5.386719-3.460938-10.726563-5.511719-15.890625-1.285156-2.953125-.859375-6.371094 1.109375-8.917969 1.964844-2.550781 5.167969-3.824219 8.347656-3.328125 3.179688.496094 5.839844 2.6875 6.9375 5.714844 2.25 5.632812 4.28125 11.476562 6.027344 17.363281 1.394531 4.671875-1.261719 9.585937-5.929688 10.980469-.820312.25-1.667968.378906-2.523437.390625zm0 0"/><path d="m163.769531 185.378906c-1.0625 0-2.113281-.191406-3.109375-.566406-2.191406-.820312-3.96875-2.484375-4.933594-4.617188-.96875-2.136718-1.046874-4.566406-.21875-6.757812 7.585938-18.660156 11.726563-38.542969 12.226563-58.679688.003906-8.515624-.46875-17.023437-1.421875-25.484374-.550781-4.847657 2.929688-9.222657 7.777344-9.773438 4.84375-.550781 9.21875 2.933594 9.769531 7.777344 1.027344 9.125 1.535156 18.300781 1.527344 27.480468-.484375 22.265626-5.011719 44.261719-13.355469 64.910157-1.296875 3.4375-4.585938 5.710937-8.261719 5.710937zm0 0"/><path d="m92.699219 326.621094c-3.011719-.003906-5.816407-1.542969-7.433594-4.082032-1.621094-2.539062-1.832031-5.730468-.566406-8.460937 1.390625-2.984375 2.8125-5.976563 4.273437-8.96875 2.132813-4.390625 7.417969-6.21875 11.808594-4.085937 4.386719 2.132812 6.214844 7.421874 4.082031 11.808593-1.414062 2.894531-2.800781 5.789063-4.132812 8.675781-1.449219 3.128907-4.585938 5.121094-8.03125 5.113282zm0 0"/><path d="m105.9375 484.546875c-.671875 0-1.34375-.074219-2-.230469-27.128906-6.3125-42.136719-37.234375-42.136719-87.074218.320313-15.964844 3.144531-31.78125 8.378907-46.867188 1.660156-4.417969 6.503906-6.75 10.992187-5.289062 4.492187 1.460937 7.035156 6.195312 5.78125 10.746093-4.652344 13.324219-7.179687 27.300781-7.496094 41.410157 0 19.023437 2.773438 63.910156 28.476563 69.878906 4.371094 1.015625 7.28125 5.144531 6.769531 9.601562-.507813 4.457032-4.277344 7.820313-8.765625 7.824219zm0 0"/></g><path d="m474.84375 326.621094-15.890625 132.414062h-123.40625l-15.890625-132.414062zm0 0" fill="#f29c1f"/></svg>