<svg height="512pt" viewBox="-4 0 512 512.0006" width="512pt" xmlns="http://www.w3.org/2000/svg"><path d="m312.40625 104.136719-11.800781 111.425781-44.882813 281.816406c-1.34375 8.421875-8.609375 14.621094-17.140625 14.621094h-179.570312c-8.882813.003906-16.335938-6.699219-17.269531-15.535156l-2.953126-27.855469-19.261718-181.195313-19.527344-183.277343zm0 0" fill="#90bae1"/><path d="m296.265625 243.503906-.605469 6.074219-7.292968 80.183594-36.707032 138.847656h-212.871094l-21.171874-198.984375 45.992187 13.882812c28.265625 8.484376 57.71875 12.324219 87.214844 11.371094 1.648437 0 3.382812-.089844 5.03125-.175781 4.339843-.171875 8.59375-.519531 12.84375-1.039063 24.945312-2.71875 49.441406-8.609374 72.894531-17.53125 19.207031-9.140624 37.511719-20.066406 54.671875-32.628906zm0 0" fill="#f29c1f"/><path d="m52.066406 212.609375c-4.34375-.003906-8.015625-3.222656-8.589844-7.53125l-8.675781-65.085937c-.488281-3.109376.75-6.234376 3.226563-8.171876 2.480468-1.9375 5.8125-2.382812 8.714844-1.160156 2.898437 1.21875 4.910156 3.914063 5.257812 7.042969l8.675781 65.082031c.332031 2.480469-.425781 4.984375-2.074219 6.867188-1.648437 1.882812-4.03125 2.960937-6.535156 2.957031zm0 0" fill="#b0d3f0"/><path d="m329.761719 8.679688c0 4.792968-3.882813 8.675781-8.675781 8.675781h-76.195313c-16.921875-.007813-31.378906 12.207031-34.1875 28.898437l-9.808594 57.882813h-17.617187l10.328125-60.746094c4.167969-25.070313 25.875-43.4335938 51.285156-43.390625h76.195313c2.300781 0 4.507812.914062 6.136718 2.542969 1.625 1.625 2.539063 3.832031 2.539063 6.136719zm0 0" fill="#cc4b4c"/><path d="m200.894531 104.136719-32.195312 189.527343c-4.25.519532-8.503907.867188-12.84375 1.039063-1.648438.085937-3.382813.175781-5.03125.175781l32.453125-190.742187zm0 0" fill="#8697cb"/><path d="m168.699219 293.664062-29.679688 174.945313h-17.527343c-.015626-.492187.015624-.984375.085937-1.472656l29.246094-172.257813c1.648437 0 3.382812-.089844 5.03125-.175781 4.339843-.171875 8.59375-.519531 12.84375-1.039063zm0 0" fill="#e57e25"/><g fill="#f0c419"><path d="m104.136719 407.863281c0 9.585938-7.769531 17.355469-17.355469 17.355469s-17.355469-7.769531-17.355469-17.355469c0-9.585937 7.769531-17.355469 17.355469-17.355469s17.355469 7.769532 17.355469 17.355469zm0 0"/><path d="m112.8125 373.152344c-1.136719.03125-2.265625-.207032-3.296875-.695313-1.050781-.4375-2.019531-1.054687-2.863281-1.820312-1.597656-1.65625-2.5-3.863281-2.515625-6.160157.011719-1.136718.25-2.257812.695312-3.300781.789063-2.179687 2.503907-3.894531 4.683594-4.683593 3.230469-1.359376 6.964844-.640626 9.460937 1.820312.765626.84375 1.378907 1.8125 1.820313 2.863281.488281 1.03125.726563 2.160157.695313 3.300781-.015626.582032-.074219 1.160157-.175782 1.734376-.09375.542968-.269531 1.070312-.519531 1.5625-.1875.550781-.453125 1.078124-.78125 1.5625l-1.039063 1.300781-1.304687 1.039062c-.480469.332031-1.007813.59375-1.558594.78125-.492187.253907-1.019531.425781-1.5625.523438-.574219.097656-1.15625.15625-1.738281.171875zm0 0"/><path d="m60.746094 364.476562c-1.136719.027344-2.269532-.210937-3.296875-.695312-1.050781-.441406-2.019531-1.058594-2.863281-1.824219-1.601563-1.652343-2.5-3.859375-2.519532-6.160156.015625-1.132813.25-2.253906.695313-3.296875.789062-2.179688 2.507812-3.898438 4.6875-4.6875 3.230469-1.359375 6.960937-.640625 9.457031 1.824219.765625.84375 1.382812 1.8125 1.824219 2.863281.484375 1.027344.722656 2.160156.695312 3.296875-.015625.582031-.074219 1.160156-.175781 1.734375-.09375.542969-.269531 1.070312-.519531 1.5625-.191407.554688-.453125 1.078125-.78125 1.5625l-1.042969 1.300781-1.300781 1.042969c-.484375.328125-1.007813.589844-1.5625.78125-.492188.25-1.015625.425781-1.5625.519531-.570313.101563-1.152344.160157-1.734375.175781zm0 0"/><path d="m503.324219 351.457031c0 88.664063-71.878907 160.542969-160.542969 160.542969-24.984375.066406-49.632812-5.761719-71.941406-17.007812-13.8125-6.890626-26.53125-15.78125-37.75-26.382813-61.878906-57.496094-68.339844-153.214844-14.75-218.511719l53.976562-42.953125c9.683594-4.742187 19.832032-8.464843 30.285156-11.109375 13.117188-3.429687 26.621094-5.152344 40.179688-5.121094 35.734375-.050781 70.449219 11.898438 98.582031 33.933594l35.316407 38.007813c17.414062 26.265625 26.683593 57.089843 26.644531 88.601562zm0 0"/></g><path d="m277.695312 225.628906c0 19.167969-15.542968 34.710938-34.710937 34.710938-19.171875 0-34.714844-15.542969-34.714844-34.710938 0-19.171875 15.542969-34.714844 34.714844-34.714844 19.167969 0 34.710937 15.542969 34.710937 34.714844zm0 0" fill="#805333"/><path d="m381.832031 364.476562c0 19.167969-15.542969 34.710938-34.714843 34.710938-19.167969 0-34.710938-15.542969-34.710938-34.710938 0-19.171874 15.542969-34.714843 34.710938-34.714843 19.171874 0 34.714843 15.542969 34.714843 34.714843zm0 0" fill="#805333"/><path d="m277.695312 351.457031c0 16.773438-13.597656 30.375-30.371093 30.375-16.777344 0-30.375-13.601562-30.375-30.375 0-16.773437 13.597656-30.371093 30.375-30.371093 16.773437 0 30.371093 13.597656 30.371093 30.371093zm0 0" fill="#cb8252"/><path d="m338.441406 459.933594c0 9.585937-7.769531 17.355468-17.355468 17.355468-9.585938 0-17.355469-7.769531-17.355469-17.355468 0-9.585938 7.769531-17.355469 17.355469-17.355469 9.585937 0 17.355468 7.769531 17.355468 17.355469zm0 0" fill="#cb8252"/><path d="m442.578125 407.863281c0 9.585938-7.773437 17.355469-17.359375 17.355469-9.582031 0-17.355469-7.769531-17.355469-17.355469 0-9.585937 7.773438-17.355469 17.355469-17.355469 9.585938 0 17.359375 7.769532 17.359375 17.355469zm0 0" fill="#cb8252"/><path d="m451.253906 312.40625c0 9.585938-7.769531 17.355469-17.355468 17.355469-9.585938 0-17.355469-7.769531-17.355469-17.355469s7.769531-17.355469 17.355469-17.355469c9.585937 0 17.355468 7.769531 17.355468 17.355469zm0 0" fill="#805333"/><path d="m381.832031 260.339844c0 14.378906-11.65625 26.03125-26.035156 26.03125s-26.035156-11.652344-26.035156-26.03125 11.65625-26.035156 26.035156-26.035156 26.035156 11.65625 26.035156 26.035156zm0 0" fill="#cb8252"/><path d="m485.964844 242.984375c0 14.375-11.652344 26.03125-26.03125 26.03125s-26.035156-11.65625-26.035156-26.03125c0-14.378906 11.65625-26.035156 26.035156-26.035156s26.03125 11.65625 26.03125 26.035156zm0 0" fill="#805333"/></svg>