<svg height="512pt" viewBox="-4 0 512 512.33982" width="512pt" xmlns="http://www.w3.org/2000/svg"><path d="m388.597656 406.410156c-.078125 1.566406-.5625 3.089844-1.414062 4.414063l-56.757813 97.453125c-1.65625 2.535156-4.480469 4.0625-7.503906 4.0625h-257.0625c-3.023437 0-5.847656-1.527344-7.5-4.0625l-56.761719-97.453125c-.851562-1.324219-1.335937-2.847657-1.414062-4.414063l203.035156-17.65625zm0 0" fill="#805333"/><path d="m316.300781 206.289062 56.230469-55.96875-24.363281-25.601562-43.875 43.875zm0 0" fill="#805333"/><path d="m387.539062 401.820312-51.820312-162.253906-1.410156-4.324218-1.855469-5.914063-37.957031-118.996094c-1.421875-2.535156-1.488282-5.613281-.175782-8.210937l18.09375-36.015625c1.386719-2.746094 1.242188-6.015625-.382812-8.628907-1.621094-2.613281-4.484375-4.191406-7.558594-4.171874h-220.160156c-3.078125-.019532-5.941406 1.558593-7.5625 4.171874-1.621094 2.613282-1.769531 5.882813-.382812 8.628907l18.09375 36.015625c1.3125 2.597656 1.246093 5.675781-.175782 8.210937l-33.015625 103.546875-60.027343 187.941406c-.785157 1.394532-1.1523442 2.988282-1.058594 4.589844h388.414062c.09375-1.601562-.273437-3.195312-1.058594-4.589844zm-144.507812-88.894531-.441406.441407c-9.230469 9.011718-21.707032 13.914062-34.605469 13.59375-19.757813-.605469-38.492187-8.941407-52.171875-23.21875-18.3125-16.859376-26.421875-42.097657-21.359375-66.46875 1.984375-7.488282 5.875-14.332032 11.296875-19.863282l.441406-.441406c21.273438-21.363281 60.117188-17.039062 86.777344 9.621094 8.148438 8.101562 14.523438 17.8125 18.714844 28.515625.765625 1.929687 1.414062 3.902343 1.941406 5.914062.265625 1.148438.617188 2.207031.882812 3.265625.085938.441406.175782.792969.265626 1.148438.085937.527344.175781 1.058594.261718 1.5.355469 1.675781.53125 3.265625.707032 4.855468l.265624 2.117188c1.59375 14.277344-3.148437 28.539062-12.976562 39.019531zm0 0" fill="#cb8252"/><path d="m374.660156 150.410156c-10.832031-.007812-20.566406-6.605468-24.585937-16.664062-4.015625-10.058594-1.5-21.546875 6.347656-29.011719l102.214844-97.101563c6.820312-6.730468 16.742187-9.25 25.945312-6.59375 9.203125 2.660157 16.253907 10.082032 18.4375 19.410157 2.183594 9.328125-.839843 19.105469-7.90625 25.574219l-102.214843 97.101562c-4.917969 4.6875-11.449219 7.296875-18.238282 7.285156zm0 0" fill="#7f8c8d"/><path d="m141.425781 53.304688h-56.496093c-8.542969-13.777344-6.808594-31.566407 4.238281-43.429688 1.714843-1.773438 3.675781-3.289062 5.824219-4.503906 2.117187 9.445312 7.503906 12.625 22.246093 21.453125 8.472657 5.117187 17.035157 21.359375 24.1875 26.480469zm0 0" fill="#7f6e5d"/><path d="m152.988281 53.304688h-11.5625c-7.152343-5.121094-15.714843-10.238282-24.1875-15.359376-11.613281-7.300781-19.671875-19.101562-22.246093-32.574218 15.609374-8.671875 35.125-5.535156 47.226562 7.59375 10.863281 10.367187 15.019531 25.9375 10.769531 40.339844zm0 0" fill="#cbb292"/><path d="m216.285156 53.304688h-56.320312c-8.59375-13.738282-6.929688-31.523438 4.058594-43.429688 1.738281-1.773438 3.695312-3.316406 5.828124-4.589844l.085938.085938c2.03125 9.445312 7.503906 12.625 22.15625 21.453125 8.566406 5.117187 17.039062 21.359375 24.191406 26.480469zm0 0" fill="#7f6e5d"/><path d="m284.960938 5.371094c-2.117188 9.445312 3.621093 30.277344-11.121094 39.105468-8.476563 5.121094-28.160156 3.707032-35.3125 8.828126h-11.5625c-2.558594-7.769532-2.375-16.183594.53125-23.832032v-.089844c2.144531-6.167968 5.644531-11.777343 10.238281-16.417968 12.105469-13.128906 31.621094-16.265625 47.226563-7.59375zm0 0" fill="#7f6e5d"/><path d="m295.023438 53.304688h-56.496094c7.152344-5.121094 15.714844-10.238282 24.1875-15.359376 11.613281-7.300781 19.671875-19.101562 22.246094-32.574218 2.148437 1.214844 4.109374 2.730468 5.828124 4.503906 11.042969 11.863281 12.777344 29.652344 4.234376 43.429688zm0 0" fill="#cbb292"/><path d="m227.496094 29.472656c-2.90625 7.648438-3.089844 16.0625-.53125 23.832032h-10.679688c-7.152344-5.121094-15.625-10.238282-24.191406-15.359376-11.589844-7.304687-19.617188-19.109374-22.15625-32.574218l-.085938-.085938c15.636719-8.59375 35.117188-5.425781 47.226563 7.679688 4.683594 4.601562 8.25 10.21875 10.417969 16.417968zm0 0" fill="#cbb292"/><path d="m243.03125 312.925781-.441406.441407c-9.230469 9.011718-21.707032 13.914062-34.605469 13.59375-19.757813-.605469-38.492187-8.941407-52.171875-23.21875-18.3125-16.859376-26.421875-42.097657-21.359375-66.46875 1.984375-7.488282 5.875-14.332032 11.296875-19.863282l.089844.089844c11.578125 17.835938 28.609375 31.457031 48.550781 38.839844 25.953125 8.652344 44.402344 48.90625 48.550781 56.496094zm0 0" fill="#7f6e5d"/><path d="m243.03125 312.925781-.089844-.089843c-4.148437-7.589844-22.597656-39.015626-48.550781-47.667969-25.953125-8.652344-44.402344-40.078125-48.550781-47.667969l-.089844-.089844.441406-.441406c21.273438-21.363281 60.117188-17.039062 86.777344 9.621094 8.148438 8.101562 14.523438 17.8125 18.714844 28.515625.765625 1.929687 1.414062 3.902343 1.941406 5.914062.265625 1.148438.617188 2.207031.882812 3.265625l.527344 2.648438c.265625 1.675781.53125 3.265625.707032 4.855468l.265624 2.117188c1.59375 14.277344-3.148437 28.539062-12.976562 39.019531zm0 0" fill="#cbb292"/></svg>