<svg height="512pt" viewBox="0 0 512 512" width="512pt" xmlns="http://www.w3.org/2000/svg"><path d="m467.863281 176.550781h-423.726562c-24.375 0-44.136719 19.761719-44.136719 44.140625v247.171875c0 11.703125 4.648438 22.929688 12.925781 31.210938 8.28125 8.277343 19.507813 12.925781 31.210938 12.925781h423.726562c24.375 0 44.136719-19.761719 44.136719-44.136719v-247.171875c0-24.378906-19.761719-44.140625-44.136719-44.140625zm-406.070312 88.277344c-14.625 0-26.484375-11.855469-26.484375-26.484375 0-14.625 11.859375-26.480469 26.484375-26.480469s26.484375 11.855469 26.484375 26.480469c0 14.628906-11.859375 26.484375-26.484375 26.484375zm388.414062 0c-14.625 0-26.484375-11.855469-26.484375-26.484375 0-14.625 11.859375-26.480469 26.484375-26.480469s26.484375 11.855469 26.484375 26.480469c0 14.628906-11.859375 26.484375-26.484375 26.484375zm0 0" fill="#cbb292"/><path d="m61.792969 229.515625c-4.875 0-8.828125-3.949219-8.828125-8.824219v-132.414062c0-4.875 3.953125-8.828125 8.828125-8.828125s8.828125 3.953125 8.828125 8.828125v132.414062c0 4.875-3.953125 8.824219-8.828125 8.824219zm0 0" fill="#7f6e5d"/><path d="m353.101562 450.207031h-194.203124c-4.878907 0-8.828126-3.953125-8.828126-8.828125s3.949219-8.828125 8.828126-8.828125h194.203124c4.878907 0 8.828126 3.953125 8.828126 8.828125s-3.949219 8.828125-8.828126 8.828125zm0 0" fill="#fdd7ad"/><path d="m300.136719 485.515625h-88.273438c-4.875 0-8.828125-3.949219-8.828125-8.824219 0-4.878906 3.953125-8.828125 8.828125-8.828125h88.273438c4.875 0 8.828125 3.949219 8.828125 8.828125 0 4.875-3.953125 8.824219-8.828125 8.824219zm0 0" fill="#fdd7ad"/><path d="m315.585938 326.621094c27.984374 6.957031 46.34375 18.695312 46.34375 31.992187 0 21.316407-47.402344 38.628907-105.929688 38.628907s-105.929688-17.3125-105.929688-38.628907c0-13.296875 18.359376-25.035156 46.34375-31.992187zm0 0" fill="#d1d4d1"/><path d="m331.035156 291.308594c-6.878906 0-13.5625-2.300782-18.988281-6.53125-.359375-.222656-.699219-.476563-1.015625-.757813-6.878906-5.921875-10.851562-14.53125-10.894531-23.605469 0-4.875 3.953125-8.828124 8.828125-8.828124s8.828125 3.953124 8.828125 8.828124c.011719 3.710938 1.558593 7.25 4.273437 9.78125.175782.132813.34375.253907.511719.398438 3.992187 3.21875 9.460937 3.902344 14.125 1.765625 5.566406-2.667969 8.554687-8.828125 7.199219-14.851563-1.355469-6.023437-6.695313-10.3125-12.867188-10.335937h-22.070312c-4.875 0-8.828125-3.953125-8.828125-8.828125s3.953125-8.828125 8.828125-8.828125h22.070312c14.453125-.003906 26.980469 10.011719 30.15625 24.113281 3.171875 14.101563-3.851562 28.519532-16.914062 34.707032-4.144532 1.945312-8.664063 2.960937-13.242188 2.972656zm0 0" fill="#c03a2b"/><path d="m61.792969 97.101562c-19.5 0-35.308594-15.808593-35.308594-35.308593v-8.828125c0-4.875 3.949219-8.828125 8.824219-8.828125h52.96875c4.875 0 8.824218 3.953125 8.824218 8.828125v8.828125c0 19.5-15.808593 35.308593-35.308593 35.308593zm-17.65625-35.308593c0 9.75 7.90625 17.65625 17.65625 17.65625s17.65625-7.90625 17.65625-17.65625zm0 0" fill="#7f6e5d"/><path d="m450.207031 229.515625c-4.875 0-8.828125-3.949219-8.828125-8.824219v-132.414062c0-4.875 3.953125-8.828125 8.828125-8.828125s8.828125 3.953125 8.828125 8.828125v132.414062c0 4.875-3.953125 8.824219-8.828125 8.824219zm0 0" fill="#7f6e5d"/><path d="m450.207031 97.101562c-19.5 0-35.308593-15.808593-35.308593-35.308593v-8.828125c0-4.875 3.949218-8.828125 8.824218-8.828125h52.96875c4.875 0 8.824219 3.953125 8.824219 8.828125v8.828125c0 19.5-15.808594 35.308593-35.308594 35.308593zm-17.65625-35.308593c0 9.75 7.90625 17.65625 17.65625 17.65625s17.65625-7.90625 17.65625-17.65625zm0 0" fill="#7f6e5d"/><g fill="#fdd7ad"><path d="m35.308594 326.621094c-4.875 0-8.824219-3.953125-8.824219-8.828125v-17.65625c0-4.875 3.949219-8.828125 8.824219-8.828125 4.878906 0 8.828125 3.953125 8.828125 8.828125v17.65625c0 4.875-3.949219 8.828125-8.828125 8.828125zm0 0"/><path d="m35.308594 467.863281c-4.875 0-8.824219-3.953125-8.824219-8.828125v-105.933594c0-4.875 3.949219-8.824218 8.824219-8.824218 4.878906 0 8.828125 3.949218 8.828125 8.824218v105.933594c0 4.875-3.949219 8.828125-8.828125 8.828125zm0 0"/><path d="m476.691406 467.863281c-4.878906 0-8.828125-3.953125-8.828125-8.828125v-17.65625c0-4.875 3.949219-8.828125 8.828125-8.828125 4.875 0 8.824219 3.953125 8.824219 8.828125v17.65625c0 4.875-3.949219 8.828125-8.824219 8.828125zm0 0"/><path d="m476.691406 414.898438c-4.878906 0-8.828125-3.953126-8.828125-8.828126v-105.933593c0-4.875 3.949219-8.828125 8.828125-8.828125 4.875 0 8.824219 3.953125 8.824219 8.828125v105.933593c0 4.875-3.949219 8.828126-8.824219 8.828126zm0 0"/></g><path d="m317.792969 229.515625v68.070313c.515625 34.066406-25.949219 62.464843-59.964844 64.34375-16.703125.496093-32.894531-5.796876-44.882813-17.4375-11.984374-11.644532-18.746093-27.644532-18.738281-44.355469v-61.792969c0-4.875 3.953125-8.828125 8.828125-8.828125zm0 0" fill="#e64c3c"/><path d="m26.484375 0h459.03125c14.628906 0 26.484375 11.855469 26.484375 26.484375 0 14.625-11.855469 26.480469-26.484375 26.480469h-459.03125c-14.628906 0-26.484375-11.855469-26.484375-26.480469 0-14.628906 11.855469-26.484375 26.484375-26.484375zm0 0" fill="#c03a2b"/></svg>