<svg height="512pt" viewBox="0 0 512 512" width="512pt" xmlns="http://www.w3.org/2000/svg"><path d="m467.863281 176.550781h-423.726562c-24.375 0-44.136719 19.761719-44.136719 44.140625v247.171875c0 11.703125 4.648438 22.929688 12.925781 31.210938 8.28125 8.277343 19.507813 12.925781 31.210938 12.925781h423.726562c24.375 0 44.136719-19.761719 44.136719-44.136719v-247.171875c0-24.378906-19.761719-44.140625-44.136719-44.140625zm-406.070312 88.277344c-14.625 0-26.484375-11.855469-26.484375-26.484375 0-14.625 11.859375-26.480469 26.484375-26.480469s26.484375 11.855469 26.484375 26.480469c0 14.628906-11.859375 26.484375-26.484375 26.484375zm388.414062 0c-14.625 0-26.484375-11.855469-26.484375-26.484375 0-14.625 11.859375-26.480469 26.484375-26.480469s26.484375 11.855469 26.484375 26.480469c0 14.628906-11.859375 26.484375-26.484375 26.484375zm0 0" fill="#cbb292"/><path d="m61.792969 229.515625c-4.875 0-8.828125-3.949219-8.828125-8.824219v-132.414062c0-4.875 3.953125-8.828125 8.828125-8.828125s8.828125 3.953125 8.828125 8.828125v132.414062c0 4.875-3.953125 8.824219-8.828125 8.824219zm0 0" fill="#7f6e5d"/><path d="m353.101562 450.207031h-194.203124c-4.878907 0-8.828126-3.953125-8.828126-8.828125s3.949219-8.828125 8.828126-8.828125h194.203124c4.878907 0 8.828126 3.953125 8.828126 8.828125s-3.949219 8.828125-8.828126 8.828125zm0 0" fill="#fdd7ad"/><path d="m300.136719 485.515625h-88.273438c-4.875 0-8.828125-3.949219-8.828125-8.824219 0-4.878906 3.953125-8.828125 8.828125-8.828125h88.273438c4.875 0 8.828125 3.949219 8.828125 8.828125 0 4.875-3.953125 8.824219-8.828125 8.824219zm0 0" fill="#fdd7ad"/><path d="m61.792969 97.101562c-19.5 0-35.308594-15.808593-35.308594-35.308593v-8.828125c0-4.875 3.949219-8.828125 8.824219-8.828125h52.96875c4.875 0 8.824218 3.953125 8.824218 8.828125v8.828125c0 19.5-15.808593 35.308593-35.308593 35.308593zm-17.65625-35.308593c0 9.75 7.90625 17.65625 17.65625 17.65625s17.65625-7.90625 17.65625-17.65625zm0 0" fill="#7f6e5d"/><path d="m450.207031 229.515625c-4.875 0-8.828125-3.949219-8.828125-8.824219v-132.414062c0-4.875 3.953125-8.828125 8.828125-8.828125s8.828125 3.953125 8.828125 8.828125v132.414062c0 4.875-3.953125 8.824219-8.828125 8.824219zm0 0" fill="#7f6e5d"/><path d="m450.207031 97.101562c-19.5 0-35.308593-15.808593-35.308593-35.308593v-8.828125c0-4.875 3.949218-8.828125 8.824218-8.828125h52.96875c4.875 0 8.824219 3.953125 8.824219 8.828125v8.828125c0 19.5-15.808594 35.308593-35.308594 35.308593zm-17.65625-35.308593c0 9.75 7.90625 17.65625 17.65625 17.65625s17.65625-7.90625 17.65625-17.65625zm0 0" fill="#7f6e5d"/><g fill="#fdd7ad"><path d="m35.308594 326.621094c-4.875 0-8.824219-3.953125-8.824219-8.828125v-17.65625c0-4.875 3.949219-8.828125 8.824219-8.828125 4.878906 0 8.828125 3.953125 8.828125 8.828125v17.65625c0 4.875-3.949219 8.828125-8.828125 8.828125zm0 0"/><path d="m35.308594 467.863281c-4.875 0-8.824219-3.953125-8.824219-8.828125v-105.933594c0-4.875 3.949219-8.824218 8.824219-8.824218 4.878906 0 8.828125 3.949218 8.828125 8.824218v105.933594c0 4.875-3.949219 8.828125-8.828125 8.828125zm0 0"/><path d="m476.691406 467.863281c-4.878906 0-8.828125-3.953125-8.828125-8.828125v-17.65625c0-4.875 3.949219-8.828125 8.828125-8.828125 4.875 0 8.824219 3.953125 8.824219 8.828125v17.65625c0 4.875-3.949219 8.828125-8.824219 8.828125zm0 0"/><path d="m476.691406 414.898438c-4.878906 0-8.828125-3.953126-8.828125-8.828126v-105.933593c0-4.875 3.949219-8.828125 8.828125-8.828125 4.875 0 8.824219 3.953125 8.824219 8.828125v105.933593c0 4.875-3.949219 8.828126-8.824219 8.828126zm0 0"/></g><path d="m304.640625 356.722656-.441406.441406c-21.273438 21.363282-60.117188 17.039063-86.777344-9.621093-26.480469-26.484375-30.894531-64.972657-10.0625-86.335938l.089844.089844c4.148437 7.589844 31.425781 30.191406 57.378906 38.839844 25.953125 8.652343 35.574219 48.90625 39.722656 56.496093zm0 0" fill="#805333"/><path d="m194.558594 361.667969c0 .085937-.175782.261719-.261719.351562-13.683594 13.769531-38.667969 10.945313-55.792969-6.179687-16.949218-16.949219-19.859375-41.667969-6.441406-55.4375 9.296875 11.800781 21.625 20.863281 35.660156 26.21875 16.6875 5.5625 24.101563 30.191406 26.835938 35.046875zm0 0" fill="#805333"/><path d="m194.558594 361.667969c-2.734375-4.855469-14.5625-25.070313-31.25-30.632813-16.683594-5.5625-28.511719-25.777344-31.246094-30.632812 0-.085938.175781-.265625.261719-.351563 13.683593-13.773437 38.667969-10.949219 55.792969 6.179688 16.949218 16.949219 19.859374 41.664062 6.441406 55.4375zm0 0" fill="#7f6e5d"/><path d="m388.765625 361.667969c0 .085937-.175781.261719-.261719.351562-13.683594 13.769531-38.667968 10.945313-55.792968-6.179687-9.097657-8.738282-14.445313-20.671875-14.917969-33.28125v-1.585938c.085937-7.691406 3.121093-15.050781 8.476562-20.570312 9.296875 11.800781 21.625 20.863281 35.660157 26.21875 16.683593 5.5625 24.101562 30.191406 26.835937 35.046875zm0 0" fill="#805333"/><path d="m388.765625 361.667969c-2.734375-4.855469-14.5625-25.070313-31.25-30.632813-16.683594-5.5625-28.511719-25.777344-31.246094-30.632812 0-.085938.175781-.265625.261719-.351563 13.683594-13.773437 38.664062-10.949219 55.792969 6.179688 16.949219 16.949219 19.859375 41.664062 6.441406 55.4375zm0 0" fill="#7f6e5d"/><path d="m317.792969 320.972656v1.585938c.296875 12.679687-4.429688 24.960937-13.152344 34.164062l-.089844-.089844c-4.148437-7.589843-22.597656-39.015624-48.550781-47.667968-25.953125-8.648438-44.402344-40.078125-48.550781-47.667969l-.089844-.089844.441406-.441406c21.273438-21.363281 60.117188-17.035156 86.777344 9.625 13.835937 13.332031 22.125 31.398437 23.214844 50.582031zm0 0" fill="#7f6e5d"/><path d="m26.484375 0h459.03125c14.628906 0 26.484375 11.855469 26.484375 26.484375 0 14.625-11.855469 26.480469-26.484375 26.480469h-459.03125c-14.628906 0-26.484375-11.855469-26.484375-26.480469 0-14.628906 11.855469-26.484375 26.484375-26.484375zm0 0" fill="#c03a2b"/></svg>