<svg height="512pt" viewBox="-4 0 512 512.00708" width="512pt" xmlns="http://www.w3.org/2000/svg"><path d="m114.761719 264.828125c0 150.070313-70.621094 203.035156-70.621094 203.035156s-44.13671875-61.792969-44.13671875-211.863281 44.13671875-211.863281 44.13671875-211.863281 70.621094 70.621093 70.621094 220.691406zm0 0" fill="#805333"/><path d="m44.140625 52.964844v-44.136719c0-4.875 3.953125-8.828125 8.828125-8.828125h211.863281c4.875 0 8.828125 3.953125 8.828125 8.828125v44.136719zm0 0" fill="#805333"/><path d="m264.832031 512h-211.863281c-4.875 0-8.828125-3.953125-8.828125-8.828125v-35.308594l211.863281-35.3125 35.308594-17.652343-26.570312 96.925781zm0 0" fill="#805333"/><path d="m295.460938 92.953125v.089844l4.679687 12.886719-63.910156 1.589843c-3.789063.277344-6.71875 3.4375-6.710938 7.238281v26.484376h-8.828125c-4.875 0-8.824218 3.953124-8.824218 8.828124v17.652344c-22.277344.734375-42.839844 12.132813-55.261719 30.632813-20.921875 29.042969-19.246094 66.03125 3.707031 83.15625.128906.140625.277344.257812.441406.351562 16.859375 12.183594 40.253906 10.417969 59.9375-2.46875v84.480469c.179688 3.96875 3.535156 7.046875 7.503906 6.882812h10.949219l2.558594 28.691407 3.089844 33.632812v.175781l3.175781 34.605469h-203.828125s44.140625-61.792969 44.140625-211.863281-44.140625-211.863281-44.140625-211.863281h229.519531c9.453125 15.207031 16.785156 31.628906 21.800782 48.816406zm0 0" fill="#cb8252"/><path d="m230.757812 194.117188-.882812.089843c-.085938.195313-.207031.375-.355469.53125-6.441406 12.179688-3.707031 36.367188-17.652343 43.605469-23.21875 12.183594-48.640626 35.222656-51.464844 43.078125l-.089844.089844c-22.953125-17.125-24.628906-54.113281-3.707031-83.15625 12.421875-18.5 32.984375-29.898438 55.261719-30.632813 0 4.875 3.949218 8.828125 8.824218 8.828125h8.828125zm0 0" fill="#805333"/><path d="m233.316406 229.515625h-5.121094c-3.96875-.164063-7.324218 2.917969-7.503906 6.886719v42.992187c-19.683594 12.886719-43.078125 14.652344-59.9375 2.46875-.164062-.09375-.3125-.210937-.441406-.351562l.089844-.089844c2.824218-7.855469 15.359375-40.339844 38.574218-52.523437 13.28125-8.183594 23.894532-20.050782 30.542969-34.160157.148438-.15625.269531-.335937.355469-.53125l.882812-.089843zm0 0" fill="#7f6e5d"/><path d="m475.898438 370.757812-2.558594 28.691407-9.09375 98.78125c-.851563 7.945312-7.632813 13.925781-15.625 13.769531h-191.027344c-.566406.027344-1.132812-.03125-1.679688-.175781-7.339843-.527344-13.230468-6.269531-13.945312-13.59375l-2.824219-30.28125v-.085938l-3.179687-34.605469v-.175781l-3.089844-33.632812-2.558594-28.691407 131.617188-26.480468zm0 0" fill="#cbb292"/><path d="m485.519531 176.550781-3.792969 52.964844-119.792968 8.828125-137.445313-8.828125-2.558593-35.398437-1.238282-17.566407 150.070313-8.828125zm0 0" fill="#cbb292"/><path d="m494.347656 236.402344v127.472656c-.175781 3.96875-3.53125 7.046875-7.503906 6.882812h-267.476562c-3.96875.164063-7.324219-2.914062-7.5-6.882812v-127.472656c.175781-3.96875 3.53125-7.050782 7.5-6.886719h267.476562c3.972656-.164063 7.328125 2.917969 7.503906 6.886719zm0 0" fill="#af8066"/><g fill="#7f5b53"><path d="m485.519531 94.101562v47.140626l-105.929687 17.65625-158.898438-17.65625v-26.484376c-.007812-3.800781 2.921875-6.960937 6.710938-7.238281l57.820312-4.765625 4.324219-.355468 188.117187-15.535157c2.023438-.164062 4.023438.523438 5.515626 1.898438 1.492187 1.375 2.339843 3.3125 2.339843 5.339843zm0 0"/><path d="m441.382812 291.308594c-4.875 0-8.828124-3.949219-8.828124-8.824219v-26.484375c0-4.875 3.953124-8.828125 8.828124-8.828125s8.828126 3.953125 8.828126 8.828125v26.484375c0 4.875-3.953126 8.824219-8.828126 8.824219zm0 0"/><path d="m406.074219 291.308594c-4.878907 0-8.828125-3.949219-8.828125-8.824219v-26.484375c0-4.875 3.949218-8.828125 8.828125-8.828125 4.875 0 8.824219 3.953125 8.824219 8.828125v26.484375c0 4.875-3.949219 8.824219-8.824219 8.824219zm0 0"/><path d="m370.761719 291.308594c-4.875 0-8.828125-3.949219-8.828125-8.824219v-26.484375c0-4.875 3.953125-8.828125 8.828125-8.828125s8.828125 3.953125 8.828125 8.828125v26.484375c0 4.875-3.953125 8.824219-8.828125 8.824219zm0 0"/><path d="m335.453125 291.308594c-4.875 0-8.828125-3.949219-8.828125-8.824219v-26.484375c0-4.875 3.953125-8.828125 8.828125-8.828125s8.828125 3.953125 8.828125 8.828125v26.484375c0 4.875-3.953125 8.824219-8.828125 8.824219zm0 0"/><path d="m300.140625 291.308594c-4.875 0-8.828125-3.949219-8.828125-8.824219v-26.484375c0-4.875 3.953125-8.828125 8.828125-8.828125s8.828125 3.953125 8.828125 8.828125v26.484375c0 4.875-3.953125 8.824219-8.828125 8.824219zm0 0"/><path d="m264.832031 291.308594c-4.875 0-8.828125-3.949219-8.828125-8.824219v-26.484375c0-4.875 3.953125-8.828125 8.828125-8.828125s8.828125 3.953125 8.828125 8.828125v26.484375c0 4.875-3.953125 8.824219-8.828125 8.824219zm0 0"/></g><path d="m211.867188 141.242188h282.480468c4.875 0 8.828125 3.953124 8.828125 8.828124v17.652344c0 4.875-3.953125 8.828125-8.828125 8.828125h-282.480468c-4.875 0-8.828126-3.953125-8.828126-8.828125v-17.652344c0-4.875 3.953126-8.828124 8.828126-8.828124zm0 0" fill="#af8066"/></svg>