<svg height="512pt" viewBox="0 -4 512 512" width="512pt" xmlns="http://www.w3.org/2000/svg"><path d="m211.863281 61.796875h-194.207031v-53.523437c0-4.835938 2.648438-8.640626 5.761719-8.2460942l183.554687 23.4570312c2.761719.351563 4.890625 3.9375 4.890625 8.234375zm0 0" fill="#7f5b53"/><path d="m494.34375 61.796875h-194.207031v-53.523437c0-4.835938 2.648437-8.640626 5.765625-8.2460942l183.550781 23.4570312c2.765625.351563 4.890625 3.9375 4.890625 8.234375zm0 0" fill="#7f5b53"/><path d="m20.460938 141.242188-2.804688-52.964844h194.207031l-2.808593 52.964844" fill="#cbb292"/><path d="m8.828125 52.96875h211.863281c4.875 0 8.824219 3.949219 8.824219 8.828125v17.652344c0 4.875-3.949219 8.828125-8.824219 8.828125h-211.863281c-4.875 0-8.828125-3.953125-8.828125-8.828125v-17.652344c0-4.878906 3.953125-8.828125 8.828125-8.828125zm0 0" fill="#af8066"/><path d="m302.945312 141.242188-2.808593-52.964844h194.207031l-2.804688 52.964844" fill="#cbb292"/><path d="m291.308594 52.96875h211.863281c4.875 0 8.828125 3.949219 8.828125 8.828125v17.652344c0 4.875-3.953125 8.828125-8.828125 8.828125h-211.863281c-4.875 0-8.824219-3.953125-8.824219-8.828125v-17.652344c0-4.878906 3.949219-8.828125 8.824219-8.828125zm0 0" fill="#af8066"/><path d="m485.515625 247.175781-1.851563 30.082031-4.765624 75.847657h-163.3125l-4.765626-75.847657-1.855468-30.082031zm0 0" fill="#cbb292"/><path d="m203.035156 247.175781-1.855468 30.082031-4.765626 75.847657h-163.3125l-4.765624-75.847657-1.851563-30.082031zm0 0" fill="#cbb292"/><path d="m220.691406 137.554688v113.308593c-.152344 2.972657-2.671875 5.265625-5.644531 5.140625h-200.578125c-2.972656.125-5.488281-2.167968-5.640625-5.140625v-113.308593c.152344-2.972657 2.667969-5.265626 5.640625-5.140626h200.578125c2.972656-.125 5.492187 2.167969 5.644531 5.140626zm0 0" fill="#af8066"/><path d="m201.179688 397.621094-6.53125 92.691406c.15625 6.542969-4.707032 12.125-11.210938 12.863281h-137.359375c-6.5-.738281-11.363281-6.320312-11.210937-12.863281l-6.53125-92.691406-1.851563-26.859375h176.550781zm0 0" fill="#e57e25"/><path d="m310.820312 397.621094 6.53125 92.691406c-.15625 6.542969 4.707032 12.125 11.210938 12.863281h137.359375c6.5-.738281 11.363281-6.320312 11.210937-12.863281l6.53125-92.691406 1.851563-26.859375h-176.550781zm0 0" fill="#e57e25"/><g fill="#7f5b53"><path d="m61.792969 203.035156c-4.875 0-8.828125-3.949218-8.828125-8.828125v-26.480469c0-4.875 3.953125-8.828124 8.828125-8.828124s8.828125 3.953124 8.828125 8.828124v26.480469c0 4.878907-3.953125 8.828125-8.828125 8.828125zm0 0"/><path d="m97.101562 203.035156c-4.875 0-8.824218-3.949218-8.824218-8.828125v-26.480469c0-4.875 3.949218-8.828124 8.824218-8.828124 4.878907 0 8.828126 3.953124 8.828126 8.828124v26.480469c0 4.878907-3.949219 8.828125-8.828126 8.828125zm0 0"/><path d="m132.414062 203.035156c-4.875 0-8.828124-3.949218-8.828124-8.828125v-26.480469c0-4.875 3.953124-8.828124 8.828124-8.828124s8.828126 3.953124 8.828126 8.828124v26.480469c0 4.878907-3.953126 8.828125-8.828126 8.828125zm0 0"/><path d="m167.722656 203.035156c-4.875 0-8.824218-3.949218-8.824218-8.828125v-26.480469c0-4.875 3.949218-8.828124 8.824218-8.828124s8.828125 3.953124 8.828125 8.828124v26.480469c0 4.878907-3.953125 8.828125-8.828125 8.828125zm0 0"/></g><path d="m503.171875 137.554688v113.308593c-.152344 2.972657-2.667969 5.265625-5.640625 5.140625h-200.578125c-2.972656.125-5.492187-2.167968-5.644531-5.140625v-113.308593c.152344-2.972657 2.671875-5.265626 5.644531-5.140626h200.578125c2.972656-.125 5.488281 2.167969 5.640625 5.140626zm0 0" fill="#af8066"/><path d="m344.277344 203.035156c-4.875 0-8.828125-3.949218-8.828125-8.828125v-26.480469c0-4.875 3.953125-8.828124 8.828125-8.828124s8.824218 3.953124 8.824218 8.828124v26.480469c0 4.878907-3.949218 8.828125-8.824218 8.828125zm0 0" fill="#7f5b53"/><path d="m379.585938 203.035156c-4.875 0-8.828126-3.949218-8.828126-8.828125v-26.480469c0-4.875 3.953126-8.828124 8.828126-8.828124s8.828124 3.953124 8.828124 8.828124v26.480469c0 4.878907-3.953124 8.828125-8.828124 8.828125zm0 0" fill="#7f5b53"/><path d="m414.898438 203.035156c-4.878907 0-8.828126-3.949218-8.828126-8.828125v-26.480469c0-4.875 3.949219-8.828124 8.828126-8.828124 4.875 0 8.824218 3.953124 8.824218 8.828124v26.480469c0 4.878907-3.949218 8.828125-8.824218 8.828125zm0 0" fill="#7f5b53"/><path d="m450.207031 203.035156c-4.875 0-8.828125-3.949218-8.828125-8.828125v-26.480469c0-4.875 3.953125-8.828124 8.828125-8.828124s8.828125 3.953124 8.828125 8.828124v26.480469c0 4.878907-3.953125 8.828125-8.828125 8.828125zm0 0" fill="#7f5b53"/><path d="m52.964844 379.589844h-35.308594c-9.75 0-17.65625-7.90625-17.65625-17.65625s7.90625-17.65625 17.65625-17.65625h476.6875c9.75 0 17.65625 7.90625 17.65625 17.65625s-7.90625 17.65625-17.65625 17.65625zm0 0" fill="#f29c1f"/></svg>