<svg height="512pt" viewBox="0 -9 512 512" width="512pt" xmlns="http://www.w3.org/2000/svg"><path d="m485.515625 88.277344c.011719-29.804688-15.03125-57.597656-39.988281-73.886719h-96.574219c-24.953125 16.289063-39.996094 44.082031-39.988281 73.886719zm0 0" fill="#9fc9d3"/><path d="m203.035156 88.277344c.007813-29.804688-15.035156-57.597656-39.988281-73.886719h-96.574219c-24.957031 16.289063-40 44.082031-39.988281 73.886719zm0 0" fill="#9fc9d3"/><path d="m163.046875 14.390625c-8.210937 12.355469-26.75 20.921875-48.289063 20.921875-21.539062 0-40.078124-8.566406-48.285156-20.921875 29.332032-19.1875 67.238282-19.1875 96.574219 0zm0 0" fill="#b0d3f0"/><path d="m445.527344 14.390625c-8.207032 12.355469-26.746094 20.921875-48.285156 20.921875-21.539063 0-40.078126-8.566406-48.289063-20.921875 29.335937-19.1875 67.242187-19.1875 96.574219 0zm0 0" fill="#b0d3f0"/><path d="m304.285156 154.148438 16.15625 190.128906h153.601563l15.359375-180.128906-39.195313-49.390626zm0 0" fill="#ff5364"/><path d="m21.804688 154.148438 16.152343 190.128906h153.601563l15.359375-180.128906-56.847657-49.390626zm0 0" fill="#ff5364"/><path d="m201.179688 388.792969-6.53125 92.691406c.15625 6.542969-4.707032 12.121094-11.210938 12.859375h-137.359375c-6.5-.738281-11.363281-6.316406-11.210937-12.859375l-6.53125-92.691406-1.851563-26.863281h176.550781zm0 0" fill="#e57e25"/><path d="m310.820312 388.792969 6.53125 92.691406c-.15625 6.542969 4.707032 12.121094 11.210938 12.859375h137.359375c6.5-.738281 11.363281-6.316406 11.210937-12.859375l6.53125-92.691406 1.851563-26.863281h-176.550781zm0 0" fill="#e57e25"/><path d="m52.964844 370.757812h-35.308594c-9.75 0-17.65625-7.902343-17.65625-17.652343 0-9.753907 7.90625-17.65625 17.65625-17.65625h476.6875c9.75 0 17.65625 7.902343 17.65625 17.65625 0 9.75-7.90625 17.652343-17.65625 17.652343zm0 0" fill="#f29c1f"/><path d="m211.863281 105.929688-4.945312 56.320312-.792969-.085938c-14.488281-7.90625-30.722656-12.0625-47.226562-12.09375-39.726563 0-39.726563 17.652344-79.449219 17.652344-30.457031 0-37.519531-10.328125-57.027344-15.183594l-.617187.089844-4.148438-46.699218zm0 0" fill="#9fc9d3"/><path d="m494.34375 105.929688-4.941406 56.320312-.796875-.085938c-14.488281-7.90625-30.722657-12.0625-47.226563-12.09375-39.722656 0-39.722656 17.652344-79.449218 17.652344-30.453126 0-37.515626-10.328125-57.023438-15.183594l-.621094.089844-4.148437-46.699218zm0 0" fill="#9fc9d3"/><g fill="#e6e7e8"><path d="m70.621094 308.964844c-4.582032.019531-8.414063-3.46875-8.828125-8.03125l-.804688-8.828125c-.382812-3.195313 1-6.34375 3.609375-8.222657 2.613282-1.878906 6.039063-2.1875 8.941406-.808593 2.90625 1.382812 4.832032 4.230469 5.027344 7.441406l.800782 8.828125c.460937 4.851562-3.09375 9.15625-7.941407 9.621094-.277343 0-.550781 0-.804687 0zm0 0"/><path d="m66.605469 264.828125c-4.578125.019531-8.414063-3.464844-8.828125-8.023437l-4.820313-52.964844c-.445312-4.878906 3.152344-9.195313 8.027344-9.636719 4.878906-.445313 9.191406 3.152344 9.636719 8.027344l4.820312 52.964843c.222656 2.34375-.5 4.679688-2.007812 6.488282-1.503906 1.808594-3.671875 2.941406-6.015625 3.144531-.285157 0-.550781 0-.8125 0zm0 0"/><path d="m353.101562 308.964844c-4.578124.019531-8.414062-3.46875-8.824218-8.03125l-.804688-8.828125c-.285156-3.140625 1.128906-6.195313 3.707032-8.011719 2.578124-1.816406 5.929687-2.121094 8.792968-.792969 2.863282 1.324219 4.800782 4.074219 5.085938 7.214844l.800781 8.828125c.460937 4.851562-3.097656 9.160156-7.953125 9.621094-.273438 0-.546875 0-.804688 0zm0 0"/><path d="m349.085938 264.828125c-4.578126.019531-8.410157-3.464844-8.828126-8.023437l-4.820312-52.964844c-.441406-4.878906 3.152344-9.195313 8.03125-9.636719 4.878906-.445313 9.191406 3.152344 9.632812 8.027344l4.820313 52.964843c.222656 2.34375-.496094 4.679688-2.003906 6.488282-1.507813 1.808594-3.675781 2.941406-6.019531 3.144531-.324219 0-.546876 0-.8125 0zm0 0"/></g><path d="m17.65625 79.449219h194.207031c9.75 0 17.652344 7.902343 17.652344 17.65625 0 9.75-7.902344 17.652343-17.652344 17.652343h-194.207031c-9.75 0-17.65625-7.902343-17.65625-17.652343 0-9.753907 7.90625-17.65625 17.65625-17.65625zm0 0" fill="#4482c3"/><path d="m300.136719 79.449219h194.207031c9.75 0 17.65625 7.902343 17.65625 17.65625 0 9.75-7.90625 17.652343-17.65625 17.652343h-194.207031c-9.75 0-17.652344-7.902343-17.652344-17.652343 0-9.753907 7.902344-17.65625 17.652344-17.65625zm0 0" fill="#4482c3"/></svg>