<svg height="512pt" viewBox="0 0 512 512" width="512pt" xmlns="http://www.w3.org/2000/svg"><path d="m167.703125 422.136719h35.3125v54.554687h-35.3125zm0 0" fill="#90bae1"/><path d="m203.015625 467.863281c25.511719 2.707031 44.136719 11.351563 44.136719 21.582031 0 12.480469-27.628906 22.554688-61.792969 22.554688s-61.792969-10.074219-61.792969-22.554688c0-10.230468 18.625-18.875 44.136719-21.582031" fill="#90bae1"/><path d="m220.492188 370.757812h.175781v26.484376c0 14.625-11.855469 26.480468-26.480469 26.480468h-17.65625c-14.625 0-26.480469-11.855468-26.480469-26.480468v-26.484376zm0 0" fill="#b0d3f0"/><path d="m88.257812 326.445312c-3.984374-.003906-7.46875-2.675781-8.511718-6.515624-7.847656-28.945313-17.832032-33.472657-30.457032-39.222657-16.230468-7.386719-34.636718-15.746093-45.664062-66.992187-7.246094-33.542969-3.6171875-58.5 10.789062-74.152344 12.332032-12 29.398438-17.832031 46.492188-15.886719 3.191406.339844 5.941406 2.382813 7.191406 5.339844 1.25 2.953125.796875 6.351563-1.179687 8.875-1.976563 2.527344-5.164063 3.78125-8.332031 3.28125-11.453126-1.148437-22.847657 2.679687-31.285157 10.511719-10.0625 11.007812-12.277343 31.171875-6.417969 58.324218 9.109376 42.550782 21.46875 48.144532 35.691407 54.625 14.222656 6.480469 30.179687 13.71875 40.191406 50.671876.71875 2.652343.164063 5.488281-1.503906 7.671874-1.667969 2.183594-4.257813 3.464844-7.003907 3.46875zm0 0" fill="#b0d3f0"/><path d="m277.34375 351.601562c-24.035156 24.789063-57.484375 38.175782-91.984375 36.8125-45.375 0-75.300781-17.921874-91.984375-36.8125-8.226562-9.4375-13.125-21.316406-13.945312-33.808593v-.175781c-.445313-6.367188.242187-12.765626 2.027343-18.890626 5.140625-19.699218 7.429688-40.035156 6.800781-60.382812 0-6.265625-.265624-12.269531-.796874-17.917969 30.367187-2.296875 33.105468-26.21875 68.503906-26.21875 38.222656 0 38.222656 17.65625 76.535156 17.65625 17.738281 1.246094 35.558594-.699219 52.609375-5.738281-1.792969 10.644531-2.679687 21.425781-2.648437 32.21875-.4375 20.339844 1.847656 40.648438 6.800781 60.382812 5.394531 18.5.890625 38.476563-11.917969 52.875zm0 0" fill="#805333"/><path d="m310.976562 140.800781c-13.46875 19.527344-22.316406 41.867188-25.867187 65.324219-17.125 5.03125-24.539063 14.566406-52.609375 14.566406-38.3125 0-38.3125-17.65625-76.535156-17.65625-35.398438 0-38.136719 15.09375-68.503906 17.390625-1.992188-28.535156-11.5625-56.019531-27.71875-79.625 16.597656 9.972657 62.148437 8.472657 116.789062 9.179688 2.914062.089843 5.828125.089843 8.828125.089843s5.914063 0 8.828125-.089843c.882812 0 1.765625-.089844 2.648438-.089844 53.496093-.882813 97.808593.707031 114.140624-9.089844zm0 0" fill="#fdd7ad"/><path d="m229.496094 352.546875c-4.121094.023437-7.710938-2.816406-8.644532-6.832031-.929687-4.015625 1.042969-8.144532 4.753907-9.941406 7.308593-3.542969 13.90625-8.398438 19.472656-14.316407 2.289063-3.320312 2.855469-7.535156 1.527344-11.34375-.707031-2.648437-1.367188-5.335937-1.976563-8.058593-.765625-3.105469.207032-6.382813 2.542969-8.566407 2.335937-2.183593 5.671875-2.929687 8.71875-1.957031 3.042969.976562 5.324219 3.523438 5.960937 6.65625.554688 2.496094 1.171876 4.953125 1.816407 7.371094 2.980469 9.679687.835937 20.210937-5.691407 27.957031-7.03125 7.484375-15.367187 13.621094-24.605468 18.105469-1.203125.601562-2.527344.921875-3.875.925781zm0 0" fill="#f5efca"/><path d="m248.097656 273.65625c-4.621094.011719-8.472656-3.539062-8.828125-8.148438-.230469-2.984374-.414062-6.011718-.554687-9.101562-.113282-2.34375.714844-4.636719 2.300781-6.371094 1.582031-1.730468 3.792969-2.761718 6.136719-2.863281 4.851562-.171875 8.949218 3.566406 9.226562 8.414063.128906 2.902343.308594 5.746093.519532 8.554687.191406 2.335937-.558594 4.652344-2.078126 6.4375-1.519531 1.785156-3.6875 2.890625-6.027343 3.078125zm0 0" fill="#f5efca"/><path d="m317.773438 132.414062c0 2.914063-2.296876 5.738282-6.710938 8.296876 0 .050781-.039062.089843-.085938.089843-16.597656 9.972657-62.148437 17.300781-116.789062 18.007813-2.914062.089844-5.828125.089844-8.828125.089844s-5.914063 0-8.828125-.089844c-54.640625-.707032-100.191406-8.035156-116.789062-18.007813-.046876 0-.085938-.039062-.085938-.089843-4.328125-2.558594-6.710938-5.382813-6.710938-8.296876 0-8.917968 21.894532-16.773437 55.613282-21.539062h153.601562c33.71875 4.765625 55.613282 12.621094 55.613282 21.539062zm0 0" fill="#cb8252"/><path d="m241.328125 97.367188c8.753906.765624 16.558594 5.828124 20.832031 13.507812 1.824219 3.984375 2.730469 8.328125 2.648438 12.710938 0 24.71875-30.722656 34.074218-70.621094 35.222656h-17.65625c-39.898438-1.148438-70.621094-10.503906-70.621094-35.222656-.125-4.386719.78125-8.742188 2.648438-12.710938 4.273437-7.679688 12.078125-12.742188 20.832031-13.507812zm0 0" fill="#ff5364"/><path d="m143.78125 53.761719h-.089844c-12.269531 2.183593-20.9375 13.246093-20.125 25.6875 0 16.320312 10.433594 25.941406 26.484375 30.894531l35.308594 4.414062c34.339844 0 61.792969-8.828124 61.792969-35.308593.808594-12.761719-8.347656-23.996094-21.007813-25.777344zm0 0" fill="#fb7b76"/><path d="m176.53125 70.453125c-11.320312-.542969-22.027344-5.304687-30.011719-13.347656-15.980469-16.3125 7.941407-24.480469 23.957031-32.660157 10.164063-5.675781 18.472657-14.164062 23.929688-24.445312 5.460938 10.296875 13.78125 18.792969 23.960938 24.46875 15.640624 7.945312 15.96875 31.621094-6.523438 40.265625zm0 0" fill="#fdd7ad"/><path d="m511.980469 344.277344-.175781 1.058594-25.160157 151.921874c-1.421875 8.5-8.773437 14.730469-17.390625 14.742188h-108.753906c-8.621094-.011719-15.96875-6.242188-17.390625-14.742188l-25.160156-151.921874-.175781-1.058594zm0 0" fill="#fdd7ad"/><g fill="#f5efca"><path d="m386.1875 512c.011719-.414062-.019531-.828125-.089844-1.234375l-5.117187-35.3125c-.394531-3.164063-2.464844-5.875-5.414063-7.082031-2.953125-1.210938-6.328125-.734375-8.828125 1.246094-2.503906 1.980468-3.738281 5.15625-3.238281 8.308593l4.945312 34.074219zm0 0"/><path d="m367.109375 450.207031c-4.378906-.007812-8.09375-3.226562-8.71875-7.566406l-11.125-76.976563c-.582031-3.179687.621094-6.425781 3.132813-8.457031 2.515624-2.03125 5.941406-2.527343 8.929687-1.289062 2.984375 1.234375 5.058594 4.007812 5.398437 7.222656l11.125 76.976563c.332032 2.316406-.265624 4.675781-1.667968 6.550781s-3.492188 3.117187-5.8125 3.449219c-.417969.0625-.839844.089843-1.261719.089843zm0 0"/><path d="m459.101562 512 4.945313-34.074219c.5-3.152343-.738281-6.328125-3.238281-8.308593-2.5-1.980469-5.875-2.457032-8.828125-1.246094-2.953125 1.207031-5.019531 3.917968-5.414063 7.082031l-5.117187 35.3125c-.070313.40625-.101563.820313-.089844 1.234375zm0 0"/><path d="m460.4375 450.207031c-.425781 0-.847656-.027343-1.265625-.089843-2.316406-.332032-4.40625-1.574219-5.808594-3.449219-1.402343-1.875-2.003906-4.234375-1.667969-6.550781l11.035157-76.445313c.34375-3.21875 2.414062-5.988281 5.402343-7.226563 2.988282-1.238281 6.410157-.742187 8.925782 1.292969 2.515625 2.03125 3.714844 5.277344 3.132812 8.457031l-11.035156 76.445313c-.625 4.339844-4.339844 7.558594-8.71875 7.566406zm0 0"/><path d="m423.703125 512v-35.308594c0-4.878906-3.953125-8.828125-8.828125-8.828125s-8.824219 3.949219-8.824219 8.828125v35.308594zm0 0"/><path d="m414.875 450.207031c-4.875 0-8.824219-3.953125-8.824219-8.828125v-70.621094c0-4.875 3.949219-8.828124 8.824219-8.828124s8.828125 3.953124 8.828125 8.828124v70.621094c0 4.875-3.953125 8.828125-8.828125 8.828125zm0 0"/></g><path d="m491.410156 320.882812c12.890625 5.207032 20.570313 11.828126 20.570313 18.980469.011719 1.402344-.289063 2.789063-.882813 4.058594-3.53125 8.652344-18.363281 16.15625-39.636718 21.011719-18.585938 4.042968-37.566407 5.996094-56.585938 5.824218-19.804688.175782-39.566406-1.957031-58.878906-6.355468-20.039063-4.855469-33.898438-12.183594-37.339844-20.480469-.59375-1.269531-.898438-2.65625-.882812-4.058594 0-7.152343 7.679687-13.773437 20.566406-18.980469zm0 0" fill="#cb8252"/><path d="m485.496094 328.28125c7.78125-6.863281 10.757812-17.6875 7.578125-27.5625-3.179688-9.878906-11.90625-16.933594-22.230469-17.972656h-111.933594c-13.707031.792968-24.199218 12.507812-23.480468 26.21875-1.132813 7.617187 2.328124 15.1875 8.828124 19.316406 70.617188 42.476562 141.238282 0 141.238282 0zm0 0" fill="#ff5364"/><path d="m373.296875 239.140625h-.085937c-12.273438 2.183594-20.941407 13.246094-20.128907 25.6875 0 16.320313 10.4375 25.945313 26.484375 30.894531l35.308594 4.414063c34.339844 0 61.792969-8.828125 61.792969-35.308594.808593-12.761719-8.34375-23.996094-21.007813-25.777344zm0 0" fill="#fb7b76"/><path d="m406.050781 255.832031c-11.320312-.542969-22.027343-5.304687-30.015625-13.347656-15.976562-16.3125 7.945313-24.476563 23.957032-32.660156 10.164062-5.675781 18.476562-14.164063 23.933593-24.445313 5.460938 10.296875 13.777344 18.792969 23.957031 24.46875 15.644532 7.992188 15.96875 31.621094-6.523437 40.265625zm0 0" fill="#fdd7ad"/></svg>