<svg height="512pt" viewBox="0 0 512.10299 512" width="512pt" xmlns="http://www.w3.org/2000/svg"><g fill="#805333"><path d="m211.863281 467.917969v35.308593c0 4.875-3.953125 8.828126-8.828125 8.828126h-158.898437c-4.875 0-8.828125-3.953126-8.828125-8.828126v-35.308593zm0 0"/><path d="m192.679688 78.796875-9.523438-19.914063c-2.105469-4.394531-7.375-6.25-11.769531-4.152343l-143.351563 68.558593c-2.109375 1.007813-3.734375 2.816407-4.511718 5.027344-.777344 2.207032-.648438 4.636719.363281 6.746094l11.421875 23.886719 155.296875-74.265625c1.054687-.503906 1.867187-1.410156 2.257812-2.511719.386719-1.105469.324219-2.320313-.183593-3.375zm0 0"/><path d="m88.277344 317.847656c0 87.746094-52.96875 158.894532-52.96875 158.894532-22.628906-49.953126-34.652344-104.058594-35.308594-158.894532.65625-54.835937 12.679688-108.941406 35.308594-158.898437 0 0 52.96875 71.152343 52.96875 158.898437zm0 0"/></g><path d="m247.171875 317.847656c-.65625 54.835938-12.679687 108.941406-35.308594 158.894532h-176.554687c22.632812-49.953126 34.65625-104.058594 35.3125-158.894532-.65625-54.835937-12.679688-108.941406-35.3125-158.898437h170.902344c3.480468-.019531 6.636718 2.027343 8.035156 5.210937 21.042968 48.542969 32.234375 100.78125 32.925781 153.6875zm0 0" fill="#cb8252"/><path d="m185.730469 282.800781c-2.734375 4.855469-10.148438 29.484375-26.832031 35.046875-14.039063 5.355469-26.363282 14.417969-35.664063 26.21875-13.417969-13.773437-10.507813-38.488281 6.441406-55.4375 17.128907-17.125 42.109375-19.953125 55.792969-6.179687.085938.085937.261719.265625.261719.351562zm0 0" fill="#7f6e5d"/><path d="m179.289062 338.238281c-17.125 17.125-42.109374 19.949219-55.792968 6.179688-.085938-.085938-.261719-.265625-.261719-.351563 2.734375-4.855468 14.5625-25.070312 31.25-30.632812 16.683594-5.5625 28.511719-25.777344 31.246094-30.632813 13.417969 13.773438 10.507812 38.488281-6.441407 55.4375zm0 0" fill="#cbb292"/><path d="m317.441406 439.667969v.089843c-18.890625 3.53125-37.871094-12.535156-42.726562-36.105468-4.765625-23.746094 6.707031-46.082032 25.6875-49.964844.175781 0 .265625-.089844.441406-.089844v.179688c2.558594 4.941406 21.539062 25.953125 16.949219 42.898437-3.851563 14.058594-3.972657 28.875-.351563 42.992188zm0 0" fill="#7f6e5d"/><path d="m317.882812 439.667969c-.179687 0-.265624.089843-.441406.089843v-.089843c-2.648437-4.945313-12.890625-25.953125-8.300781-42.992188 4.589844-17.035156-5.738281-37.957031-8.296875-42.898437v-.179688c18.890625-3.441406 37.871094 12.535156 42.636719 36.105469 4.855469 23.746094-6.621094 46.167969-25.597657 49.964844zm0 0" fill="#cbb292"/><path d="m397.066406 141.101562 55.125-122.183593c3.347656-7.273438 9.234375-13.078125 16.554688-16.320313 7.691406-3.332031 16.402344-3.394531 24.140625-.175781 8.46875 3.800781 14.910156 11.039063 17.703125 19.890625 2.796875 8.851562 1.679687 18.476562-3.066406 26.453125l-62.347657 110.804687zm0 0" fill="#7f8c8d"/><path d="m360.960938 315.640625 62.761718-165.515625 26.660156 11.914062c13.40625 14.566407 22.433594 32.621094 26.042969 52.085938 5.914063 22.066406-71.0625 89.773438-115.464843 101.515625zm0 0" fill="#95a5a5"/><path d="m450.382812 162.039062-.175781.179688-89.246093 153.421875h-.089844c-44.402344 11.742187-78.386719-26.660156-78.386719-26.660156l15.09375-34.074219 32.398437-72.914062 12.003907-27.015626s41.402343-22.863281 80.597656-9.53125c10.375 3.417969 19.871094 9.085938 27.804687 16.59375zm0 0" fill="#bdc3c7"/><path d="m326.003906 264.265625v.175781c-18.890625 3.441406-37.871094-12.535156-42.636718-36.105468-4.855469-23.746094 6.617187-46.167969 25.6875-49.964844.125.011718.25-.019532.351562-.089844v.089844c2.648438 4.945312 21.804688 25.953125 17.214844 42.992187-3.851563 14.015625-4.066406 28.78125-.617188 42.902344zm0 0" fill="#cbb292"/><path d="m326.445312 264.351562c-.175781 0-.265624.089844-.441406.089844v-.175781c-2.5625-4.945313-12.890625-25.953125-8.300781-42.902344 4.59375-16.949219-5.648437-38.046875-8.296875-42.992187v-.089844c18.890625-3.617188 37.871094 12.539062 42.726562 36.105469 4.765626 23.746093-6.710937 46.082031-25.6875 49.964843zm0 0" fill="#7f6e5d"/></svg>