<svg height="512pt" viewBox="0 0 512.00825 512" width="512pt" xmlns="http://www.w3.org/2000/svg"><path d="m43.390625 112.8125h312.40625v190.914062h-312.40625zm0 0" fill="#cbb292"/><path d="m321.085938 164.878906v138.847656h-242.984376v-138.847656c0-4.792968 3.886719-8.675781 8.679688-8.675781h225.625c4.792969 0 8.679688 3.882813 8.679688 8.675781zm0 0" fill="#7f6e5d"/><path d="m156.289062 34.710938h-78.1875c-9.585937 0-17.355468 7.769531-17.355468 17.355468v43.390625h277.695312v-43.390625c0-9.585937-7.769531-17.355468-17.355468-17.355468h-82.007813" fill="#fdd7ad"/><path d="m233.699219 76.886719c0 .085937-.175781.257812-.261719.347656-14.925781 15.011719-42.261719 11.972656-60.917969-6.769531-18.574219-18.484375-21.695312-45.558594-7.03125-60.574219 8.476563 11.652344 20.410157 20.335937 34.105469 24.820313 18.222656 6.074218 31.152344 36.792968 34.105469 42.175781zm0 0" fill="#7f6e5d"/><path d="m233.699219 76.886719c-2.953125-5.382813-15.882813-27.421875-34.105469-33.496094-18.222656-6.078125-31.15625-28.117187-34.105469-33.5 0-.085937.175781-.257813.261719-.347656 14.925781-15.011719 42.261719-11.972657 60.917969 6.769531 18.570312 18.484375 21.695312 45.558594 7.03125 60.574219zm0 0" fill="#cbb292"/><path d="m43.390625 347.117188v138.847656c0 9.585937 7.769531 17.355468 17.355469 17.355468h277.695312c9.585938 0 17.355469-7.769531 17.355469-17.355468v-138.847656zm0 0" fill="#7f6e5d"/><path d="m381.832031 321.082031v43.390625c0 14.378906-11.65625 26.035156-26.035156 26.035156s-26.035156-11.65625-26.035156-26.035156h-52.066407c0 14.378906-11.65625 26.035156-26.035156 26.035156s-26.03125-11.65625-26.03125-26.035156h-52.070312c0 14.378906-11.65625 26.035156-26.03125 26.035156-14.378906 0-26.035156-11.65625-26.035156-26.035156h-52.070313c0 14.378906-11.652344 26.035156-26.03125 26.035156s-26.035156-11.65625-26.035156-26.035156v-43.390625zm0 0" fill="#cc4b4c"/><path d="m17.355469 86.777344h364.476562c9.582031 0 17.355469 7.773437 17.355469 17.355468 0 9.585938-7.773438 17.359376-17.355469 17.359376h-364.476562c-9.585938 0-17.355469-7.773438-17.355469-17.359376 0-9.582031 7.769531-17.355468 17.355469-17.355468zm0 0" fill="#805333"/><path d="m86.78125 477.289062h-8.679688c-4.792968 0-8.679687-3.886718-8.679687-8.679687s3.886719-8.679687 8.679687-8.679687h8.679688c4.792969 0 8.675781 3.886718 8.675781 8.679687s-3.882812 8.679687-8.675781 8.679687zm0 0" fill="#fff"/><path d="m216.949219 477.289062h-95.457031c-4.792969 0-8.679688-3.886718-8.679688-8.679687s3.886719-8.679687 8.679688-8.679687h95.457031c4.792969 0 8.679687 3.886718 8.679687 8.679687s-3.886718 8.679687-8.679687 8.679687zm0 0" fill="#fff"/><g fill="#c03a2b"><path d="m503.320312 364.472656h-86.777343c-4.792969 0-8.679688-3.882812-8.679688-8.675781s3.886719-8.679687 8.679688-8.679687h86.777343c4.792969 0 8.679688 3.886718 8.679688 8.679687s-3.886719 8.675781-8.679688 8.675781zm0 0"/><path d="m416.542969 512c-.34375 0-.683594-.019531-1.023438-.0625-4.761719-.558594-8.164062-4.871094-7.601562-9.632812l17.355469-147.523438c.628906-4.695312 4.910156-8.019531 9.613281-7.464844 4.707031.554688 8.097656 4.78125 7.621093 9.496094l-17.355468 147.523438c-.515625 4.367187-4.214844 7.65625-8.609375 7.664062zm0 0"/><path d="m503.320312 512c-4.394531-.007812-8.09375-3.296875-8.605468-7.664062l-17.355469-147.523438c-.417969-3.105469.871094-6.195312 3.371094-8.085938 2.503906-1.886718 5.828125-2.277343 8.699219-1.023437 2.875 1.253906 4.847656 3.960937 5.164062 7.078125l17.355469 147.523438c.558593 4.761718-2.84375 9.074218-7.601563 9.632812-.339844.042969-.683594.0625-1.027344.0625zm0 0"/><path d="m494.125 433.898438h-68.382812c-4.792969 0-8.679688-3.886719-8.679688-8.679688s3.886719-8.675781 8.679688-8.675781h68.382812c4.792969 0 8.675781 3.882812 8.675781 8.675781s-3.882812 8.679688-8.675781 8.679688zm0 0"/></g><path d="m17.355469 295.050781h364.476562c9.582031 0 17.355469 7.769531 17.355469 17.355469s-7.773438 17.355469-17.355469 17.355469h-364.476562c-9.585938 0-17.355469-7.769531-17.355469-17.355469s7.769531-17.355469 17.355469-17.355469zm0 0" fill="#805333"/><path d="m69.421875 329.761719h52.070313v34.710937c0 14.378906-11.65625 26.035156-26.035157 26.035156-14.378906 0-26.035156-11.65625-26.035156-26.035156zm0 0" fill="#e6e7e8"/><path d="m173.558594 329.761719h52.070312v34.710937c0 14.378906-11.65625 26.035156-26.035156 26.035156s-26.035156-11.65625-26.035156-26.035156zm0 0" fill="#e6e7e8"/><path d="m277.695312 329.761719h52.066407v34.710937c0 14.378906-11.65625 26.035156-26.03125 26.035156-14.378907 0-26.035157-11.65625-26.035157-26.035156zm0 0" fill="#e6e7e8"/></svg>