<svg height="512pt" viewBox="-44 0 512 512" width="512pt" xmlns="http://www.w3.org/2000/svg"><path d="m176.550781 229.515625h70.621094v79.449219h-70.621094zm0 0" fill="#95a5a5"/><path d="m114.757812 176.550781h-94.535156c-10.429687.628907-19.4375-7.234375-20.222656-17.652343v-70.621094c.785156-10.421875 9.792969-18.285156 20.222656-17.65625h94.535156" fill="#cb8252"/><path d="m300.136719 70.621094h101.808593c10.84375-.984375 20.5 6.84375 21.777344 17.65625v70.621094c-1.277344 10.808593-10.933594 18.636718-21.777344 17.652343h-101.808593" fill="#cb8252"/><path d="m335.449219 123.585938c0 68.253906-55.332031 123.585937-123.585938 123.585937-68.257812 0-123.585937-55.332031-123.585937-123.585937 0-68.253907 55.328125-123.585938 123.585937-123.585938 68.253907 0 123.585938 55.332031 123.585938 123.585938zm0 0" fill="#7f8c8d"/><path d="m300.136719 123.585938c0 48.753906-39.519531 88.277343-88.273438 88.277343-48.753906 0-88.277343-39.523437-88.277343-88.277343 0-48.753907 39.523437-88.277344 88.277343-88.277344 48.753907 0 88.273438 39.523437 88.273438 88.277344zm0 0" fill="#bdc3c7"/><g fill="#5e5f62"><path d="m211.863281 79.449219c-1.15625-.015625-2.292969-.253907-3.355469-.707031-1.070312-.449219-2.054687-1.074219-2.914062-1.855469-2.527344-2.523438-3.261719-6.335938-1.851562-9.621094.445312-1.070313 1.074218-2.054687 1.851562-2.914063 2.527344-2.542968 6.339844-3.308593 9.652344-1.933593s5.464844 4.617187 5.445312 8.203125c.023438 2.347656-.902344 4.605468-2.5625 6.265625-.859375.78125-1.84375 1.40625-2.914062 1.855469-1.058594.453124-2.199219.691406-3.351563.707031zm0 0"/><path d="m180.648438 92.371094c-.824219.8125-1.796876 1.449218-2.871094 1.882812-1.074219.433594-2.214844.683594-3.371094.738282-3.570312 0-6.78125-2.167969-8.113281-5.480469-.4375-1.078125-.691407-2.21875-.75-3.382813-.011719-3.582031 2.144531-6.820312 5.457031-8.191406 3.3125-1.367188 7.125-.597656 9.648438 1.953125 1.6875 1.636719 2.640624 3.886719 2.648437 6.238281-.054687 1.160156-.308594 2.300782-.75 3.375-.433594 1.074219-1.082031 2.046875-1.898437 2.867188zm0 0"/><path d="m167.722656 123.585938c-.011718 1.152343-.253906 2.292968-.703125 3.355468-.449219 1.070313-1.078125 2.054688-1.855469 2.914063-2.527343 2.527343-6.335937 3.257812-9.621093 1.851562-1.070313-.445312-2.054688-1.074219-2.914063-1.851562-2.546875-2.527344-3.3125-6.34375-1.9375-9.65625 1.375-3.308594 4.617188-5.460938 8.207032-5.441407 2.347656-.023437 4.605468.898438 6.265624 2.5625.777344.855469 1.40625 1.84375 1.855469 2.910157.449219 1.0625.691407 2.203125.703125 3.355469zm0 0"/><path d="m180.648438 154.800781c.808593.824219 1.449218 1.796875 1.878906 2.867188.4375 1.074219.6875 2.214843.742187 3.375 0 3.566406-2.171875 6.777343-5.480469 8.109375-1.078124.441406-2.222656.695312-3.382812.753906-3.585938.011719-6.824219-2.144531-8.191406-5.457031-1.371094-3.316407-.597656-7.128907 1.949218-9.648438 1.640626-1.6875 3.890626-2.640625 6.242188-2.648437 1.160156.054687 2.300781.308594 3.371094.75 1.074218.433594 2.050781 1.078125 2.871094 1.898437zm0 0"/><path d="m211.863281 167.722656c1.152344.015625 2.292969.253906 3.351563.707032 1.070312.449218 2.054687 1.074218 2.914062 1.855468 2.527344 2.527344 3.261719 6.335938 1.855469 9.621094-.449219 1.070312-1.074219 2.054688-1.855469 2.914062-2.523437 2.546876-6.339844 3.3125-9.652344 1.933594-3.3125-1.375-5.464843-4.617187-5.441406-8.203125-.023437-2.347656.898438-4.605469 2.558594-6.265625.859375-.78125 1.84375-1.40625 2.914062-1.855468 1.0625-.453126 2.199219-.691407 3.355469-.707032zm0 0"/><path d="m243.078125 154.800781c.820313-.808593 1.796875-1.449219 2.867187-1.878906 1.074219-.4375 2.214844-.6875 3.371094-.742187 3.570313 0 6.78125 2.167968 8.113282 5.480468.4375 1.078125.691406 2.21875.75 3.382813.015624 3.585937-2.140626 6.820312-5.457032 8.191406-3.3125 1.367187-7.125.597656-9.644531-1.953125-1.6875-1.636719-2.644531-3.886719-2.648437-6.238281.050781-1.160157.304687-2.300781.75-3.375.433593-1.074219 1.078124-2.046875 1.898437-2.867188zm0 0"/><path d="m256 123.585938c.015625-1.152344.253906-2.292969.707031-3.355469.445313-1.066407 1.074219-2.054688 1.851563-2.910157 2.527344-2.527343 6.339844-3.261718 9.625-1.855468 1.066406.449218 2.054687 1.074218 2.910156 1.855468 2.546875 2.523438 3.3125 6.339844 1.9375 9.652344s-4.617188 5.460938-8.203125 5.441406c-2.347656.023438-4.609375-.898437-6.269531-2.558593-.777344-.859375-1.40625-1.84375-1.851563-2.914063-.453125-1.0625-.691406-2.203125-.707031-3.355468zm0 0"/><path d="m243.078125 92.371094c-.8125-.820313-1.449219-1.796875-1.882813-2.867188-.433593-1.074218-.683593-2.214844-.742187-3.375.003906-3.566406 2.171875-6.777344 5.484375-8.109375 1.074219-.441406 2.21875-.691406 3.378906-.75 3.585938-.015625 6.824219 2.140625 8.191406 5.453125 1.371094 3.316406.601563 7.128906-1.949218 9.648438-1.636719 1.6875-3.890625 2.644531-6.242188 2.648437-1.15625-.050781-2.296875-.304687-3.371094-.75-1.074218-.433593-2.050781-1.078125-2.867187-1.898437zm0 0"/><path d="m198.195312 107.457031c-1.0625-.4375-2.03125-1.085937-2.851562-1.898437-.824219-.8125-1.507812-1.761719-2.011719-2.804688-1.410156-3.285156-.679687-7.09375 1.847657-9.621094.8125-.828124 1.761718-1.511718 2.804687-2.015624 3.289063-1.425782 7.117187-.71875 9.679687 1.789062 2.566407 2.503906 3.359376 6.3125 2.007813 9.636719-.855469 2.183593-2.550781 3.9375-4.703125 4.871093-1.085938.402344-2.234375.617188-3.390625.636719-1.15625.023438-2.304687-.175781-3.382813-.59375zm0 0"/><path d="m195.734375 137.25c-.441406 1.066406-1.085937 2.035156-1.898437 2.851562-.8125.828126-1.761719 1.507813-2.808594 2.015626-3.28125 1.40625-7.089844.675781-9.621094-1.847657-.828125-.8125-1.507812-1.761719-2.011719-2.804687-1.425781-3.292969-.71875-7.117188 1.785157-9.679688 2.507812-2.566406 6.316406-3.359375 9.636718-2.007812 2.1875.855468 3.941406 2.550781 4.875 4.703125.398438 1.085937.613282 2.230469.632813 3.390625.027343 1.152344-.171875 2.304687-.589844 3.378906zm0 0"/><path d="m225.527344 139.714844c1.066406.441406 2.035156 1.085937 2.851562 1.898437.828125.8125 1.507813 1.761719 2.011719 2.804688 1.410156 3.285156.679687 7.09375-1.84375 9.625-.8125.824219-1.761719 1.507812-2.808594 2.011719-3.289062 1.425781-7.113281.71875-9.679687-1.789063-2.5625-2.503906-3.355469-6.3125-2.007813-9.632813.859375-2.1875 2.550781-3.941406 4.707031-4.875 1.085938-.402343 2.230469-.617187 3.386719-.636718 1.15625-.023438 2.304688.175781 3.382813.59375zm0 0"/><path d="m227.988281 109.921875c.441407-1.066406 1.085938-2.035156 1.898438-2.851563.8125-.828124 1.765625-1.507812 2.808593-2.011718 3.28125-1.410156 7.09375-.679688 9.621094 1.84375.828125.8125 1.507813 1.761718 2.011719 2.808594 1.425781 3.289062.722656 7.113281-1.785156 9.679687-2.507813 2.5625-6.3125 3.355469-9.636719 2.007813-2.183594-.859376-3.9375-2.550782-4.871094-4.707032-.402344-1.085937-.617187-2.230468-.636718-3.390625-.027344-1.152343.175781-2.300781.589843-3.378906zm0 0"/><path d="m176.550781 300.136719h70.621094c9.75 0 17.65625 7.90625 17.65625 17.65625v176.550781c0 9.75-7.90625 17.65625-17.65625 17.65625h-70.621094c-9.75 0-17.652343-7.90625-17.652343-17.65625v-176.550781c0-9.75 7.902343-17.65625 17.652343-17.65625zm0 0"/></g><path d="m194.207031 432.550781c-4.875 0-8.828125-3.953125-8.828125-8.828125v-79.445312c0-4.875 3.953125-8.828125 8.828125-8.828125s8.828125 3.953125 8.828125 8.828125v79.445312c0 4.875-3.953125 8.828125-8.828125 8.828125zm0 0" fill="#bdc3c7"/><path d="m194.207031 476.691406c-4.875 0-8.828125-3.953125-8.828125-8.828125v-8.828125c0-4.875 3.953125-8.828125 8.828125-8.828125s8.828125 3.953125 8.828125 8.828125v8.828125c0 4.875-3.953125 8.828125-8.828125 8.828125zm0 0" fill="#bdc3c7"/></svg>