<svg height="511pt" viewBox="0 -61 511.76079 511" width="511pt" xmlns="http://www.w3.org/2000/svg"><path d="m361.671875 221.09375c-4.875 0-8.824219-3.949219-8.824219-8.828125v-26.480469c0-4.875 3.949219-8.828125 8.824219-8.828125 4.878906 0 8.828125 3.953125 8.828125 8.828125v26.480469c0 4.878906-3.949219 8.828125-8.828125 8.828125zm0 0" fill="#cbb292"/><path d="m388.15625 159.300781c0 14.628907-11.855469 26.484375-26.484375 26.484375-14.625 0-26.480469-11.855468-26.480469-26.484375 0-14.625 11.855469-26.480469 26.480469-26.480469 14.628906 0 26.484375 11.855469 26.484375 26.480469zm0 0" fill="#4c8056"/><path d="m291.054688 53.371094h-194.207032v-45.902344c0-4.140625 2.648438-7.40625 5.761719-7.0625l183.554687 20.125c3.148438.824219 5.226563 3.824219 4.890626 7.0625zm0 0" fill="#7f5b53"/><path d="m99.652344 123.992188-2.804688-52.964844h194.207032l-2.808594 52.964844-94.296875 17.65625zm0 0" fill="#cbb292"/><path d="m112.886719 335.855469-4.433594-63.207031-1.71875-25.070313 60.730469-35.3125 97.105468 26.484375-17.65625 105.929688zm0 0" fill="#cbb292"/><path d="m299.878906 212.265625v-83.152344c-.164062-2.964843-2.683594-5.246093-5.648437-5.121093h-200.5625c-2.964844-.125-5.484375 2.15625-5.648438 5.121093v113.34375c.164063 2.964844 2.683594 5.246094 5.648438 5.121094h109.109375" fill="#af8066"/><path d="m88.019531 44.542969h211.859375c4.875 0 8.828125 3.953125 8.828125 8.828125v17.65625c0 4.875-3.953125 8.828125-8.828125 8.828125h-211.859375c-4.875 0-8.828125-3.953125-8.828125-8.828125v-17.65625c0-4.875 3.953125-8.828125 8.828125-8.828125zm0 0" fill="#af8066"/><g fill="#7f5b53"><path d="m140.984375 194.613281c-4.875 0-8.828125-3.953125-8.828125-8.828125v-26.484375c0-4.875 3.953125-8.828125 8.828125-8.828125s8.828125 3.953125 8.828125 8.828125v26.484375c0 4.875-3.953125 8.828125-8.828125 8.828125zm0 0"/><path d="m176.292969 194.613281c-4.875 0-8.828125-3.953125-8.828125-8.828125v-26.484375c0-4.875 3.953125-8.828125 8.828125-8.828125s8.828125 3.953125 8.828125 8.828125v26.484375c0 4.875-3.953125 8.828125-8.828125 8.828125zm0 0"/><path d="m211.605469 185.785156c-4.875 0-8.828125-3.953125-8.828125-8.828125v-17.65625c0-4.875 3.953125-8.828125 8.828125-8.828125s8.828125 3.953125 8.828125 8.828125v17.65625c0 4.875-3.953125 8.828125-8.828125 8.828125zm0 0"/><path d="m246.914062 185.785156c-4.875 0-8.828124-3.953125-8.828124-8.828125v-17.65625c0-4.875 3.953124-8.828125 8.828124-8.828125s8.828126 3.953125 8.828126 8.828125v17.65625c0 4.875-3.953126 8.828125-8.828126 8.828125zm0 0"/></g><path d="m211.605469 212.265625h176.550781c4.875 0 8.828125 3.953125 8.828125 8.828125v123.585938h-194.207031v-123.585938c0-4.875 3.953125-8.828125 8.828125-8.828125zm0 0" fill="#cb8252"/><path d="m396.984375 247.578125h-194.207031v35.308594h70.621094l35.308593 17.65625 26.484375-17.65625h61.792969zm0 0" fill="#f0c419"/><path d="m449.949219 388.820312h-388.414063c-11.136718 0-21.085937-6.96875-24.894531-17.4375l-34.789063-95.699218c-5.207031-13.484375.917969-28.703125 14.019532-34.816406 6.6875-2.839844 14.253906-2.808594 20.917968.085937 6.664063 2.898437 11.847657 8.410156 14.328126 15.242187l26.855468 73.851563c1.265625 3.480469 4.574219 5.800781 8.28125 5.808594h338.976563c3.714843 0 7.03125-2.320313 8.300781-5.808594l26.339844-72.449219c4.675781-13.671875 19.136718-21.386718 33.09375-17.65625 6.96875 2.113282 12.757812 7 16.007812 13.515625 3.25 6.511719 3.679688 14.074219 1.179688 20.914063l-35.308594 97.101562c-3.835938 10.433594-13.777344 17.363282-24.894531 17.347656zm0 0" fill="#c03a2b"/></svg>