<svg height="512pt" viewBox="0 -4 512 512" width="512pt" xmlns="http://www.w3.org/2000/svg"><path d="m60.746094 442.578125h208.269531v43.386719c0 9.585937-7.769531 17.355468-17.355469 17.355468h-173.558594c-9.585937 0-17.355468-7.769531-17.355468-17.355468zm0 0" fill="#95a5a5"/><path d="m269.015625 451.253906c18.015625-16.679687 27.578125-40.578125 26.035156-65.085937 0-29.589844-16.574219-55.449219-43.390625-73.761719l-34.710937-17.355469h-95.457031l-43.390626 17.355469c-26.816406 18.3125-43.390624 44.171875-43.390624 73.761719-1.539063 24.507812 8.019531 48.40625 26.035156 65.085937zm0 0" fill="#7f6e5d"/><path d="m95.457031 260.339844h138.847657l17.355468 52.066406h-173.558594zm0 0" fill="#95a5a5"/><path d="m407.863281 425.21875h-26.03125c-23.953125-.027344-43.363281-19.4375-43.390625-43.386719v-52.070312c.027344-23.949219 19.4375-43.359375 43.390625-43.390625h13.882813c4.792968 0 8.679687 3.886718 8.679687 8.679687s-3.886719 8.679688-8.679687 8.679688h-13.882813c-14.378906 0-26.035156 11.652343-26.035156 26.03125v52.070312c0 14.375 11.65625 26.03125 26.035156 26.03125h17.355469v-11.453125c0-4.792968 3.882812-8.679687 8.675781-8.679687s8.679688 3.886719 8.679688 8.679687v20.132813c0 4.792969-3.886719 8.675781-8.679688 8.675781zm0 0" fill="#b0d3f0"/><path d="m286.371094 17.355469s0 147.527343-52.066406 208.273437v26.03125h-138.847657v-26.03125c-52.066406-60.746094-52.066406-208.273437-52.066406-208.273437zm0 0" fill="#90bae1"/><path d="m249.378906 69.421875c-.261718 0-.53125 0-.789062 0-2.292969-.207031-4.414063-1.316406-5.886719-3.085937-1.476563-1.769532-2.1875-4.050782-1.976563-6.34375.273438-2.921876.511719-5.769532.71875-8.539063.175782-3.136719 2.03125-5.933594 4.851563-7.3125 2.824219-1.378906 6.167969-1.128906 8.75.660156 2.582031 1.785157 4 4.828125 3.703125 7.953125-.207031 2.855469-.460938 5.804688-.738281 8.816406-.421875 4.453126-4.160157 7.851563-8.632813 7.851563zm0 0" fill="#e6e7e8"/><path d="m216.949219 198.890625c-1.527344-.007813-3.023438-.417969-4.339844-1.199219-4.132813-2.421875-5.519531-7.734375-3.097656-11.871094 11.722656-19.957031 21.105469-51.695312 27.136719-91.65625.464843-3.066406 2.53125-5.652343 5.417968-6.78125 2.886719-1.128906 6.160156-.632812 8.582032 1.300782 2.421874 1.9375 3.628906 5.019531 3.164062 8.085937-6.445312 42.71875-16.3125 75.644531-29.320312 97.851563-1.574219 2.664062-4.449219 4.292968-7.542969 4.269531zm0 0" fill="#e6e7e8"/><path d="m237.777344 269.015625h-145.789063l-13.226562-31.492187c-1.070313-2.738282-.6875-5.835938 1.019531-8.230469 1.703125-2.398438 4.5-3.777344 7.441406-3.664063h155.335938c2.9375-.113281 5.738281 1.265625 7.441406 3.664063 1.707031 2.394531 2.089844 5.492187 1.019531 8.230469zm0 0" fill="#bdc3c7"/><path d="m253.484375 425.21875c-3.144531 0-6.039063-1.707031-7.570313-4.453125s-1.457031-6.101563.191407-8.777344c4.183593-7.9375 6.105469-16.867187 5.554687-25.820312-.566406-12.804688-6.730468-24.714844-16.851562-32.574219-2.441406-2.027344-3.585938-5.226562-2.976563-8.339844.609375-3.117187 2.867188-5.652344 5.890625-6.613281 3.027344-.957031 6.335938-.191406 8.628906 2.003906 13.824219 11.148438 22.101563 27.773438 22.664063 45.523438.601563 12.175781-2.21875 24.277343-8.136719 34.929687-1.582031 2.566406-4.382812 4.125-7.394531 4.121094zm0 0" fill="#e6e7e8"/><path d="m510.871094 261.378906-8.242188 68.382813-60.050781 17.355469-60.054687-17.355469-8.242188-68.382813c-.300781-2.472656.480469-4.960937 2.140625-6.820312s4.042969-2.914063 6.535156-2.898438h119.238281c2.492188-.015625 4.875 1.039063 6.535157 2.898438 1.660156 1.859375 2.441406 4.347656 2.140625 6.820312zm0 0" fill="#90bae1"/><path d="m502.628906 329.761719-5.207031 43.390625-54.84375 8.679687-54.847656-8.679687-5.207031-43.390625zm0 0" fill="#cbb292"/><path d="m497.421875 373.152344-11.457031 95.457031-43.386719 8.679687-43.390625-8.679687-11.457031-95.457031zm0 0" fill="#7f6e5d"/><path d="m502.800781 503.320312h-120.449219c-3.589843.171876-6.910156-1.890624-8.355468-5.179687-1.441406-3.292969-.707032-7.132813 1.847656-9.65625l23.34375-19.875h86.777344l23.34375 19.875c2.554687 2.523437 3.289062 6.363281 1.847656 9.65625-1.445312 3.289063-4.765625 5.351563-8.355469 5.179687zm0 0" fill="#90bae1"/><g fill="#cbb292"><path d="m407.863281 225.628906c-3.003906-.003906-5.796875-1.5625-7.375-4.117187-1.582031-2.558594-1.726562-5.753907-.382812-8.441407l3.550781-7.089843c1.398438-2.792969.847656-6.167969-1.363281-8.375-8.28125-8.296875-9.578125-21.277344-3.105469-31.050781l10.109375-15.167969c1.71875-2.578125 4.6875-4.042969 7.78125-3.84375s5.847656 2.035156 7.21875 4.816406c1.375 2.777344 1.160156 6.082031-.558594 8.660156l-10.085937 15.144531c-1.925782 2.867188-1.5625 6.691407.867187 9.144532 7.503907 7.484375 9.367188 18.9375 4.617188 28.414062l-3.539063 7.078125c-1.457031 2.941407-4.449218 4.808594-7.734375 4.828125zm0 0"/><path d="m442.578125 225.628906c-3.007813-.003906-5.800781-1.5625-7.378906-4.117187-1.582031-2.558594-1.726563-5.753907-.382813-8.441407l3.550782-7.089843c1.398437-2.792969.847656-6.167969-1.363282-8.375-8.28125-8.296875-9.578125-21.277344-3.105468-31.050781l10.109374-15.167969c1.722657-2.578125 4.6875-4.042969 7.78125-3.84375s5.847657 2.035156 7.21875 4.816406c1.375 2.777344 1.160157 6.082031-.558593 8.660156l-10.085938 15.144531c-1.921875 2.867188-1.558593 6.691407.867188 9.144532 7.507812 7.484375 9.367187 18.9375 4.617187 28.414062l-3.539062 7.078125c-1.457032 2.941407-4.449219 4.808594-7.730469 4.828125zm0 0"/><path d="m477.289062 225.628906c-3.007812-.003906-5.796874-1.5625-7.378906-4.117187-1.582031-2.558594-1.722656-5.753907-.378906-8.441407l3.546875-7.089843c1.398437-2.792969.851563-6.167969-1.359375-8.375-8.28125-8.296875-9.582031-21.277344-3.109375-31.050781l10.109375-15.167969c1.722656-2.578125 4.6875-4.042969 7.78125-3.84375s5.847656 2.035156 7.222656 4.816406c1.371094 2.777344 1.15625 6.082031-.5625 8.660156l-10.082031 15.144531c-1.925781 2.867188-1.5625 6.691407.867187 9.144532 7.503907 7.484375 9.363282 18.9375 4.617188 28.414062l-3.542969 7.078125c-1.457031 2.941407-4.449219 4.808594-7.730469 4.828125zm0 0"/></g><path d="m321.085938 26.035156h-312.40625c-4.792969 0-8.679688-3.886718-8.679688-8.679687s3.886719-8.675781 8.679688-8.675781h312.40625c4.792968 0 8.675781 3.882812 8.675781 8.675781s-3.882813 8.679687-8.675781 8.679687zm0 0" fill="#bdc3c7"/><path d="m494.644531 34.710938h-156.203125c-9.585937 0-17.355468-7.769532-17.355468-17.355469 0-9.585938 7.769531-17.355469 17.355468-17.355469h156.203125c9.585938 0 17.355469 7.769531 17.355469 17.355469 0 9.585937-7.769531 17.355469-17.355469 17.355469zm0 0" fill="#7f8c8d"/></svg>