<svg height="512pt" viewBox="0 -4 512 511" width="512pt" xmlns="http://www.w3.org/2000/svg"><g fill="#95a5a5"><path d="m211.597656 42.980469.265625 72.296875-114.761719-26.480469 104.519532-52.261719c2.757812 2.917969 6.179687 5.128906 9.976562 6.445313zm0 0"/><path d="m344.277344 88.796875-141.242188 17.652344 26.746094-63.46875c3.796875-1.316407 7.21875-3.527344 9.976562-6.445313zm0 0"/><path d="m404.214844 103.097656-81.390625 103.632813 12.625-117.933594h61.703125c3.390625-.011719 6.488281 1.90625 7.992187 4.945313 1.5 3.039062 1.140625 6.667968-.929687 9.355468zm0 0"/></g><path d="m150.070312 274.175781h141.238282v79.445313h-141.238282zm0 0" fill="#7f6e5d"/><path d="m35.308594 141.761719v70.621093c0 4.875 3.953125 8.824219 8.828125 8.824219 9.722656.074219 17.585937 7.9375 17.65625 17.65625-.027344 9.738281-7.917969 17.625-17.65625 17.65625h-26.480469c-9.738281-.03125-17.6289062-7.917969-17.65625-17.65625v-114.757812c0-19.5 15.808594-35.308594 35.308594-35.308594h88.277344l-20.039063 35.308594h-50.582031c-9.738282.027343-17.625 7.917969-17.65625 17.65625zm0 0" fill="#bdc3c7"/><path d="m264.828125 503.691406h68.679687l-20.921874-158.632812-2.207032-10.855469c-.839844-4.113281-4.457031-7.0625-8.652344-7.0625h-54.554687zm0 0" fill="#95a5a5"/><path d="m357.277344 318.3125c-3.058594 0-5.894532-1.585938-7.503906-4.1875-1.605469-2.601562-1.753907-5.851562-.386719-8.585938l3.601562-7.210937c1.425781-2.839844.871094-6.273437-1.375-8.519531-8.417969-8.449219-9.722656-21.652344-3.125-31.585938l10.28125-15.429687c2.707031-4.058594 8.1875-5.152344 12.246094-2.445313 4.054687 2.707032 5.148437 8.1875 2.445313 12.242188l-10.285157 15.40625c-1.957031 2.914062-1.589843 6.808594.882813 9.304687 7.628906 7.617188 9.515625 19.261719 4.6875 28.898438l-3.601563 7.203125c-1.484375 2.992187-4.527343 4.894531-7.867187 4.910156zm0 0" fill="#cbb292"/><path d="m401.417969 318.3125c-3.058594 0-5.898438-1.585938-7.507813-4.1875-1.605468-2.601562-1.753906-5.851562-.386718-8.585938l3.601562-7.210937c1.425781-2.839844.871094-6.273437-1.375-8.519531-8.414062-8.449219-9.722656-21.652344-3.125-31.585938l10.285156-15.429687c1.75-2.625 4.765625-4.117188 7.914063-3.910157 3.148437.203126 5.945312 2.070313 7.34375 4.898438 1.398437 2.828125 1.179687 6.1875-.570313 8.808594l-10.285156 15.40625c-1.957031 2.914062-1.585938 6.808594.882812 9.304687 7.628907 7.617188 9.519532 19.261719 4.6875 28.898438l-3.601562 7.203125c-1.480469 2.992187-4.523438 4.894531-7.863281 4.910156zm0 0" fill="#cbb292"/><path d="m445.554688 318.3125c-3.058594 0-5.898438-1.585938-7.503907-4.1875-1.609375-2.601562-1.753906-5.851562-.386719-8.585938l3.601563-7.210937c1.421875-2.839844.867187-6.273437-1.378906-8.519531-8.414063-8.449219-9.722657-21.652344-3.125-31.585938l10.285156-15.429687c2.707031-4.058594 8.1875-5.152344 12.242187-2.445313 4.058594 2.707032 5.152344 8.1875 2.445313 12.242188l-10.28125 15.40625c-1.957031 2.914062-1.589844 6.808594.882813 9.304687 7.625 7.617188 9.515624 19.261719 4.6875 28.898438l-3.601563 7.203125c-1.484375 2.992187-4.527344 4.894531-7.867187 4.910156zm0 0" fill="#cbb292"/><path d="m211.863281 327.140625-17.65625 52.964844-17.65625 123.585937h-68.675781c-2.652344 0-5.164062-1.191406-6.839844-3.242187-1.679687-2.054688-2.34375-4.753907-1.8125-7.351563l31.777344-158.894531c.839844-4.113281 4.457031-7.0625 8.652344-7.0625zm0 0" fill="#95a5a5"/><path d="m264.828125 503.691406h-88.277344l8.828125-123.585937 3.796875-52.964844h63.027344l3.796875 52.964844zm0 0" fill="#7f8c8d"/><path d="m194.207031 283.003906h-54.464843c-4.242188-.039062-7.867188-3.070312-8.652344-7.242187l-27.542969-151.65625-6.445313-35.308594h97.105469zm0 0" fill="#7f8c8d"/><path d="m344.277344 88.796875-21.453125 117.933594-12.535157 69.03125c-.785156 4.171875-4.40625 7.203125-8.652343 7.242187h-54.464844l-8.828125-70.621094 8.828125-123.585937zm0 0" fill="#7f8c8d"/><path d="m256 88.796875-5.648438 123.585937-3.179687 70.621094h-52.964844l-3.179687-70.621094-5.648438-123.585937zm0 0" fill="#95a5a5"/><path d="m256 88.796875h-70.621094l26.21875-45.816406c5.855469 2.234375 12.328125 2.234375 18.183594 0zm0 0" fill="#7f8c8d"/><path d="m247.171875 27.003906c.011719 6.851563-2.648437 13.4375-7.414063 18.359375-2.757812 2.917969-6.179687 5.128907-9.976562 6.445313-5.855469 2.234375-12.328125 2.234375-18.183594 0-3.796875-1.316406-7.21875-3.527344-9.976562-6.445313-8.277344-8.589843-9.792969-21.648437-3.699219-31.90625 6.09375-10.253906 18.289063-15.167969 29.789063-12.007812 11.5 3.164062 19.46875 13.625 19.460937 25.554687zm0 0" fill="#7f8c8d"/><path d="m486.585938 503.691406h-161.035157c-14.035156 0-25.414062-11.378906-25.414062-25.414062v-9.894532h211.863281v9.894532c0 14.035156-11.378906 25.414062-25.414062 25.414062zm0 0" fill="#bdc3c7"/><path d="m308.964844 349.703125v69.589844c.875 27.945312 24.210937 49.910156 52.164062 49.089843h89.882813c27.949219.820313 51.285156-21.144531 52.160156-49.089843v-69.589844c-.09375-2.789063-2.425781-4.980469-5.214844-4.90625h-183.773437c-2.792969-.082031-5.125 2.113281-5.21875 4.90625zm0 0" fill="#e64c3c"/><path d="m451.011719 441.898438c-4.875 0-8.828125-3.953126-8.828125-8.828126s3.953125-8.828124 8.828125-8.828124c4.652343 0 8.023437-2.957032 8.023437-4.960938v-39.175781c0-4.875 3.953125-8.828125 8.828125-8.828125s8.828125 3.953125 8.828125 8.828125v39.175781c-.914062 13.304688-12.367187 23.394531-25.679687 22.617188zm0 0" fill="#e6e7e8"/></svg>