<svg height="512pt" viewBox="-4 0 512 512" width="512pt" xmlns="http://www.w3.org/2000/svg"><path d="m406.070312 344.277344h88.273438v88.273437h-88.273438zm0 0" fill="#ecf0f1"/><path d="m176.550781 132.414062h-52.964843v-132.414062l52.964843 35.308594zm0 0" fill="#bdc3c7"/><path d="m26.484375 459.035156h247.171875c14.625 0 26.480469 11.855469 26.480469 26.480469 0 14.628906-11.855469 26.484375-26.480469 26.484375h-247.171875c-14.628906 0-26.484375-11.855469-26.484375-26.484375 0-14.625 11.855469-26.480469 26.484375-26.480469zm0 0" fill="#4482c3"/><path d="m273.65625 211.863281v131.078125c-79.449219 8.300782-88.277344-24.714844-141.242188-49.433594-52.964843-24.714843-105.929687 0-105.929687 0v-81.644531zm0 0" fill="#b0d3f0"/><path d="m273.65625 325.296875v142.566406h-247.171875v-192s52.964844-24.808593 105.929687 0c52.964844 24.804688 61.792969 57.730469 141.242188 49.433594zm0 0" fill="#90bae1"/><path d="m88.277344 123.585938h123.585937c9.75 0 17.652344 7.90625 17.652344 17.65625v35.308593h-158.894531v-35.308593c0-9.75 7.902344-17.65625 17.65625-17.65625zm0 0" fill="#95a5a5"/><g fill="#e6e7e8"><path d="m61.792969 326.621094c-2.347657.023437-4.605469-.902344-6.265625-2.558594-.777344-.863281-1.40625-1.847656-1.855469-2.914062-.941406-2.136719-.941406-4.574219 0-6.710938.449219-1.066406 1.074219-2.054688 1.855469-2.910156.828125-.820313 1.820312-1.449219 2.910156-1.855469 3.289062-1.382813 7.085938-.652344 9.625 1.855469.777344.855468 1.402344 1.84375 1.851562 2.910156 1.164063 2.714844.878907 5.835938-.761718 8.292969-1.636719 2.457031-4.40625 3.921875-7.359375 3.890625zm0 0"/><path d="m105.929688 335.449219c-2.347657.023437-4.605469-.902344-6.265626-2.5625-.777343-.859375-1.40625-1.84375-1.855468-2.910157-.941406-2.136718-.941406-4.574218 0-6.710937.449218-1.070313 1.074218-2.054687 1.855468-2.914063.828126-.816406 1.820313-1.445312 2.914063-1.851562 3.285156-1.382812 7.082031-.652344 9.621094 1.851562.777343.859376 1.40625 1.84375 1.851562 2.914063 1.164063 2.714844.878907 5.835937-.757812 8.292969-1.640625 2.457031-4.410157 3.917968-7.363281 3.890625zm0 0"/><path d="m70.621094 361.929688c-2.347656.023437-4.605469-.898438-6.269532-2.558594-.777343-.859375-1.402343-1.84375-1.851562-2.914063-.941406-2.136719-.941406-4.570312 0-6.707031.445312-1.070312 1.074219-2.054688 1.851562-2.914062.832032-.816407 1.824219-1.449219 2.914063-1.855469 3.289063-1.378907 7.085937-.648438 9.621094 1.855469.78125.859374 1.40625 1.84375 1.855469 2.914062 1.164062 2.714844.878906 5.832031-.761719 8.289062-1.636719 2.457032-4.40625 3.921876-7.359375 3.890626zm0 0"/><path d="m141.242188 379.585938c-2.347657.023437-4.609376-.898438-6.269532-2.558594-.777344-.859375-1.402344-1.847656-1.851562-2.914063-.941406-2.136719-.941406-4.570312 0-6.710937.445312-1.066406 1.074218-2.050782 1.851562-2.910156.832032-.816407 1.824219-1.449219 2.914063-1.855469 3.289062-1.382813 7.082031-.652344 9.621093 1.855469.78125.859374 1.40625 1.84375 1.855469 2.910156 1.164063 2.714844.875 5.835937-.761719 8.292968-1.636718 2.457032-4.40625 3.921876-7.359374 3.890626zm0 0"/><path d="m88.277344 397.242188c-2.347656.023437-4.609375-.902344-6.269532-2.5625-.777343-.859376-1.402343-1.84375-1.851562-2.910157-.945312-2.136719-.945312-4.574219 0-6.710937.445312-1.070313 1.074219-2.054688 1.851562-2.914063.828126-.816406 1.824219-1.445312 2.914063-1.851562 3.285156-1.382813 7.082031-.652344 9.621094 1.851562.78125.859375 1.40625 1.84375 1.855469 2.914063 1.164062 2.714844.875 5.835937-.761719 8.292968-1.640625 2.457032-4.40625 3.917969-7.359375 3.890626zm0 0"/><path d="m70.621094 432.550781c-2.347656.023438-4.605469-.898437-6.269532-2.558593-.777343-.859376-1.402343-1.84375-1.851562-2.914063-.941406-2.136719-.941406-4.570313 0-6.707031.445312-1.070313 1.074219-2.054688 1.851562-2.914063.832032-.816406 1.824219-1.449219 2.914063-1.855469 3.289063-1.382812 7.085937-.648437 9.621094 1.855469.78125.859375 1.40625 1.84375 1.855469 2.914063 1.164062 2.714844.878906 5.832031-.761719 8.289062-1.636719 2.457032-4.40625 3.921875-7.359375 3.890625zm0 0"/><path d="m124.292969 418.25c-2.347657.019531-4.605469-.902344-6.269531-2.558594-.777344-.859375-1.402344-1.84375-1.851563-2.914062-.941406-2.136719-.941406-4.570313 0-6.707032.445313-1.070312 1.074219-2.054687 1.851563-2.914062.832031-.816406 1.824218-1.449219 2.914062-1.855469 3.289062-1.382812 7.085938-.648437 9.621094 1.855469.78125.859375 1.40625 1.84375 1.855468 2.914062 1.164063 2.714844.878907 5.832032-.761718 8.289063-1.636719 2.457031-4.40625 3.921875-7.359375 3.890625zm0 0"/><path d="m176.550781 432.550781c-2.347656.023438-4.605469-.898437-6.265625-2.558593-.777344-.859376-1.40625-1.84375-1.855468-2.914063-.941407-2.136719-.941407-4.570313 0-6.707031.449218-1.070313 1.074218-2.054688 1.855468-2.914063.828125-.816406 1.820313-1.449219 2.910156-1.855469 3.289063-1.382812 7.085938-.648437 9.625 1.855469.777344.859375 1.40625 1.84375 1.851563 2.914063 1.164063 2.714844.878906 5.832031-.757813 8.289062-1.640624 2.457032-4.410156 3.921875-7.363281 3.890625zm0 0"/><path d="m203.035156 397.242188c-2.347656.023437-4.605468-.902344-6.269531-2.5625-.777344-.859376-1.402344-1.84375-1.851563-2.910157-.941406-2.136719-.941406-4.574219 0-6.710937.445313-1.070313 1.074219-2.054688 1.851563-2.914063.832031-.816406 1.824219-1.445312 2.914063-1.851562 3.289062-1.382813 7.082031-.652344 9.621093 1.851562.78125.859375 1.40625 1.84375 1.855469 2.914063 1.164062 2.714844.878906 5.835937-.761719 8.292968-1.636719 2.457032-4.40625 3.917969-7.359375 3.890626zm0 0"/><path d="m167.722656 344.277344c-2.347656.019531-4.605468-.902344-6.265625-2.5625-.777343-.859375-1.40625-1.84375-1.855469-2.910156-.941406-2.140626-.941406-4.574219 0-6.710938.449219-1.070312 1.074219-2.054688 1.855469-2.914062.828125-.816407 1.820313-1.449219 2.914063-1.851563 3.285156-1.382813 7.082031-.652344 9.621094 1.851563.777343.859374 1.40625 1.84375 1.851562 2.914062 1.164062 2.714844.878906 5.832031-.757812 8.289062-1.640626 2.460938-4.410157 3.921876-7.363282 3.894532zm0 0"/><path d="m238.34375 432.550781c-2.347656.023438-4.605469-.898437-6.265625-2.558593-.777344-.859376-1.40625-1.84375-1.855469-2.914063-.941406-2.136719-.941406-4.570313 0-6.707031.449219-1.070313 1.074219-2.054688 1.855469-2.914063.828125-.816406 1.820313-1.449219 2.914063-1.855469 3.285156-1.382812 7.082031-.648437 9.621093 1.855469.777344.859375 1.40625 1.84375 1.851563 2.914063 1.164062 2.714844.878906 5.832031-.757813 8.289062-1.640625 2.457032-4.410156 3.921875-7.363281 3.890625zm0 0"/><path d="m238.34375 370.757812c-2.347656.023438-4.605469-.898437-6.265625-2.558593-.777344-.859375-1.40625-1.84375-1.855469-2.914063-.941406-2.136718-.941406-4.570312 0-6.707031.449219-1.070313 1.074219-2.054687 1.855469-2.914063.828125-.816406 1.820313-1.449218 2.914063-1.855468 3.285156-1.382813 7.082031-.648438 9.621093 1.855468.777344.859376 1.40625 1.84375 1.851563 2.914063 1.164062 2.714844.878906 5.832031-.757813 8.289063-1.640625 2.457031-4.410156 3.921874-7.363281 3.890624zm0 0"/></g><path d="m335.449219 423.722656h88.273437v88.277344h-79.445312c-4.875 0-8.828125-3.953125-8.828125-8.828125zm0 0" fill="#ecf0f1"/><path d="m414.898438 423.722656h79.445312c4.875 0 8.828125 3.953125 8.828125 8.828125v70.621094c0 4.875-3.953125 8.828125-8.828125 8.828125h-79.445312zm0 0" fill="#bdc3c7"/><path d="m335.449219 344.277344h79.449219v88.273437h-79.449219c-4.875 0-8.828125-3.953125-8.828125-8.828125v-70.621094c0-4.875 3.953125-8.824218 8.828125-8.824218zm0 0" fill="#bdc3c7"/><path d="m344.277344 264.828125h79.445312v88.273437h-88.273437v-79.445312c0-4.875 3.953125-8.828125 8.828125-8.828125zm0 0" fill="#ecf0f1"/><path d="m414.898438 264.828125h79.445312c4.875 0 8.828125 3.953125 8.828125 8.828125v70.621094c0 4.875-3.953125 8.824218-8.828125 8.824218h-79.445312zm0 0" fill="#bdc3c7"/><path d="m388.414062 185.378906h70.621094c4.875 0 8.828125 3.953125 8.828125 8.828125v70.621094c0 4.875-3.953125 8.828125-8.828125 8.828125h-70.621094c-4.875 0-8.828124-3.953125-8.828124-8.828125v-70.621094c0-4.875 3.953124-8.828125 8.828124-8.828125zm0 0" fill="#bdc3c7"/><path d="m26.484375 167.722656h247.171875c14.625 0 26.480469 11.859375 26.480469 26.484375s-11.855469 26.484375-26.480469 26.484375h-247.171875c-14.628906 0-26.484375-11.859375-26.484375-26.484375s11.855469-26.484375 26.484375-26.484375zm0 0" fill="#4482c3"/></svg>