<svg height="512pt" viewBox="-4 0 512 512" width="512pt" xmlns="http://www.w3.org/2000/svg"><path d="m379.585938 353.101562c43.882812 0 79.449218-43.472656 79.449218-97.101562s-35.566406-97.101562-79.449218-97.101562v-52.96875c68.253906 0 123.585937 67.1875 123.585937 150.070312s-55.332031 150.070312-123.585937 150.070312zm0 0" fill="#c03a2b"/><path d="m388.414062 105.929688c-.042968 9.171874-2.121093 18.21875-6.089843 26.484374-21.539063-45.726562-88.808594-61.792968-179.289063-61.792968-90.484375 0-175.40625 16.066406-196.945312 61.792968-3.96875-8.265624-6.0468752-17.3125-6.089844-26.484374 0-58.527344 86.953125-105.929688 194.207031-105.929688 107.253907 0 194.207031 47.402344 194.207031 105.929688zm0 0" fill="#e64c3c"/><path d="m382.324219 132.414062c-21.539063 45.726563-97.632813 105.929688-188.117188 105.929688s-166.578125-60.203125-188.117187-105.929688c21.539062-45.726562 97.632812-79.449218 188.117187-79.449218s166.578125 33.722656 188.117188 79.449218zm0 0" fill="#f3d55b"/><path d="m388.414062 105.929688v300.140624c0 58.527344-86.953124 105.929688-194.207031 105.929688-107.253906 0-194.207031-47.402344-194.207031-105.929688v-300.140624c.0429688 9.171874 2.121094 18.21875 6.089844 26.484374 21.539062 45.726563 97.632812 79.449219 188.117187 79.449219s166.578125-33.722656 188.117188-79.449219c3.96875-8.265624 6.046875-17.3125 6.089843-26.484374zm0 0" fill="#e64c3c"/><path d="m35.308594 247.171875c-4.875 0-8.824219-3.953125-8.824219-8.828125v-17.652344c0-4.878906 3.949219-8.828125 8.824219-8.828125 4.878906 0 8.828125 3.949219 8.828125 8.828125v17.652344c0 4.875-3.949219 8.828125-8.828125 8.828125zm0 0" fill="#fdd7ad"/><path d="m35.308594 414.898438c-4.875 0-8.824219-3.953126-8.824219-8.828126v-132.414062c0-4.875 3.949219-8.828125 8.824219-8.828125 4.878906 0 8.828125 3.953125 8.828125 8.828125v132.414062c0 4.875-3.949219 8.828126-8.828125 8.828126zm0 0" fill="#fdd7ad"/><path d="m300.136719 129.078125c-.582031 9.425781-5.898438 17.917969-14.121094 22.5625l-91.746094 60.222656-91.808593-60.222656c-18.96875-12.457031-18.96875-32.664063 0-45.117187 10.328124-6.335938 22.253906-9.585938 34.367187-9.367188 12.167969-.234375 24.152344 3.015625 34.53125 9.367188l22.863281 15.007812 22.855469-15.007812c21.253906-12.5625 47.65625-12.5625 68.910156 0 8.234375 4.632812 13.5625 13.121093 14.148438 22.554687zm0 0" fill="#f9eab0"/><path d="m242.847656 400.859375-.089844-.085937c-4.148437-7.59375-40.253906-21.363282-66.207031-30.015626-25.953125-8.648437-26.746093-57.730468-30.894531-65.324218l-.089844-.085938.441406-.441406c21.273438-21.363281 60.117188-17.039062 86.777344 9.621094 26.480469 26.480468 30.894532 64.96875 10.0625 86.332031zm0 0" fill="#7f6e5d"/><path d="m242.847656 400.859375-.441406.441406c-21.273438 21.363281-60.117188 17.039063-86.777344-9.621093-26.480468-26.484376-30.894531-64.972657-10.0625-86.332032l.089844.085938c4.148438 7.59375 22.597656 39.019531 48.550781 47.667968 25.953125 8.652344 44.402344 40.078126 48.550781 47.671876zm0 0" fill="#cbb292"/></svg>